SplineFontDB: 3.2
FontName: Entity-Bold
FullName: Entity Bold
FamilyName: Entity
Weight: Bold
Copyright: Based on Geist Copyright 2024 The Geist Project Authors https:github.comvercelgeist-font.git
Version: 0.1
ItalicAngle: 0
UnderlinePosition: -125
UnderlineWidth: 50
Ascent: 800
Descent: 200
InvalidEm: 0
sfntRevision: 0x0000199a
LayerCount: 2
Layer: 0 0 "Back" 1
Layer: 1 0 "Fore" 0
XUID: [1021 1008 -1557834819 788083]
StyleMap: 0x0020
FSType: 0
OS2Version: 4
OS2_WeightWidthSlopeOnly: 0
OS2_UseTypoMetrics: 1
CreationTime: 1728311655
ModificationTime: 1746832153
PfmFamily: 81
TTFWeight: 700
TTFWidth: 5
LineGap: 0
VLineGap: 0
Panose: 0 0 0 0 0 0 0 0 0 0
OS2TypoAscent: 1005
OS2TypoAOffset: 0
OS2TypoDescent: -295
OS2TypoDOffset: 0
OS2TypoLinegap: 0
OS2WinAscent: 1012
OS2WinAOffset: 0
OS2WinDescent: 262
OS2WinDOffset: 0
HheadAscent: 1005
HheadAOffset: 0
HheadDescent: -295
HheadDOffset: 0
OS2SubXSize: 650
OS2SubYSize: 600
OS2SubXOff: 0
OS2SubYOff: 75
OS2SupXSize: 650
OS2SupYSize: 600
OS2SupXOff: 0
OS2SupYOff: 350
OS2StrikeYSize: 50
OS2StrikeYPos: 322
OS2CapHeight: 710
OS2XHeight: 536
OS2Vendor: 'VRCL'
OS2CodePages: 20000097.00000000
OS2UnicodeRanges: a10002ff.5001e5fb.00000000.00000000
Lookup: 1 0 0 "'aalt' Access All Alternates in Latin lookup 0" { "'aalt' Access All Alternates in Latin lookup 0 subtable"  } ['aalt' ('DFLT' <'dflt' > 'latn' <'AZE ' 'CAT ' 'CRT ' 'KAZ ' 'MAH ' 'MOL ' 'NLD ' 'ROM ' 'TAT ' 'TRK ' 'dflt' > ) ]
Lookup: 3 0 0 "'aalt' Access All Alternates in Latin lookup 1" { "'aalt' Access All Alternates in Latin lookup 1 subtable"  } ['aalt' ('DFLT' <'dflt' > 'latn' <'AZE ' 'CAT ' 'CRT ' 'KAZ ' 'MAH ' 'MOL ' 'NLD ' 'ROM ' 'TAT ' 'TRK ' 'dflt' > ) ]

StartChar: .notdef
Encoding: 65536 -1 0
Width: 600
GlyphClass: 1
Flags: MW
HStem: 0 36<95 510 95 565> 674 36<95 95 95 510>
VStem: 40 33<64 646 64 710> 532 33<64 646 646 646>
LayerCount: 2
Fore
SplineSet
40 0 m 1
 40 710 l 1
 565 710 l 1
 565 0 l 1
 40 0 l 1
95 674 m 1
 303 384 l 1
 510 674 l 1
 95 674 l 1
73 646 m 1
 73 64 l 1
 282 355 l 1
 73 646 l 1
323 355 m 1
 532 64 l 1
 532 646 l 1
 323 355 l 1
95 36 m 1
 510 36 l 1
 303 326 l 1
 95 36 l 1
EndSplineSet
EndChar

StartChar: A
Encoding: 65 65 1
Width: 730
GlyphClass: 2
Flags: MW
HStem: 0 21G<19 19 19 176 553 553 553 711> 151 125<271 459 271 501 228 459> 690 20G<275 455 455 455>
VStem: 19 692<0 0>
AnchorPoint: "Anchor-3" 365 710 basechar 0
AnchorPoint: "Anchor-2" 711 0 basechar 0
AnchorPoint: "Anchor-0" 365 0 basechar 0
LayerCount: 2
Fore
SplineSet
19 0 m 1
 275 710 l 1
 455 710 l 1
 711 0 l 1
 553 0 l 1
 501 151 l 1
 228 151 l 1
 176 0 l 1
 19 0 l 1
271 276 m 1
 459 276 l 1
 365 550 l 1
 271 276 l 1
EndSplineSet
Substitution2: "Single Substitution lookup 27 subtable" ordfeminine
Substitution2: "'aalt' Access All Alternates in Latin lookup 0 subtable" ordfeminine
EndChar

StartChar: Aacute
Encoding: 193 193 2
Width: 730
GlyphClass: 2
Flags: MW
HStem: 0 21G<19 19 19 176 553 553 553 711> 151 125<271 459 271 501 228 459> 690 20G<275 455 455 455> 765 148<297 501 356 411>
VStem: 19 692<0 0>
AnchorPoint: "Anchor-3" 365 710 basechar 0
AnchorPoint: "Anchor-2" 711 0 basechar 0
AnchorPoint: "Anchor-0" 365 0 basechar 0
LayerCount: 2
Fore
SplineSet
297 765 m 1
 356 913 l 1
 501 913 l 1
 411 765 l 1
 297 765 l 1
19 0 m 1
 275 710 l 1
 455 710 l 1
 711 0 l 1
 553 0 l 1
 501 151 l 1
 228 151 l 1
 176 0 l 1
 19 0 l 1
271 276 m 1
 459 276 l 1
 365 550 l 1
 271 276 l 1
EndSplineSet
EndChar

StartChar: Abreve
Encoding: 258 258 3
Width: 730
GlyphClass: 2
Flags: MW
HStem: 0 21G<19 19 19 176 553 553 553 711> 151 125<271 459 271 501 228 459> 690 20G<275 455 455 455> 766 82<345 385 345 411.5> 766 147<208 411.5>
VStem: 19 692<0 0>
AnchorPoint: "Anchor-3" 365 710 basechar 0
AnchorPoint: "Anchor-2" 711 0 basechar 0
AnchorPoint: "Anchor-0" 365 0 basechar 0
LayerCount: 2
Fore
SplineSet
365 766 m 0xec
 272 766 212 819 208 913 c 1xec
 295 913 l 1
 300 867 325 848 365 848 c 0xf4
 405 848 430 867 435 913 c 1
 522 913 l 1
 518 819 458 766 365 766 c 0xec
19 0 m 1
 275 710 l 1
 455 710 l 1
 711 0 l 1
 553 0 l 1
 501 151 l 1
 228 151 l 1
 176 0 l 1
 19 0 l 1
271 276 m 1
 459 276 l 1
 365 550 l 1
 271 276 l 1
EndSplineSet
EndChar

StartChar: uni01CD
Encoding: 461 461 4
Width: 730
GlyphClass: 2
Flags: MW
HStem: 0 21G<19 19 19 176 553 553 553 711> 151 125<271 459 271 501 228 459> 690 20G<275 455 455 455> 765 153<293 302 429 437 293 293>
VStem: 19 692<0 0>
AnchorPoint: "Anchor-3" 365 710 basechar 0
AnchorPoint: "Anchor-2" 711 0 basechar 0
AnchorPoint: "Anchor-0" 365 0 basechar 0
LayerCount: 2
Fore
SplineSet
197 918 m 1
 302 918 l 1
 365 829 l 1
 429 918 l 1
 533 918 l 1
 437 765 l 1
 293 765 l 1
 197 918 l 1
19 0 m 1
 275 710 l 1
 455 710 l 1
 711 0 l 1
 553 0 l 1
 501 151 l 1
 228 151 l 1
 176 0 l 1
 19 0 l 1
271 276 m 1
 459 276 l 1
 365 550 l 1
 271 276 l 1
EndSplineSet
EndChar

StartChar: Acircumflex
Encoding: 194 194 5
Width: 730
GlyphClass: 2
Flags: MW
HStem: 0 21G<19 19 19 176 553 553 553 711> 151 125<271 459 271 501 228 459> 690 20G<275 455 455 455> 765 153<197 437 293 302 429 429 429 437 293 533>
VStem: 19 692<0 0>
AnchorPoint: "Anchor-3" 365 710 basechar 0
AnchorPoint: "Anchor-2" 711 0 basechar 0
AnchorPoint: "Anchor-0" 365 0 basechar 0
LayerCount: 2
Fore
SplineSet
197 765 m 1
 293 918 l 1
 437 918 l 1
 533 765 l 1
 429 765 l 1
 365 854 l 1
 302 765 l 1
 197 765 l 1
19 0 m 1
 275 710 l 1
 455 710 l 1
 711 0 l 1
 553 0 l 1
 501 151 l 1
 228 151 l 1
 176 0 l 1
 19 0 l 1
271 276 m 1
 459 276 l 1
 365 550 l 1
 271 276 l 1
EndSplineSet
EndChar

StartChar: Adieresis
Encoding: 196 196 6
Width: 730
GlyphClass: 2
Flags: MW
HStem: 0 21G<19 19 19 176 553 553 553 711> 151 125<271 459 271 501 228 459> 690 20G<275 455 455 455> 773 121<186 329 186 329 401 544 186 401>
VStem: 186 143<773 894 773 894> 401 143<773 894 773 894>
AnchorPoint: "Anchor-3" 365 710 basechar 0
AnchorPoint: "Anchor-2" 711 0 basechar 0
AnchorPoint: "Anchor-0" 365 0 basechar 0
LayerCount: 2
Fore
SplineSet
186 773 m 1
 186 894 l 1
 329 894 l 1
 329 773 l 1
 186 773 l 1
401 773 m 1
 401 894 l 1
 544 894 l 1
 544 773 l 1
 401 773 l 1
19 0 m 1
 275 710 l 1
 455 710 l 1
 711 0 l 1
 553 0 l 1
 501 151 l 1
 228 151 l 1
 176 0 l 1
 19 0 l 1
271 276 m 1
 459 276 l 1
 365 550 l 1
 271 276 l 1
EndSplineSet
Substitution2: "'ss08' Style Set 8 in Latin lookup 41 subtable" Adieresis.ss08
Substitution2: "'aalt' Access All Alternates in Latin lookup 0 subtable" Adieresis.ss08
EndChar

StartChar: Agrave
Encoding: 192 192 7
Width: 730
GlyphClass: 2
Flags: MW
HStem: 0 21G<19 19 19 176 553 553 553 711> 151 125<271 459 271 501 228 459> 690 20G<275 455 455 455> 772 147<317 317 317 373 227 432>
VStem: 19 692<0 0>
AnchorPoint: "Anchor-3" 365 710 basechar 0
AnchorPoint: "Anchor-2" 711 0 basechar 0
AnchorPoint: "Anchor-0" 365 0 basechar 0
LayerCount: 2
Fore
SplineSet
317 772 m 1
 227 919 l 1
 373 919 l 1
 432 772 l 1
 317 772 l 1
19 0 m 1
 275 710 l 1
 455 710 l 1
 711 0 l 1
 553 0 l 1
 501 151 l 1
 228 151 l 1
 176 0 l 1
 19 0 l 1
271 276 m 1
 459 276 l 1
 365 550 l 1
 271 276 l 1
EndSplineSet
EndChar

StartChar: Amacron
Encoding: 256 256 8
Width: 730
GlyphClass: 2
Flags: MW
HStem: 0 21G<19 19 19 176 553 553 553 711> 151 125<271 459 271 501 228 459> 690 20G<275 455 455 455> 781 110<216 515 216 515>
VStem: 19 692<0 0> 216 299<781 891 781 891>
AnchorPoint: "Anchor-3" 365 710 basechar 0
AnchorPoint: "Anchor-2" 711 0 basechar 0
AnchorPoint: "Anchor-0" 365 0 basechar 0
LayerCount: 2
Fore
SplineSet
216 781 m 1xf4
 216 891 l 1
 515 891 l 1
 515 781 l 1
 216 781 l 1xf4
19 0 m 1
 275 710 l 1
 455 710 l 1
 711 0 l 1
 553 0 l 1
 501 151 l 1
 228 151 l 1
 176 0 l 1xf8
 19 0 l 1
271 276 m 1
 459 276 l 1
 365 550 l 1
 271 276 l 1
EndSplineSet
EndChar

StartChar: Aogonek
Encoding: 260 260 9
Width: 730
GlyphClass: 2
Flags: MW
HStem: -217 89<605.5 683.5> 0 21G<19 19 19 176 553 553 553 593 711 711> 151 125<271 459 271 501 228 459> 690 20G<275 455 455 455>
VStem: 19 729<-191 0> 528 121<-159.5 -94.5>
AnchorPoint: "Anchor-3" 365 710 basechar 0
AnchorPoint: "Anchor-2" 711 0 basechar 0
AnchorPoint: "Anchor-0" 365 0 basechar 0
LayerCount: 2
Fore
SplineSet
19 0 m 1x78
 275 710 l 1
 455 710 l 1
 711 0 l 1
 681 -40 l 2
 661 -66 649 -86 649 -103 c 0xf4
 649 -119 661 -128 675 -128 c 0
 692 -128 710 -122 720 -115 c 1
 748 -191 l 1xf8
 730 -206 684 -217 641 -217 c 0
 570 -217 528 -187 528 -132 c 0xf4
 528 -91 553 -52 578 -20 c 2
 593 0 l 1
 553 0 l 1
 501 151 l 1
 228 151 l 1
 176 0 l 1
 19 0 l 1x78
271 276 m 1
 459 276 l 1
 365 550 l 1
 271 276 l 1
EndSplineSet
EndChar

StartChar: Aring
Encoding: 197 197 10
Width: 736
GlyphClass: 2
Flags: MW
HStem: 0 21G<13 13 13 170 548 548 548 705> 151 125<265 453 265 495 222 453> 690 20G<269 449 449 449> 755 64<352 374 352 392> 894 64<352 374>
VStem: 260 66<845.5 867 845.5 885> 400 66<845.5 867>
AnchorPoint: "Anchor-3" 359 710 basechar 0
AnchorPoint: "Anchor-2" 705 0 basechar 0
AnchorPoint: "Anchor-0" 359 0 basechar 0
LayerCount: 2
Fore
SplineSet
363 755 m 0
 305 755 260 798 260 856 c 0
 260 914 305 958 363 958 c 0
 421 958 466 914 466 856 c 0
 466 798 421 755 363 755 c 0
363 819 m 0
 385 819 400 835 400 856 c 0
 400 878 385 894 363 894 c 0
 341 894 326 878 326 856 c 0
 326 835 341 819 363 819 c 0
13 0 m 1
 269 710 l 1
 449 710 l 1
 705 0 l 1
 548 0 l 1
 495 151 l 1
 222 151 l 1
 170 0 l 1
 13 0 l 1
265 276 m 1
 453 276 l 1
 359 550 l 1
 265 276 l 1
EndSplineSet
EndChar

StartChar: Atilde
Encoding: 195 195 11
Width: 736
GlyphClass: 2
Flags: MW
HStem: 0 21G<13 13 13 170 548 548 548 705> 151 125<265 453 265 495 222 453> 690 20G<269 449 449 449> 775 142<187 314 187 314> 780 89<411.5 428 411.5 451> 780 144<399.5 530> 828 89<290.5 307>
VStem: 187 75<775 775> 455 75<924 924>
AnchorPoint: "Anchor-3" 359 710 basechar 0
AnchorPoint: "Anchor-2" 705 0 basechar 0
AnchorPoint: "Anchor-0" 359 0 basechar 0
LayerCount: 2
Fore
SplineSet
415 780 m 0xe580
 384 780 364 788 339 810 c 0
 324 822 314 828 300 828 c 0xe380
 281 828 265 816 262 775 c 1
 187 775 l 1
 188 862 229 917 298 917 c 0xf180
 330 917 353 908 379 887 c 0
 395 875 405 869 418 869 c 0xe980
 438 869 452 881 455 924 c 1
 530 924 l 1
 528 836 487 780 415 780 c 0xe580
13 0 m 1
 269 710 l 1
 449 710 l 1
 705 0 l 1
 548 0 l 1
 495 151 l 1
 222 151 l 1
 170 0 l 1
 13 0 l 1
265 276 m 1
 453 276 l 1
 359 550 l 1
 265 276 l 1
EndSplineSet
EndChar

StartChar: AE
Encoding: 198 198 12
Width: 1042
GlyphClass: 2
Flags: MW
HStem: 0 128<676 997 676 997> 152 123<321 524 321 524 257 524> 293 126<676 977 676 977> 582 128<676 989 676 676> 584 126<481 524 481 481>
VStem: 524 152<128 152 152 152 275 293 419 582>
AnchorPoint: "Anchor-3" 558 710 basechar 0
AnchorPoint: "Anchor-0" 558 0 basechar 0
LayerCount: 2
Fore
SplineSet
19 0 m 1xb4
 399 710 l 1
 989 710 l 1
 989 582 l 1
 676 582 l 1
 676 419 l 1
 977 419 l 1
 977 293 l 1
 676 293 l 1
 676 128 l 1
 997 128 l 1
 997 0 l 1
 524 0 l 1xb4
 524 152 l 1
 257 152 l 1x54
 179 0 l 1
 19 0 l 1xb4
524 584 m 1x4c
 481 584 l 1
 321 275 l 1
 524 275 l 1
 524 584 l 1x4c
EndSplineSet
EndChar

StartChar: B
Encoding: 66 66 13
Width: 703
GlyphClass: 2
Flags: MW
HStem: 0 124<226 377 377 384> 306 61 306 110<226 346 346 377 226 346> 586 124<226 346 226 226>
VStem: 74 152<124 124 124 306 416 586> 469 153<474 530.5> 499 153<183.5 244>
AnchorPoint: "Anchor-3" 351 710 basechar 0
AnchorPoint: "Anchor-0" 351 0 basechar 0
LayerCount: 2
Fore
SplineSet
74 0 m 1xda
 74 710 l 1
 350 710 l 2
 526 710 622 650 622 517 c 0xbc
 622 431 569 376 475 367 c 1
 590 358 652 294 652 196 c 0
 652 64 556 0 384 0 c 2
 74 0 l 1xda
226 416 m 1
 346 416 l 2
 421 416 469 445 469 501 c 0
 469 560 423 586 346 586 c 2
 226 586 l 1
 226 416 l 1
226 124 m 1
 377 124 l 2
 450 124 499 153 499 214 c 0xba
 499 274 450 306 377 306 c 2
 226 306 l 1
 226 124 l 1
EndSplineSet
EndChar

StartChar: C
Encoding: 67 67 14
Width: 734
GlyphClass: 2
Flags: MW
HStem: -16 128<322.5 424.5 322.5 467.5> 598 128<321.5 422>
VStem: 42 157<279 428 279 467>
AnchorPoint: "Anchor-3" 377 710 basechar 0
AnchorPoint: "Anchor-0" 379 0 basechar 0
LayerCount: 2
Fore
SplineSet
375 -16 m 0
 181 -16 42 122 42 354 c 0
 42 580 173 726 378 726 c 0
 564 726 664 631 694 462 c 1
 536 456 l 1
 520 545 466 598 378 598 c 0
 265 598 199 502 199 354 c 0
 199 204 268 112 377 112 c 0
 472 112 524 169 538 265 c 1
 697 259 l 1
 668 86 560 -16 375 -16 c 0
EndSplineSet
EndChar

StartChar: Cacute
Encoding: 262 262 15
Width: 734
GlyphClass: 2
Flags: MW
HStem: -16 128<322.5 424.5 322.5 467.5> 598 128<321.5 422> 765 148<309 513 368 423>
VStem: 42 157<279 428 279 467>
AnchorPoint: "Anchor-3" 377 710 basechar 0
AnchorPoint: "Anchor-0" 379 0 basechar 0
LayerCount: 2
Fore
SplineSet
309 765 m 1
 368 913 l 1
 513 913 l 1
 423 765 l 1
 309 765 l 1
375 -16 m 0
 181 -16 42 122 42 354 c 0
 42 580 173 726 378 726 c 0
 564 726 664 631 694 462 c 1
 536 456 l 1
 520 545 466 598 378 598 c 0
 265 598 199 502 199 354 c 0
 199 204 268 112 377 112 c 0
 472 112 524 169 538 265 c 1
 697 259 l 1
 668 86 560 -16 375 -16 c 0
EndSplineSet
EndChar

StartChar: Ccaron
Encoding: 268 268 16
Width: 734
GlyphClass: 2
Flags: MW
HStem: -16 128<322.5 424.5 322.5 467.5> 598 128<321.5 422> 765 153<305 314 440 449 305 305>
VStem: 42 157<279 428 279 467>
AnchorPoint: "Anchor-3" 377 710 basechar 0
AnchorPoint: "Anchor-0" 379 0 basechar 0
LayerCount: 2
Fore
SplineSet
209 918 m 1
 314 918 l 1
 377 829 l 1
 440 918 l 1
 545 918 l 1
 449 765 l 1
 305 765 l 1
 209 918 l 1
375 -16 m 0
 181 -16 42 122 42 354 c 0
 42 580 173 726 378 726 c 0
 564 726 664 631 694 462 c 1
 536 456 l 1
 520 545 466 598 378 598 c 0
 265 598 199 502 199 354 c 0
 199 204 268 112 377 112 c 0
 472 112 524 169 538 265 c 1
 697 259 l 1
 668 86 560 -16 375 -16 c 0
EndSplineSet
EndChar

StartChar: Ccedilla
Encoding: 199 199 17
Width: 734
GlyphClass: 2
Flags: MW
HStem: -232 73<354 384.5 354 408> -84 53<352 403> -84 196<352 379> -13 21G<331 331> 598 128<321.5 422>
VStem: 42 157<279 428 279 467> 418 81<-134.5 -111.5>
AnchorPoint: "Anchor-3" 377 710 basechar 0
AnchorPoint: "Anchor-0" 379 0 basechar 0
LayerCount: 2
Fore
SplineSet
373 -232 m 0xce
 306 -232 262 -198 244 -149 c 1
 310 -121 l 1
 321 -147 338 -159 370 -159 c 0
 399 -159 418 -146 418 -123 c 0
 418 -100 406 -84 352 -84 c 1xae
 312 -45 l 1
 331 -13 l 1x9e
 160 6 42 140 42 354 c 0
 42 580 173 726 378 726 c 0
 564 726 664 631 694 462 c 1
 536 456 l 1
 520 545 466 598 378 598 c 0
 265 598 199 502 199 354 c 0
 199 204 268 112 377 112 c 0xae
 472 112 524 169 538 265 c 1
 697 259 l 1
 670 98 575 -1 414 -14 c 1
 403 -31 l 1
 470 -37 499 -76 499 -126 c 0
 499 -198 443 -232 373 -232 c 0xce
EndSplineSet
EndChar

StartChar: Ccircumflex
Encoding: 264 264 18
Width: 734
GlyphClass: 2
Flags: MW
HStem: -16 128<322.5 424.5 322.5 467.5> 598 128<321.5 422> 765 153<209 449 305 314 440 440 440 449 305 545>
VStem: 42 157<279 428 279 467>
AnchorPoint: "Anchor-3" 377 710 basechar 0
AnchorPoint: "Anchor-0" 379 0 basechar 0
LayerCount: 2
Fore
SplineSet
209 765 m 1
 305 918 l 1
 449 918 l 1
 545 765 l 1
 440 765 l 1
 377 854 l 1
 314 765 l 1
 209 765 l 1
375 -16 m 0
 181 -16 42 122 42 354 c 0
 42 580 173 726 378 726 c 0
 564 726 664 631 694 462 c 1
 536 456 l 1
 520 545 466 598 378 598 c 0
 265 598 199 502 199 354 c 0
 199 204 268 112 377 112 c 0
 472 112 524 169 538 265 c 1
 697 259 l 1
 668 86 560 -16 375 -16 c 0
EndSplineSet
EndChar

StartChar: Cdotaccent
Encoding: 266 266 19
Width: 734
GlyphClass: 2
Flags: MW
HStem: -16 128<322.5 424.5 322.5 467.5> 598 128<321.5 422> 776 120<299 455 299 455>
VStem: 42 157<279 428 279 467> 299 156<776 896 776 896>
AnchorPoint: "Anchor-3" 377 710 basechar 0
AnchorPoint: "Anchor-0" 379 0 basechar 0
LayerCount: 2
Fore
SplineSet
299 776 m 1
 299 896 l 1
 455 896 l 1
 455 776 l 1
 299 776 l 1
375 -16 m 0
 181 -16 42 122 42 354 c 0
 42 580 173 726 378 726 c 0
 564 726 664 631 694 462 c 1
 536 456 l 1
 520 545 466 598 378 598 c 0
 265 598 199 502 199 354 c 0
 199 204 268 112 377 112 c 0
 472 112 524 169 538 265 c 1
 697 259 l 1
 668 86 560 -16 375 -16 c 0
EndSplineSet
Substitution2: "'ss08' Style Set 8 in Latin lookup 41 subtable" Cdotaccent.ss08
Substitution2: "'aalt' Access All Alternates in Latin lookup 0 subtable" Cdotaccent.ss08
EndChar

StartChar: D
Encoding: 68 68 20
Width: 720
GlyphClass: 2
Flags: MW
HStem: 0 128<226 319 319 325> 582 128<226 319 226 226>
VStem: 74 152<128 128 128 582> 521 157<278 432>
AnchorPoint: "Anchor-3" 325 710 basechar 0
AnchorPoint: "Anchor-1" 210 355 basechar 0
AnchorPoint: "Anchor-0" 326 0 basechar 0
LayerCount: 2
Fore
SplineSet
74 0 m 1
 74 710 l 1
 319 710 l 2
 549 710 678 582 678 354 c 0
 678 127 551 0 325 0 c 2
 74 0 l 1
226 128 m 1
 319 128 l 2
 456 128 521 201 521 355 c 0
 521 509 456 582 319 582 c 2
 226 582 l 1
 226 128 l 1
EndSplineSet
EndChar

StartChar: Dcaron
Encoding: 270 270 21
Width: 720
GlyphClass: 2
Flags: MW
HStem: 0 128<226 319 319 325> 582 128<226 319 226 226> 765 153<253 262 389 398 253 253>
VStem: 74 152<128 128 128 582> 521 157<278 432>
AnchorPoint: "Anchor-3" 325 710 basechar 0
AnchorPoint: "Anchor-1" 210 355 basechar 0
AnchorPoint: "Anchor-0" 326 0 basechar 0
LayerCount: 2
Fore
SplineSet
157 918 m 1
 262 918 l 1
 325 829 l 1
 389 918 l 1
 494 918 l 1
 398 765 l 1
 253 765 l 1
 157 918 l 1
74 0 m 1
 74 710 l 1
 319 710 l 2
 549 710 678 582 678 354 c 0
 678 127 551 0 325 0 c 2
 74 0 l 1
226 128 m 1
 319 128 l 2
 456 128 521 201 521 355 c 0
 521 509 456 582 319 582 c 2
 226 582 l 1
 226 128 l 1
EndSplineSet
EndChar

StartChar: Dcroat
Encoding: 272 272 22
Width: 720
GlyphClass: 2
Flags: MW
HStem: 0 128<226 319 319 325> 297 116<9 74 9 74 226 411> 582 128<226 319 226 226>
VStem: 74 152<128 128 128 297 413 582> 521 157<278 432>
AnchorPoint: "Anchor-3" 325 710 basechar 0
AnchorPoint: "Anchor-1" 210 355 basechar 0
AnchorPoint: "Anchor-0" 326 0 basechar 0
LayerCount: 2
Fore
SplineSet
74 0 m 1
 74 297 l 1
 9 297 l 1
 9 413 l 1
 74 413 l 1
 74 710 l 1
 319 710 l 2
 549 710 678 582 678 354 c 0
 678 127 551 0 325 0 c 2
 74 0 l 1
226 128 m 1
 319 128 l 2
 456 128 521 201 521 355 c 0
 521 509 456 582 319 582 c 2
 226 582 l 1
 226 413 l 1
 411 413 l 1
 411 297 l 1
 226 297 l 1
 226 128 l 1
EndSplineSet
EndChar

StartChar: Eth
Encoding: 208 208 23
Width: 720
GlyphClass: 2
Flags: MW
HStem: 0 128<226 319 319 325> 297 116<9 74 9 74 226 411> 582 128<226 319 226 226>
VStem: 74 152<128 128 128 297 413 582> 521 157<278 432>
AnchorPoint: "Anchor-3" 325 710 basechar 0
AnchorPoint: "Anchor-1" 210 355 basechar 0
AnchorPoint: "Anchor-0" 326 0 basechar 0
LayerCount: 2
Fore
SplineSet
74 0 m 1
 74 297 l 1
 9 297 l 1
 9 413 l 1
 74 413 l 1
 74 710 l 1
 319 710 l 2
 549 710 678 582 678 354 c 0
 678 127 551 0 325 0 c 2
 74 0 l 1
226 128 m 1
 319 128 l 2
 456 128 521 201 521 355 c 0
 521 509 456 582 319 582 c 2
 226 582 l 1
 226 413 l 1
 411 413 l 1
 411 297 l 1
 226 297 l 1
 226 128 l 1
EndSplineSet
EndChar

StartChar: E
Encoding: 69 69 24
Width: 622
GlyphClass: 2
Flags: MW
HStem: 0 128<226 576 226 576> 293 126<226 556 226 556> 582 128<226 568 226 226>
VStem: 74 152<128 293 419 582>
AnchorPoint: "Anchor-3" 322 710 basechar 0
AnchorPoint: "Anchor-2" 576 0 basechar 0
AnchorPoint: "Anchor-0" 323 0 basechar 0
LayerCount: 2
Fore
SplineSet
74 0 m 1
 74 710 l 1
 568 710 l 1
 568 582 l 1
 226 582 l 1
 226 419 l 1
 556 419 l 1
 556 293 l 1
 226 293 l 1
 226 128 l 1
 576 128 l 1
 576 0 l 1
 74 0 l 1
EndSplineSet
EndChar

StartChar: Eacute
Encoding: 201 201 25
Width: 622
GlyphClass: 2
Flags: MW
HStem: 0 128<226 576 226 576> 293 126<226 556 226 556> 582 128<226 568 226 226> 765 148<254 458 312 368>
VStem: 74 152<128 293 419 582>
AnchorPoint: "Anchor-3" 322 710 basechar 0
AnchorPoint: "Anchor-2" 576 0 basechar 0
AnchorPoint: "Anchor-0" 323 0 basechar 0
LayerCount: 2
Fore
SplineSet
254 765 m 1
 312 913 l 1
 458 913 l 1
 368 765 l 1
 254 765 l 1
74 0 m 1
 74 710 l 1
 568 710 l 1
 568 582 l 1
 226 582 l 1
 226 419 l 1
 556 419 l 1
 556 293 l 1
 226 293 l 1
 226 128 l 1
 576 128 l 1
 576 0 l 1
 74 0 l 1
EndSplineSet
EndChar

StartChar: Ecaron
Encoding: 282 282 26
Width: 622
GlyphClass: 2
Flags: MW
HStem: 0 128<226 576 226 576> 293 126<226 556 226 556> 582 128<226 568 226 226> 765 153<250 258 385 394 250 250>
VStem: 74 152<128 293 419 582>
AnchorPoint: "Anchor-3" 322 710 basechar 0
AnchorPoint: "Anchor-2" 576 0 basechar 0
AnchorPoint: "Anchor-0" 323 0 basechar 0
LayerCount: 2
Fore
SplineSet
154 918 m 1
 258 918 l 1
 322 829 l 1
 385 918 l 1
 490 918 l 1
 394 765 l 1
 250 765 l 1
 154 918 l 1
74 0 m 1
 74 710 l 1
 568 710 l 1
 568 582 l 1
 226 582 l 1
 226 419 l 1
 556 419 l 1
 556 293 l 1
 226 293 l 1
 226 128 l 1
 576 128 l 1
 576 0 l 1
 74 0 l 1
EndSplineSet
EndChar

StartChar: Ecircumflex
Encoding: 202 202 27
Width: 622
GlyphClass: 2
Flags: MW
HStem: 0 128<226 576 226 576> 293 126<226 556 226 556> 582 128<226 568 226 226> 765 153<154 394 250 258 385 385 385 394 250 490>
VStem: 74 152<128 293 419 582>
AnchorPoint: "Anchor-3" 322 710 basechar 0
AnchorPoint: "Anchor-2" 576 0 basechar 0
AnchorPoint: "Anchor-0" 323 0 basechar 0
LayerCount: 2
Fore
SplineSet
154 765 m 1
 250 918 l 1
 394 918 l 1
 490 765 l 1
 385 765 l 1
 322 854 l 1
 258 765 l 1
 154 765 l 1
74 0 m 1
 74 710 l 1
 568 710 l 1
 568 582 l 1
 226 582 l 1
 226 419 l 1
 556 419 l 1
 556 293 l 1
 226 293 l 1
 226 128 l 1
 576 128 l 1
 576 0 l 1
 74 0 l 1
EndSplineSet
EndChar

StartChar: Edieresis
Encoding: 203 203 28
Width: 622
GlyphClass: 2
Flags: MW
HStem: 0 128<226 576 226 576> 293 126<226 556 226 556> 582 128<226 568 226 226> 773 121<143 286 143 286 358 501 143 358>
VStem: 74 152<128 293 419 582> 143 143<773 894 773 894> 358 143<773 894 773 894>
AnchorPoint: "Anchor-3" 322 710 basechar 0
AnchorPoint: "Anchor-2" 576 0 basechar 0
AnchorPoint: "Anchor-0" 323 0 basechar 0
LayerCount: 2
Fore
SplineSet
143 773 m 1xf6
 143 894 l 1
 286 894 l 1
 286 773 l 1
 143 773 l 1xf6
358 773 m 1
 358 894 l 1
 501 894 l 1
 501 773 l 1
 358 773 l 1
74 0 m 1xfa
 74 710 l 1
 568 710 l 1
 568 582 l 1
 226 582 l 1
 226 419 l 1
 556 419 l 1
 556 293 l 1
 226 293 l 1
 226 128 l 1
 576 128 l 1
 576 0 l 1
 74 0 l 1xfa
EndSplineSet
Substitution2: "'ss08' Style Set 8 in Latin lookup 41 subtable" Edieresis.ss08
Substitution2: "'aalt' Access All Alternates in Latin lookup 0 subtable" Edieresis.ss08
EndChar

StartChar: Edotaccent
Encoding: 278 278 29
Width: 622
GlyphClass: 2
Flags: MW
HStem: 0 128<226 576 226 576> 293 126<226 556 226 556> 582 128<226 568 226 226> 776 120<244 399 244 399>
VStem: 74 152<128 293 419 582> 244 155<776 896 776 896>
AnchorPoint: "Anchor-3" 322 710 basechar 0
AnchorPoint: "Anchor-2" 576 0 basechar 0
AnchorPoint: "Anchor-0" 323 0 basechar 0
LayerCount: 2
Fore
SplineSet
244 776 m 1
 244 896 l 1
 399 896 l 1
 399 776 l 1
 244 776 l 1
74 0 m 1xf8
 74 710 l 1
 568 710 l 1
 568 582 l 1
 226 582 l 1
 226 419 l 1
 556 419 l 1
 556 293 l 1
 226 293 l 1
 226 128 l 1
 576 128 l 1
 576 0 l 1
 74 0 l 1xf8
EndSplineSet
Substitution2: "'ss08' Style Set 8 in Latin lookup 41 subtable" Edotaccent.ss08
Substitution2: "'aalt' Access All Alternates in Latin lookup 0 subtable" Edotaccent.ss08
EndChar

StartChar: Egrave
Encoding: 200 200 30
Width: 622
GlyphClass: 2
Flags: MW
HStem: 0 128<226 576 226 576> 293 126<226 556 226 556> 582 128<226 568 226 226> 772 147<274 274 274 330 184 388>
VStem: 74 152<128 293 419 582>
AnchorPoint: "Anchor-3" 322 710 basechar 0
AnchorPoint: "Anchor-2" 576 0 basechar 0
AnchorPoint: "Anchor-0" 323 0 basechar 0
LayerCount: 2
Fore
SplineSet
274 772 m 1
 184 919 l 1
 330 919 l 1
 388 772 l 1
 274 772 l 1
74 0 m 1
 74 710 l 1
 568 710 l 1
 568 582 l 1
 226 582 l 1
 226 419 l 1
 556 419 l 1
 556 293 l 1
 226 293 l 1
 226 128 l 1
 576 128 l 1
 576 0 l 1
 74 0 l 1
EndSplineSet
EndChar

StartChar: Emacron
Encoding: 274 274 31
Width: 622
GlyphClass: 2
Flags: MW
HStem: 0 128<226 576 226 576> 293 126<226 556 226 556> 582 128<226 568 226 226> 781 110<172 471 172 471>
VStem: 74 152<128 293 419 582> 172 299<781 891 781 891>
AnchorPoint: "Anchor-3" 322 710 basechar 0
AnchorPoint: "Anchor-2" 576 0 basechar 0
AnchorPoint: "Anchor-0" 323 0 basechar 0
LayerCount: 2
Fore
SplineSet
172 781 m 1xf4
 172 891 l 1
 471 891 l 1
 471 781 l 1
 172 781 l 1xf4
74 0 m 1xf8
 74 710 l 1
 568 710 l 1
 568 582 l 1
 226 582 l 1
 226 419 l 1
 556 419 l 1
 556 293 l 1
 226 293 l 1
 226 128 l 1
 576 128 l 1
 576 0 l 1
 74 0 l 1xf8
EndSplineSet
EndChar

StartChar: Eogonek
Encoding: 280 280 32
Width: 622
GlyphClass: 2
Flags: MW
HStem: -217 89<470.5 548.5> 0 128<226 458 226 576> 293 126<226 556 226 556> 582 128<226 568 226 226>
VStem: 74 152<128 293 419 582> 393 121<-159.5 -94.5> 393 183<-159.5 128>
AnchorPoint: "Anchor-3" 322 710 basechar 0
AnchorPoint: "Anchor-2" 576 0 basechar 0
AnchorPoint: "Anchor-0" 323 0 basechar 0
LayerCount: 2
Fore
SplineSet
74 0 m 1xfc
 74 710 l 1
 568 710 l 1
 568 582 l 1
 226 582 l 1
 226 419 l 1
 556 419 l 1
 556 293 l 1
 226 293 l 1
 226 128 l 1
 576 128 l 1
 576 0 l 1x7a
 546 -40 l 2
 526 -66 514 -86 514 -103 c 0
 514 -119 526 -128 540 -128 c 0
 557 -128 575 -122 585 -115 c 1
 613 -191 l 1
 595 -206 549 -217 506 -217 c 0
 435 -217 393 -187 393 -132 c 0
 393 -91 418 -52 443 -20 c 2
 458 0 l 1
 74 0 l 1xfc
EndSplineSet
EndChar

StartChar: uni1EBC
Encoding: 7868 7868 33
Width: 622
GlyphClass: 2
Flags: MW
HStem: 0 128<226 576 226 576> 293 126<226 556 226 556> 582 128<226 568 226 226> 769 142<150 277 150 277> 774 89<374.5 391 374.5 414> 774 144<362.5 493> 822 89<253.5 270>
VStem: 74 152<128 293 419 582> 150 75<769 769> 418 75<918 918>
AnchorPoint: "Anchor-3" 322 710 basechar 0
AnchorPoint: "Anchor-2" 576 0 basechar 0
AnchorPoint: "Anchor-0" 323 0 basechar 0
LayerCount: 2
Fore
SplineSet
378 774 m 0xe540
 347 774 327 782 302 804 c 0
 287 816 277 822 263 822 c 0xe280
 244 822 228 810 225 769 c 1
 150 769 l 1
 151 856 192 911 261 911 c 0xf080
 293 911 316 902 342 881 c 0
 358 869 368 863 381 863 c 0xe940
 401 863 415 875 418 918 c 1
 493 918 l 1
 491 830 450 774 378 774 c 0xe540
74 0 m 1xe1
 74 710 l 1
 568 710 l 1
 568 582 l 1
 226 582 l 1
 226 419 l 1
 556 419 l 1
 556 293 l 1
 226 293 l 1
 226 128 l 1
 576 128 l 1
 576 0 l 1
 74 0 l 1xe1
EndSplineSet
EndChar

StartChar: uni018F
Encoding: 399 399 34
Width: 757
GlyphClass: 1
Flags: MW
HStem: -16 128<328.5 423.5 328.5 466> 285 119<205 556 205 205> 598 128<339.5 421>
VStem: 42 673<348 404 404 404>
LayerCount: 2
Fore
SplineSet
715 355 m 0
 715 111 560 -16 372 -16 c 0
 197 -16 42 107 42 348 c 2
 42 404 l 1
 557 404 l 1
 543 528 471 598 371 598 c 0
 308 598 251 561 222 492 c 1
 62 501 l 1
 106 639 218 726 372 726 c 0
 573 726 715 592 715 355 c 0
374 112 m 0
 473 112 540 171 556 285 c 1
 205 285 l 1
 223 165 283 112 374 112 c 0
EndSplineSet
EndChar

StartChar: F
Encoding: 70 70 35
Width: 604
GlyphClass: 1
Flags: MW
HStem: 0 21G<74 74 74 226> 284 126<226 546 226 546> 582 128<226 564 226 226>
VStem: 74 152<0 284 410 582>
LayerCount: 2
Fore
SplineSet
74 0 m 1
 74 710 l 1
 564 710 l 1
 564 582 l 1
 226 582 l 1
 226 410 l 1
 546 410 l 1
 546 284 l 1
 226 284 l 1
 226 0 l 1
 74 0 l 1
EndSplineSet
EndChar

StartChar: G
Encoding: 71 71 36
Width: 738
GlyphClass: 2
Flags: MW
HStem: -16 128<319 420> 0 21G<597 691 597 597> 258 111<380 542 380 691> 598 128<319 426.5>
VStem: 42 157<283 423.5 283 461> 594.5 96.5
AnchorPoint: "Anchor-3" 380 710 basechar 0
AnchorPoint: "Anchor-0" 383 0 basechar 0
LayerCount: 2
Fore
SplineSet
370 -16 m 0xbc
 165 -16 42 135 42 354 c 0
 42 568 167 726 379 726 c 0
 563 726 658 628 689 477 c 1
 532 470 l 1
 517 549 473 598 380 598 c 0
 258 598 199 493 199 354 c 0
 199 212 255 112 383 112 c 0xbc
 477 112 535 173 542 258 c 1
 380 258 l 1
 380 369 l 1
 691 369 l 1
 691 0 l 1
 597 0 l 1x7c
 592 101 l 1
 555 30 470 -16 370 -16 c 0xbc
EndSplineSet
Substitution2: "'ss06' Style Set 6 in Latin lookup 39 subtable" G.ss06
Substitution2: "'aalt' Access All Alternates in Latin lookup 0 subtable" G.ss06
EndChar

StartChar: Gbreve
Encoding: 286 286 37
Width: 738
GlyphClass: 2
Flags: MW
HStem: -16 128<319 420> 0 21G<597 691 597 597> 258 111<380 542 380 691> 598 128<319 426.5> 766 82<360 400 360 426.5> 766 147<223 426.5>
VStem: 42 157<283 423.5 283 461> 594.5 96.5
AnchorPoint: "Anchor-3" 380 710 basechar 0
AnchorPoint: "Anchor-0" 383 0 basechar 0
LayerCount: 2
Fore
SplineSet
380 766 m 0xb7
 287 766 227 819 223 913 c 1xb7
 310 913 l 1
 315 867 340 848 380 848 c 0xbb
 420 848 445 867 450 913 c 1
 537 913 l 1
 533 819 473 766 380 766 c 0xb7
370 -16 m 0
 165 -16 42 135 42 354 c 0
 42 568 167 726 379 726 c 0
 563 726 658 628 689 477 c 1
 532 470 l 1
 517 549 473 598 380 598 c 0
 258 598 199 493 199 354 c 0
 199 212 255 112 383 112 c 0xbb
 477 112 535 173 542 258 c 1
 380 258 l 1
 380 369 l 1
 691 369 l 1
 691 0 l 1
 597 0 l 1x7b
 592 101 l 1
 555 30 470 -16 370 -16 c 0
EndSplineSet
Substitution2: "'ss06' Style Set 6 in Latin lookup 39 subtable" Gbreve.ss06
Substitution2: "'aalt' Access All Alternates in Latin lookup 0 subtable" Gbreve.ss06
EndChar

StartChar: Gcaron
Encoding: 486 486 38
Width: 738
GlyphClass: 2
Flags: MW
HStem: -16 128<319 420> 0 21G<597 691 597 597> 258 111<380 542 380 691> 598 128<319 426.5> 765 153<308 317 444 452 308 308>
VStem: 42 157<283 423.5 283 461> 594.5 96.5
AnchorPoint: "Anchor-3" 380 710 basechar 0
AnchorPoint: "Anchor-0" 383 0 basechar 0
LayerCount: 2
Fore
SplineSet
212 918 m 1xbe
 317 918 l 1
 380 829 l 1
 444 918 l 1
 548 918 l 1
 452 765 l 1
 308 765 l 1
 212 918 l 1xbe
370 -16 m 0
 165 -16 42 135 42 354 c 0
 42 568 167 726 379 726 c 0
 563 726 658 628 689 477 c 1
 532 470 l 1
 517 549 473 598 380 598 c 0
 258 598 199 493 199 354 c 0
 199 212 255 112 383 112 c 0xbe
 477 112 535 173 542 258 c 1
 380 258 l 1
 380 369 l 1
 691 369 l 1
 691 0 l 1
 597 0 l 1x7e
 592 101 l 1
 555 30 470 -16 370 -16 c 0
EndSplineSet
EndChar

StartChar: Gcircumflex
Encoding: 284 284 39
Width: 738
GlyphClass: 2
Flags: MW
HStem: -16 128<319 420> 0 21G<597 691 597 597> 258 111<380 542 380 691> 598 128<319 426.5> 765 153<212 452 308 317 444 444 444 452 308 548>
VStem: 42 157<283 423.5 283 461> 594.5 96.5
AnchorPoint: "Anchor-3" 380 710 basechar 0
AnchorPoint: "Anchor-0" 383 0 basechar 0
LayerCount: 2
Fore
SplineSet
212 765 m 1xbe
 308 918 l 1
 452 918 l 1
 548 765 l 1
 444 765 l 1
 380 854 l 1
 317 765 l 1
 212 765 l 1xbe
370 -16 m 0
 165 -16 42 135 42 354 c 0
 42 568 167 726 379 726 c 0
 563 726 658 628 689 477 c 1
 532 470 l 1
 517 549 473 598 380 598 c 0
 258 598 199 493 199 354 c 0
 199 212 255 112 383 112 c 0xbe
 477 112 535 173 542 258 c 1
 380 258 l 1
 380 369 l 1
 691 369 l 1
 691 0 l 1
 597 0 l 1x7e
 592 101 l 1
 555 30 470 -16 370 -16 c 0
EndSplineSet
Substitution2: "'ss06' Style Set 6 in Latin lookup 39 subtable" Gcircumflex.ss06
Substitution2: "'aalt' Access All Alternates in Latin lookup 0 subtable" Gcircumflex.ss06
EndChar

StartChar: uni0122
Encoding: 290 290 40
Width: 738
GlyphClass: 2
Flags: MW
HStem: -165 116<318 353 318 448> -16 128<319 420> 0 21G<597 691 597 597> 258 111<380 542 380 691> 598 128<319 426.5>
VStem: 42 157<283 423.5 283 461> 318 130<-154 -49 -154 -49 -154 -49> 594.5 96.5
AnchorPoint: "Anchor-3" 380 710 basechar 0
AnchorPoint: "Anchor-0" 383 -253 basechar 0
LayerCount: 2
Fore
SplineSet
370 -16 m 0xdf
 165 -16 42 135 42 354 c 0
 42 568 167 726 379 726 c 0
 563 726 658 628 689 477 c 1
 532 470 l 1
 517 549 473 598 380 598 c 0
 258 598 199 493 199 354 c 0
 199 212 255 112 383 112 c 0xdf
 477 112 535 173 542 258 c 1
 380 258 l 1
 380 369 l 1
 691 369 l 1
 691 0 l 1
 597 0 l 1xbf
 592 101 l 1
 555 30 470 -16 370 -16 c 0xdf
301 -253 m 1
 353 -165 l 1
 318 -165 l 1
 318 -49 l 1
 448 -49 l 1
 448 -154 l 1
 389 -253 l 1
 301 -253 l 1
EndSplineSet
Substitution2: "'ss06' Style Set 6 in Latin lookup 39 subtable" uni0122.ss06
Substitution2: "'aalt' Access All Alternates in Latin lookup 0 subtable" uni0122.ss06
EndChar

StartChar: Gdotaccent
Encoding: 288 288 41
Width: 738
GlyphClass: 2
Flags: MW
HStem: -16 128<319 420> 0 21G<597 691 597 597> 258 111<380 542 380 691> 598 128<319 426.5> 776 120<303 458 303 458>
VStem: 42 157<283 423.5 283 461> 303 155<776 896 776 896> 594.5 96.5
AnchorPoint: "Anchor-3" 380 710 basechar 0
AnchorPoint: "Anchor-0" 383 0 basechar 0
LayerCount: 2
Fore
SplineSet
303 776 m 1xbf
 303 896 l 1
 458 896 l 1
 458 776 l 1
 303 776 l 1xbf
370 -16 m 0
 165 -16 42 135 42 354 c 0
 42 568 167 726 379 726 c 0
 563 726 658 628 689 477 c 1
 532 470 l 1
 517 549 473 598 380 598 c 0
 258 598 199 493 199 354 c 0
 199 212 255 112 383 112 c 0xbf
 477 112 535 173 542 258 c 1
 380 258 l 1
 380 369 l 1
 691 369 l 1
 691 0 l 1
 597 0 l 1x7f
 592 101 l 1
 555 30 470 -16 370 -16 c 0
EndSplineSet
Substitution2: "'ss08' Style Set 8 in Latin lookup 41 subtable" Gdotaccent.ss08
Substitution2: "'ss06' Style Set 6 in Latin lookup 39 subtable" Gdotaccent.ss06
AlternateSubs2: "'aalt' Access All Alternates in Latin lookup 1 subtable" Gdotaccent.ss06 Gdotaccent.ss08
EndChar

StartChar: uni1E20
Encoding: 7712 7712 42
Width: 738
GlyphClass: 2
Flags: MW
HStem: -16 128<319 420> 0 21G<597 691 597 597> 258 111<380 542 380 691> 598 128<319 426.5> 781 110<231 530 231 530>
VStem: 42 157<283 423.5 283 461> 231 299<781 891 781 891> 594.5 96.5
AnchorPoint: "Anchor-3" 380 710 basechar 0
AnchorPoint: "Anchor-0" 383 0 basechar 0
LayerCount: 2
Fore
SplineSet
231 781 m 1xbf
 231 891 l 1
 530 891 l 1
 530 781 l 1
 231 781 l 1xbf
370 -16 m 0
 165 -16 42 135 42 354 c 0
 42 568 167 726 379 726 c 0
 563 726 658 628 689 477 c 1
 532 470 l 1
 517 549 473 598 380 598 c 0
 258 598 199 493 199 354 c 0
 199 212 255 112 383 112 c 0xbd
 477 112 535 173 542 258 c 1
 380 258 l 1
 380 369 l 1
 691 369 l 1
 691 0 l 1
 597 0 l 1x7d
 592 101 l 1
 555 30 470 -16 370 -16 c 0
EndSplineSet
Substitution2: "'ss06' Style Set 6 in Latin lookup 39 subtable" uni1E20.ss06
Substitution2: "'aalt' Access All Alternates in Latin lookup 0 subtable" uni1E20.ss06
EndChar

StartChar: uni01E4
Encoding: 484 484 43
Width: 779
GlyphClass: 2
Flags: MW
HStem: -16 128<317.5 408.5 317.5 450.5> 169 72<380 511 380 538 685 742> 285 84<380 542 380 691> 598 128<318.5 429>
VStem: 42 157<283 423.5 283 459.5> 542 149<277 327>
AnchorPoint: "Anchor-3" 384 710 basechar 0
AnchorPoint: "Anchor-0" 384 0 basechar 0
LayerCount: 2
Fore
SplineSet
381 -16 m 0
 156 -16 42 143 42 354 c 0
 42 565 165 726 385 726 c 0
 557 726 661 631 689 477 c 1
 532 470 l 1
 518 548 476 598 382 598 c 0
 255 598 199 493 199 354 c 0
 199 212 257 112 378 112 c 0
 439 112 484 131 511 169 c 1
 380 169 l 1
 380 241 l 1
 538 241 l 1
 540 255 542 269 542 285 c 1
 380 285 l 1
 380 369 l 1
 691 369 l 1
 691 327 l 2
 691 296 689 268 685 241 c 1
 742 241 l 1
 742 169 l 1
 667 169 l 1
 622 46 520 -16 381 -16 c 0
EndSplineSet
EndChar

StartChar: H
Encoding: 72 72 44
Width: 721
GlyphClass: 2
Flags: MW
HStem: 0 21G<74 74 74 226 495 495 495 647> 293 128<226 495 226 495> 690 20G<74 226 226 226 495 647 647 647>
VStem: 74 152<0 293 421 710> 495 152<0 293 293 293 421 710 0 710>
AnchorPoint: "Anchor-3" 361 710 basechar 0
AnchorPoint: "Anchor-1" 361 575 basechar 0
AnchorPoint: "Anchor-0" 361 0 basechar 0
LayerCount: 2
Fore
SplineSet
74 0 m 1
 74 710 l 1
 226 710 l 1
 226 421 l 1
 495 421 l 1
 495 710 l 1
 647 710 l 1
 647 0 l 1
 495 0 l 1
 495 293 l 1
 226 293 l 1
 226 0 l 1
 74 0 l 1
EndSplineSet
EndChar

StartChar: Hbar
Encoding: 294 294 45
Width: 721
GlyphClass: 2
Flags: MW
HStem: 0 21G<74 74 74 226 495 495 495 647> 293 128<226 495 226 495> 520 111<3 74 3 74 226 495 647 719> 520 190<3 226 3 226 74 226 74 495>
VStem: 74 152<0 293 421 520 631 710> 495 152<0 293 293 293 421 520 0 520 631 710>
AnchorPoint: "Anchor-3" 361 710 basechar 0
AnchorPoint: "Anchor-1" 361 575 basechar 0
AnchorPoint: "Anchor-0" 361 0 basechar 0
LayerCount: 2
Fore
SplineSet
74 0 m 1xdc
 74 520 l 1
 3 520 l 1xdc
 3 631 l 1
 74 631 l 1xec
 74 710 l 1
 226 710 l 1xdc
 226 631 l 1
 495 631 l 1xec
 495 710 l 1
 647 710 l 1xdc
 647 631 l 1
 719 631 l 1xec
 719 520 l 1
 647 520 l 1
 647 0 l 1
 495 0 l 1
 495 293 l 1
 226 293 l 1
 226 0 l 1
 74 0 l 1xdc
226 421 m 1
 495 421 l 1
 495 520 l 1
 226 520 l 1
 226 421 l 1
EndSplineSet
EndChar

StartChar: Hcircumflex
Encoding: 292 292 46
Width: 721
GlyphClass: 2
Flags: MW
HStem: 0 21G<74 74 74 226 495 495 495 647> 293 128<226 495 226 495> 690 20G<74 226 226 226 495 647 647 647> 765 153<192 433 288 297 424 424 424 433 288 529>
VStem: 74 152<0 293 421 710> 495 152<0 293 293 293 421 710 0 710>
AnchorPoint: "Anchor-3" 361 710 basechar 0
AnchorPoint: "Anchor-1" 361 575 basechar 0
AnchorPoint: "Anchor-0" 361 0 basechar 0
LayerCount: 2
Fore
SplineSet
192 765 m 1
 288 918 l 1
 433 918 l 1
 529 765 l 1
 424 765 l 1
 361 854 l 1
 297 765 l 1
 192 765 l 1
74 0 m 1
 74 710 l 1
 226 710 l 1
 226 421 l 1
 495 421 l 1
 495 710 l 1
 647 710 l 1
 647 0 l 1
 495 0 l 1
 495 293 l 1
 226 293 l 1
 226 0 l 1
 74 0 l 1
EndSplineSet
EndChar

StartChar: I
Encoding: 73 73 47
Width: 300
GlyphClass: 2
Flags: MW
HStem: 0 21G<74 74 74 226> 690 20G<74 226 226 226>
VStem: 74 152<0 710 0 710>
AnchorPoint: "Anchor-3" 150 710 basechar 0
AnchorPoint: "Anchor-2" 226 0 basechar 0
AnchorPoint: "Anchor-0" 150 0 basechar 0
LayerCount: 2
Fore
SplineSet
74 0 m 1
 74 710 l 1
 226 710 l 1
 226 0 l 1
 74 0 l 1
EndSplineSet
Substitution2: "'ss05' Style Set 5 in Latin lookup 38 subtable" I.ss05
Substitution2: "'aalt' Access All Alternates in Latin lookup 0 subtable" I.ss05
EndChar

StartChar: IJ
Encoding: 306 306 48
Width: 913
GlyphClass: 2
Flags: MW
HStem: -16 128<562 628.5 562 672.5> 0 21G<74 74 74 226> 690 20G<74 226 226 226 702 854 854 854>
VStem: 74 152<0 710 0 710> 335 153<253 260> 702 152<255 710>
AnchorPoint: "Anchor-3" 778 710 basechar 0
AnchorPoint: "Anchor-2" 226 0 basechar 0
AnchorPoint: "Anchor-0" 150 0 basechar 0
LayerCount: 2
Fore
SplineSet
74 0 m 1x74
 74 710 l 1
 226 710 l 1
 226 0 l 1
 74 0 l 1x74
595 -16 m 0
 430 -16 337 97 335 253 c 1
 488 260 l 1
 489 159 529 112 595 112 c 0
 662 112 702 158 702 255 c 2
 702 710 l 1
 854 710 l 1
 854 255 l 2xbc
 854 90 750 -16 595 -16 c 0
EndSplineSet
EndChar

StartChar: Iacute
Encoding: 205 205 49
Width: 300
GlyphClass: 2
Flags: MW
HStem: 0 21G<74 74 74 226> 690 20G<74 226 226 226> 765 148<82 286 141 196>
VStem: 74 152<0 710 0 710>
AnchorPoint: "Anchor-3" 150 710 basechar 0
AnchorPoint: "Anchor-2" 226 0 basechar 0
AnchorPoint: "Anchor-0" 150 0 basechar 0
LayerCount: 2
Fore
SplineSet
82 765 m 1
 141 913 l 1
 286 913 l 1
 196 765 l 1
 82 765 l 1
74 0 m 1
 74 710 l 1
 226 710 l 1
 226 0 l 1
 74 0 l 1
EndSplineSet
Substitution2: "'ss05' Style Set 5 in Latin lookup 38 subtable" Iacute.ss05
Substitution2: "'aalt' Access All Alternates in Latin lookup 0 subtable" Iacute.ss05
EndChar

StartChar: Icircumflex
Encoding: 206 206 50
Width: 300
GlyphClass: 2
Flags: MW
HStem: 0 21G<74 74 74 226> 690 20G<74 226 226 226> 765 153<-18 222 78 87 213 213 213 222 78 318>
VStem: 74 152<0 710 0 710>
AnchorPoint: "Anchor-3" 150 710 basechar 0
AnchorPoint: "Anchor-2" 226 0 basechar 0
AnchorPoint: "Anchor-0" 150 0 basechar 0
LayerCount: 2
Fore
SplineSet
-18 765 m 1
 78 918 l 1
 222 918 l 1
 318 765 l 1
 213 765 l 1
 150 854 l 1
 87 765 l 1
 -18 765 l 1
74 0 m 1
 74 710 l 1
 226 710 l 1
 226 0 l 1
 74 0 l 1
EndSplineSet
Substitution2: "'ss05' Style Set 5 in Latin lookup 38 subtable" Icircumflex.ss05
Substitution2: "'aalt' Access All Alternates in Latin lookup 0 subtable" Icircumflex.ss05
EndChar

StartChar: Idieresis
Encoding: 207 207 51
Width: 300
GlyphClass: 2
Flags: MW
HStem: 0 21G<74 74 74 226> 690 20G<74 226 226 226> 773 121<-29 114 -29 114 186 329 -29 186>
VStem: -29 143<773 894 773 894> 74 40 74 152<0 710 0 710> 186 40 186 143<773 894 773 894>
AnchorPoint: "Anchor-3" 150 710 basechar 0
AnchorPoint: "Anchor-2" 226 0 basechar 0
AnchorPoint: "Anchor-0" 150 0 basechar 0
LayerCount: 2
Fore
SplineSet
-29 773 m 1xf0
 -29 894 l 1xf2
 114 894 l 1
 114 773 l 1xe8
 -29 773 l 1xf0
186 773 m 1
 186 894 l 1xe2
 329 894 l 1
 329 773 l 1xe1
 186 773 l 1
74 0 m 1xe4
 74 710 l 1
 226 710 l 1
 226 0 l 1
 74 0 l 1xe4
EndSplineSet
Substitution2: "'ss08' Style Set 8 in Latin lookup 41 subtable" Idieresis.ss08
Substitution2: "'ss05' Style Set 5 in Latin lookup 38 subtable" Idieresis.ss05
AlternateSubs2: "'aalt' Access All Alternates in Latin lookup 1 subtable" Idieresis.ss05 Idieresis.ss08
EndChar

StartChar: Idotaccent
Encoding: 304 304 52
Width: 300
GlyphClass: 2
Flags: MW
HStem: 0 21G<74 74 74 226> 690 20G<74 226 226 226> 776 120<72 228 72 228>
VStem: 72 154<0 896> 74 152<0 710 0 710> 74 154<0 896 710 896>
AnchorPoint: "Anchor-3" 150 710 basechar 0
AnchorPoint: "Anchor-2" 226 0 basechar 0
AnchorPoint: "Anchor-0" 150 0 basechar 0
LayerCount: 2
Fore
SplineSet
72 776 m 1xf0
 72 896 l 1xf0
 228 896 l 1
 228 776 l 1xe4
 72 776 l 1xf0
74 0 m 1xe8
 74 710 l 1
 226 710 l 1
 226 0 l 1
 74 0 l 1xe8
EndSplineSet
Substitution2: "'ss08' Style Set 8 in Latin lookup 41 subtable" Idotaccent.ss08
Substitution2: "'ss05' Style Set 5 in Latin lookup 38 subtable" Idotaccent.ss05
AlternateSubs2: "'aalt' Access All Alternates in Latin lookup 1 subtable" Idotaccent.ss05 Idotaccent.ss08
EndChar

StartChar: Igrave
Encoding: 204 204 53
Width: 300
GlyphClass: 2
Flags: MW
HStem: 0 21G<74 74 74 226> 690 20G<74 226 226 226> 772 147<102 102 102 158 12 217>
VStem: 74 152<0 710 0 710>
AnchorPoint: "Anchor-3" 150 710 basechar 0
AnchorPoint: "Anchor-2" 226 0 basechar 0
AnchorPoint: "Anchor-0" 150 0 basechar 0
LayerCount: 2
Fore
SplineSet
102 772 m 1
 12 919 l 1
 158 919 l 1
 217 772 l 1
 102 772 l 1
74 0 m 1
 74 710 l 1
 226 710 l 1
 226 0 l 1
 74 0 l 1
EndSplineSet
Substitution2: "'ss05' Style Set 5 in Latin lookup 38 subtable" Igrave.ss05
Substitution2: "'aalt' Access All Alternates in Latin lookup 0 subtable" Igrave.ss05
EndChar

StartChar: Imacron
Encoding: 298 298 54
Width: 300
GlyphClass: 2
Flags: MW
HStem: 0 21G<74 74 74 226> 690 20G<74 226 226 226> 781 110<0 300 0 300>
VStem: 74 152<0 710 0 710>
AnchorPoint: "Anchor-3" 150 710 basechar 0
AnchorPoint: "Anchor-2" 226 0 basechar 0
AnchorPoint: "Anchor-0" 150 0 basechar 0
LayerCount: 2
Fore
SplineSet
0 781 m 1
 0 891 l 1
 300 891 l 1
 300 781 l 1
 0 781 l 1
74 0 m 1
 74 710 l 1
 226 710 l 1
 226 0 l 1
 74 0 l 1
EndSplineSet
Substitution2: "'ss05' Style Set 5 in Latin lookup 38 subtable" Imacron.ss05
Substitution2: "'aalt' Access All Alternates in Latin lookup 0 subtable" Imacron.ss05
EndChar

StartChar: Iogonek
Encoding: 302 302 55
Width: 300
GlyphClass: 2
Flags: MW
HStem: -217 89<120.5 198.5> 0 21G<74 74 74 108 226 226> 690 20G<74 226 226 226>
VStem: 43 121<-159.5 -94.5> 74 90 74 152<0 710 0 710>
AnchorPoint: "Anchor-3" 150 710 basechar 0
AnchorPoint: "Anchor-2" 226 0 basechar 0
AnchorPoint: "Anchor-0" 150 0 basechar 0
LayerCount: 2
Fore
SplineSet
74 0 m 1xe4
 74 710 l 1
 226 710 l 1
 226 0 l 1xe4
 196 -40 l 2
 176 -66 164 -86 164 -103 c 0xe8
 164 -119 176 -128 190 -128 c 0
 207 -128 225 -122 235 -115 c 1
 263 -191 l 1
 245 -206 199 -217 156 -217 c 0
 85 -217 43 -187 43 -132 c 0xf0
 43 -91 68 -52 93 -20 c 2
 108 0 l 1
 74 0 l 1xe4
EndSplineSet
Substitution2: "'ss05' Style Set 5 in Latin lookup 38 subtable" Iogonek.ss05
Substitution2: "'aalt' Access All Alternates in Latin lookup 0 subtable" Iogonek.ss05
EndChar

StartChar: Itilde
Encoding: 296 296 56
Width: 300
GlyphClass: 2
Flags: MW
HStem: 0 21G<74 74 74 226> 690 20G<74 226 226 226> 769 142<-22 105 -22 105> 774 89<202.5 219 202.5 242.5> 774 144<190.5 321> 822 89<81.5 98>
VStem: -22 75<769 769> 74 152<0 710 0 710> 246 75<918 918>
AnchorPoint: "Anchor-3" 150 710 basechar 0
AnchorPoint: "Anchor-2" 226 0 basechar 0
AnchorPoint: "Anchor-0" 150 0 basechar 0
LayerCount: 2
Fore
SplineSet
206 774 m 0xc880
 175 774 156 782 130 804 c 0
 115 816 105 822 91 822 c 0xc6
 72 822 56 810 53 769 c 1
 -22 769 l 1
 -21 856 20 911 89 911 c 0xe2
 121 911 144 902 170 881 c 0
 186 869 196 863 209 863 c 0xd080
 229 863 243 875 246 918 c 1
 321 918 l 1
 319 830 279 774 206 774 c 0xc880
74 0 m 1xe1
 74 710 l 1
 226 710 l 1
 226 0 l 1
 74 0 l 1xe1
EndSplineSet
Substitution2: "'ss05' Style Set 5 in Latin lookup 38 subtable" Itilde.ss05
Substitution2: "'aalt' Access All Alternates in Latin lookup 0 subtable" Itilde.ss05
EndChar

StartChar: J
Encoding: 74 74 57
Width: 627
GlyphClass: 2
Flags: MW
HStem: -16 128<276 342.5 276 386.5> 690 20G<416 568 568 568>
VStem: 49 153<253 260> 416 152<255 710>
AnchorPoint: "Anchor-3" 492 710 basechar 0
LayerCount: 2
Fore
SplineSet
309 -16 m 0
 144 -16 51 97 49 253 c 1
 202 260 l 1
 203 159 243 112 309 112 c 0
 376 112 416 158 416 255 c 2
 416 710 l 1
 568 710 l 1
 568 255 l 2
 568 90 464 -16 309 -16 c 0
EndSplineSet
Substitution2: "Single Substitution lookup 16 subtable" uni004A0301
Substitution2: "'aalt' Access All Alternates in Latin lookup 0 subtable" uni004A0301
EndChar

StartChar: uni004A0301
Encoding: 65537 -1 58
Width: 627
GlyphClass: 2
Flags: MW
HStem: -16 128<276 342.5 276 386.5> 690 20G<416 568 568 568> 765 148<424 629 483 539>
VStem: 49 153<253 260> 416 152<255 710>
AnchorPoint: "Anchor-3" 492 710 basechar 0
LayerCount: 2
Fore
SplineSet
424 765 m 1
 483 913 l 1
 629 913 l 1
 539 765 l 1
 424 765 l 1
309 -16 m 0
 144 -16 51 97 49 253 c 1
 202 260 l 1
 203 159 243 112 309 112 c 0
 376 112 416 158 416 255 c 2
 416 710 l 1
 568 710 l 1
 568 255 l 2
 568 90 464 -16 309 -16 c 0
EndSplineSet
EndChar

StartChar: Jcircumflex
Encoding: 308 308 59
Width: 627
GlyphClass: 2
Flags: MW
HStem: -16 128<276 342.5 276 386.5> 690 20G<416 568 568 568> 765 153<324 565 420 429 556 556 556 565 420 661>
VStem: 49 153<253 260> 416 152<255 710>
AnchorPoint: "Anchor-3" 492 710 basechar 0
LayerCount: 2
Fore
SplineSet
324 765 m 1
 420 918 l 1
 565 918 l 1
 661 765 l 1
 556 765 l 1
 492 854 l 1
 429 765 l 1
 324 765 l 1
309 -16 m 0
 144 -16 51 97 49 253 c 1
 202 260 l 1
 203 159 243 112 309 112 c 0
 376 112 416 158 416 255 c 2
 416 710 l 1
 568 710 l 1
 568 255 l 2
 568 90 464 -16 309 -16 c 0
EndSplineSet
EndChar

StartChar: K
Encoding: 75 75 60
Width: 689
GlyphClass: 2
Flags: MW
HStem: 0 21G<74 74 74 226 504 504 504 677> 690 20G<74 226 226 226 484 661 661 661>
VStem: 74 152<0 209 400 710>
AnchorPoint: "Anchor-3" 346 710 basechar 0
AnchorPoint: "Anchor-0" 357 0 basechar 0
LayerCount: 2
Fore
SplineSet
74 0 m 1
 74 710 l 1
 226 710 l 1
 226 400 l 1
 484 710 l 1
 661 710 l 1
 400 397 l 1
 677 0 l 1
 504 0 l 1
 300 295 l 1
 226 209 l 1
 226 0 l 1
 74 0 l 1
EndSplineSet
EndChar

StartChar: uni01E8
Encoding: 488 488 61
Width: 689
GlyphClass: 2
Flags: MW
HStem: 0 21G<74 74 74 226 504 504 504 677> 690 20G<74 226 226 226 484 661 661 661> 765 153<274 283 409 418 274 274>
VStem: 74 152<0 209 400 710>
AnchorPoint: "Anchor-3" 346 710 basechar 0
AnchorPoint: "Anchor-0" 357 0 basechar 0
LayerCount: 2
Fore
SplineSet
178 918 m 1
 283 918 l 1
 346 829 l 1
 409 918 l 1
 514 918 l 1
 418 765 l 1
 274 765 l 1
 178 918 l 1
74 0 m 1
 74 710 l 1
 226 710 l 1
 226 400 l 1
 484 710 l 1
 661 710 l 1
 400 397 l 1
 677 0 l 1
 504 0 l 1
 300 295 l 1
 226 209 l 1
 226 0 l 1
 74 0 l 1
EndSplineSet
EndChar

StartChar: uni0136
Encoding: 310 310 62
Width: 689
GlyphClass: 2
Flags: MW
HStem: -165 116<292 327 292 422> 0 21G<74 74 74 226 504 504 504 677> 690 20G<74 226 226 226 484 661 661 661>
VStem: 74 152<0 209 400 710> 292 130<-154 -49 -154 -49 -154 -49>
AnchorPoint: "Anchor-3" 346 710 basechar 0
AnchorPoint: "Anchor-0" 357 -253 basechar 0
LayerCount: 2
Fore
SplineSet
74 0 m 1
 74 710 l 1
 226 710 l 1
 226 400 l 1
 484 710 l 1
 661 710 l 1
 400 397 l 1
 677 0 l 1
 504 0 l 1
 300 295 l 1
 226 209 l 1
 226 0 l 1
 74 0 l 1
275 -253 m 1
 327 -165 l 1
 292 -165 l 1
 292 -49 l 1
 422 -49 l 1
 422 -154 l 1
 363 -253 l 1
 275 -253 l 1
EndSplineSet
EndChar

StartChar: L
Encoding: 76 76 63
Width: 589
GlyphClass: 2
Flags: MW
HStem: 0 128<226 553 226 553> 690 20G<74 226 226 226>
VStem: 74 152<128 710 128 710 128 710>
AnchorPoint: "Anchor-4" 362 536 basechar 0
AnchorPoint: "Anchor-3" 150 710 basechar 0
AnchorPoint: "Anchor-1" 184 380 basechar 0
AnchorPoint: "Anchor-0" 314 0 basechar 0
LayerCount: 2
Fore
SplineSet
74 0 m 1
 74 710 l 1
 226 710 l 1
 226 128 l 1
 553 128 l 1
 553 0 l 1
 74 0 l 1
EndSplineSet
EndChar

StartChar: Lacute
Encoding: 313 313 64
Width: 589
GlyphClass: 2
Flags: MW
HStem: 0 128<226 553 226 553> 690 20G<74 226 226 226> 765 148<82 286 141 196>
VStem: 74 152<128 710 128 710 128 710>
AnchorPoint: "Anchor-4" 362 536 basechar 0
AnchorPoint: "Anchor-3" 150 710 basechar 0
AnchorPoint: "Anchor-1" 184 380 basechar 0
AnchorPoint: "Anchor-0" 314 0 basechar 0
LayerCount: 2
Fore
SplineSet
82 765 m 1
 141 913 l 1
 286 913 l 1
 196 765 l 1
 82 765 l 1
74 0 m 1
 74 710 l 1
 226 710 l 1
 226 128 l 1
 553 128 l 1
 553 0 l 1
 74 0 l 1
EndSplineSet
EndChar

StartChar: Lcaron
Encoding: 317 317 65
Width: 589
GlyphClass: 2
Flags: MW
HStem: 0 128<226 553 226 553> 424 286<74 382 411 486> 690 20G<74 226 226 226 411 540 540 540>
VStem: 74 152<128 710 128 710 128 710>
AnchorPoint: "Anchor-4" 362 536 basechar 0
AnchorPoint: "Anchor-3" 150 710 basechar 0
AnchorPoint: "Anchor-1" 184 380 basechar 0
AnchorPoint: "Anchor-0" 314 0 basechar 0
LayerCount: 2
Fore
SplineSet
74 0 m 1xb0
 74 710 l 1
 226 710 l 1
 226 128 l 1
 553 128 l 1
 553 0 l 1
 74 0 l 1xb0
382 424 m 1xd0
 411 710 l 1
 540 710 l 1
 486 424 l 1
 382 424 l 1xd0
EndSplineSet
EndChar

StartChar: uni013B
Encoding: 315 315 66
Width: 589
GlyphClass: 2
Flags: MW
HStem: -165 116<249 283 249 379> 0 128<226 553 226 553> 690 20G<74 226 226 226>
VStem: 74 152<128 710 128 710 128 710> 249 130<-154 -49 -154 -49 -154 -49>
AnchorPoint: "Anchor-4" 362 536 basechar 0
AnchorPoint: "Anchor-3" 150 710 basechar 0
AnchorPoint: "Anchor-1" 184 380 basechar 0
AnchorPoint: "Anchor-0" 314 -253 basechar 0
LayerCount: 2
Fore
SplineSet
74 0 m 1
 74 710 l 1
 226 710 l 1
 226 128 l 1
 553 128 l 1
 553 0 l 1
 74 0 l 1
231 -253 m 1
 283 -165 l 1
 249 -165 l 1
 249 -49 l 1
 379 -49 l 1
 379 -154 l 1xe8
 319 -253 l 1
 231 -253 l 1
EndSplineSet
Substitution2: "'locl' Localized Forms in Latin lookup 11 subtable" uni013B.loclMAH
Substitution2: "'aalt' Access All Alternates in Latin lookup 0 subtable" uni013B.loclMAH
EndChar

StartChar: Lslash
Encoding: 321 321 67
Width: 589
GlyphClass: 2
Flags: MW
HStem: 0 128<226 553 226 553> 690 20G<74 226 226 226>
VStem: 74 152<128 276 276 276 451 710>
AnchorPoint: "Anchor-4" 362 536 basechar 0
AnchorPoint: "Anchor-3" 150 710 basechar 0
AnchorPoint: "Anchor-1" 184 380 basechar 0
AnchorPoint: "Anchor-0" 314 0 basechar 0
LayerCount: 2
Fore
SplineSet
74 0 m 1
 74 276 l 1
 5 242 l 1
 5 345 l 1
 74 378 l 1
 74 710 l 1
 226 710 l 1
 226 451 l 1
 362 517 l 1
 362 415 l 1
 226 349 l 1
 226 128 l 1
 553 128 l 1
 553 0 l 1
 74 0 l 1
EndSplineSet
EndChar

StartChar: M
Encoding: 77 77 68
Width: 915
GlyphClass: 2
Flags: MW
HStem: 0 21G<74 74 74 226 689 689 689 841> 690 20G<74 277 277 277 638 841 841 841>
VStem: 74 152<0 460 0 710> 689 152<0 460 460 460>
AnchorPoint: "Anchor-3" 458 710 basechar 0
AnchorPoint: "Anchor-0" 458 0 basechar 0
LayerCount: 2
Fore
SplineSet
74 0 m 1
 74 710 l 1
 277 710 l 1
 458 193 l 1
 638 710 l 1
 841 710 l 1
 841 0 l 1
 689 0 l 1
 689 460 l 1
 522 2 l 1
 392 2 l 1
 226 460 l 1
 226 0 l 1
 74 0 l 1
EndSplineSet
EndChar

StartChar: N
Encoding: 78 78 69
Width: 750
GlyphClass: 2
Flags: MW
HStem: 0 21G<74 74 74 226 506 506 506 676> 690 20G<74 242 242 242 524 676 676 676>
VStem: 74 152<0 473 0 710> 524 152<220 710 0 710>
AnchorPoint: "Anchor-3" 381 710 basechar 0
AnchorPoint: "Anchor-0" 373 0 basechar 0
LayerCount: 2
Fore
SplineSet
74 0 m 1
 74 710 l 1
 242 710 l 1
 524 220 l 1
 524 710 l 1
 676 710 l 1
 676 0 l 1
 506 0 l 1
 226 473 l 1
 226 0 l 1
 74 0 l 1
EndSplineSet
EndChar

StartChar: Nacute
Encoding: 323 323 70
Width: 750
GlyphClass: 2
Flags: MW
HStem: 0 21G<74 74 74 226 506 506 506 676> 690 20G<74 242 242 242 524 676 676 676> 765 148<313 517 372 427>
VStem: 74 152<0 473 0 710> 524 152<220 710 0 710>
AnchorPoint: "Anchor-3" 381 710 basechar 0
AnchorPoint: "Anchor-0" 373 0 basechar 0
LayerCount: 2
Fore
SplineSet
313 765 m 1
 372 913 l 1
 517 913 l 1
 427 765 l 1
 313 765 l 1
74 0 m 1
 74 710 l 1
 242 710 l 1
 524 220 l 1
 524 710 l 1
 676 710 l 1
 676 0 l 1
 506 0 l 1
 226 473 l 1
 226 0 l 1
 74 0 l 1
EndSplineSet
EndChar

StartChar: Ncaron
Encoding: 327 327 71
Width: 750
GlyphClass: 2
Flags: MW
HStem: 0 21G<74 74 74 226 506 506 506 676> 690 20G<74 242 242 242 524 676 676 676> 765 153<309 318 445 453 309 309>
VStem: 74 152<0 473 0 710> 524 152<220 710 0 710>
AnchorPoint: "Anchor-3" 381 710 basechar 0
AnchorPoint: "Anchor-0" 373 0 basechar 0
LayerCount: 2
Fore
SplineSet
213 918 m 1
 318 918 l 1
 381 829 l 1
 445 918 l 1
 549 918 l 1
 453 765 l 1
 309 765 l 1
 213 918 l 1
74 0 m 1
 74 710 l 1
 242 710 l 1
 524 220 l 1
 524 710 l 1
 676 710 l 1
 676 0 l 1
 506 0 l 1
 226 473 l 1
 226 0 l 1
 74 0 l 1
EndSplineSet
EndChar

StartChar: uni0145
Encoding: 325 325 72
Width: 750
GlyphClass: 2
Flags: MW
HStem: -165 116<308 343 308 438> 0 21G<74 74 74 226 506 506 506 676> 690 20G<74 242 242 242 524 676 676 676>
VStem: 74 152<0 473 0 710> 308 130<-154 -49 -154 -49 -154 -49> 524 152<220 710 0 710>
AnchorPoint: "Anchor-3" 381 710 basechar 0
AnchorPoint: "Anchor-0" 373 -253 basechar 0
LayerCount: 2
Fore
SplineSet
74 0 m 1
 74 710 l 1
 242 710 l 1
 524 220 l 1
 524 710 l 1
 676 710 l 1
 676 0 l 1
 506 0 l 1
 226 473 l 1
 226 0 l 1
 74 0 l 1
291 -253 m 1
 343 -165 l 1
 308 -165 l 1
 308 -49 l 1
 438 -49 l 1
 438 -154 l 1
 379 -253 l 1
 291 -253 l 1
EndSplineSet
Substitution2: "'locl' Localized Forms in Latin lookup 11 subtable" uni0145.loclMAH
Substitution2: "'aalt' Access All Alternates in Latin lookup 0 subtable" uni0145.loclMAH
EndChar

StartChar: Ntilde
Encoding: 209 209 73
Width: 750
GlyphClass: 2
Flags: MW
HStem: 0 21G<74 74 74 226 506 506 506 676> 690 20G<74 242 242 242 524 676 676 676> 769 142<209 336 209 336> 774 89<434 450 434 473.5> 774 144<421.5 552> 822 89<312.5 329>
VStem: 74 152<0 473 0 710> 209 75<769 769> 477 75<918 918> 524 152<220 710 0 710>
AnchorPoint: "Anchor-3" 381 710 basechar 0
AnchorPoint: "Anchor-0" 373 0 basechar 0
LayerCount: 2
Fore
SplineSet
437 774 m 0xca80
 406 774 387 782 361 804 c 0
 346 816 336 822 322 822 c 0xc540
 303 822 287 810 284 769 c 1
 209 769 l 1
 210 856 251 911 320 911 c 0xe140
 352 911 375 902 401 881 c 0
 418 869 428 863 440 863 c 0xd280
 460 863 474 875 477 918 c 1
 552 918 l 1
 550 830 510 774 437 774 c 0xca80
74 0 m 1xe240
 74 710 l 1
 242 710 l 1
 524 220 l 1
 524 710 l 1
 676 710 l 1
 676 0 l 1
 506 0 l 1
 226 473 l 1
 226 0 l 1
 74 0 l 1xe240
EndSplineSet
EndChar

StartChar: Eng
Encoding: 330 330 74
Width: 750
GlyphClass: 2
Flags: MW
HStem: -162 104<385 479 479 497 385 515 385 479> 0 21G<74 74 74 226 506 506 506 532> 690 20G<74 242 242 242 524 676 676 676>
VStem: 74 152<0 473 0 710> 524 152<221 710> 532 144<-8 -6 -6 0 0 0>
AnchorPoint: "Anchor-3" 376 710 basechar 0
AnchorPoint: "Anchor-0" 376 -150 basechar 0
LayerCount: 2
Fore
SplineSet
74 0 m 1xf4
 74 710 l 1
 242 710 l 1
 524 221 l 1
 524 710 l 1
 676 710 l 1
 676 -6 l 2xf8
 676 -103 621 -162 515 -162 c 2
 385 -162 l 1
 385 -58 l 1
 479 -58 l 2
 515 -58 532 -44 532 -8 c 2
 532 0 l 1
 506 0 l 1
 226 473 l 1
 226 0 l 1
 74 0 l 1xf4
EndSplineSet
EndChar

StartChar: O
Encoding: 79 79 75
Width: 776
GlyphClass: 2
Flags: MW
HStem: -16 128<328.5 447 328.5 496> 598 128<328.5 447>
VStem: 42 157<277 431 277 468.5> 577 157<277 431>
AnchorPoint: "Anchor-3" 388 710 basechar 0
AnchorPoint: "Anchor-1" 388 355 basechar 0
AnchorPoint: "Anchor-0" 388 0 basechar 0
LayerCount: 2
Fore
SplineSet
388 -16 m 0
 172 -16 42 125 42 354 c 0
 42 583 172 726 388 726 c 0
 604 726 734 583 734 354 c 0
 734 125 604 -16 388 -16 c 0
388 112 m 0
 506 112 577 200 577 354 c 0
 577 508 506 598 388 598 c 0
 269 598 199 508 199 354 c 0
 199 200 269 112 388 112 c 0
EndSplineSet
Substitution2: "Single Substitution lookup 27 subtable" ordmasculine
Substitution2: "'aalt' Access All Alternates in Latin lookup 0 subtable" ordmasculine
EndChar

StartChar: Oacute
Encoding: 211 211 76
Width: 776
GlyphClass: 2
Flags: MW
HStem: -16 128<328.5 447 328.5 496> 598 128<328.5 447> 765 148<319 524 378 434>
VStem: 42 157<277 431 277 468.5> 577 157<277 431>
AnchorPoint: "Anchor-3" 388 710 basechar 0
AnchorPoint: "Anchor-1" 388 355 basechar 0
AnchorPoint: "Anchor-0" 388 0 basechar 0
LayerCount: 2
Fore
SplineSet
319 765 m 1
 378 913 l 1
 524 913 l 1
 434 765 l 1
 319 765 l 1
388 -16 m 0
 172 -16 42 125 42 354 c 0
 42 583 172 726 388 726 c 0
 604 726 734 583 734 354 c 0
 734 125 604 -16 388 -16 c 0
388 112 m 0
 506 112 577 200 577 354 c 0
 577 508 506 598 388 598 c 0
 269 598 199 508 199 354 c 0
 199 200 269 112 388 112 c 0
EndSplineSet
EndChar

StartChar: Ocircumflex
Encoding: 212 212 77
Width: 776
GlyphClass: 2
Flags: MW
HStem: -16 128<328.5 447 328.5 496> 598 128<328.5 447> 765 153<219 460 315 324 451 451 451 460 315 556>
VStem: 42 157<277 431 277 468.5> 577 157<277 431>
AnchorPoint: "Anchor-3" 388 710 basechar 0
AnchorPoint: "Anchor-1" 388 355 basechar 0
AnchorPoint: "Anchor-0" 388 0 basechar 0
LayerCount: 2
Fore
SplineSet
219 765 m 1
 315 918 l 1
 460 918 l 1
 556 765 l 1
 451 765 l 1
 388 854 l 1
 324 765 l 1
 219 765 l 1
388 -16 m 0
 172 -16 42 125 42 354 c 0
 42 583 172 726 388 726 c 0
 604 726 734 583 734 354 c 0
 734 125 604 -16 388 -16 c 0
388 112 m 0
 506 112 577 200 577 354 c 0
 577 508 506 598 388 598 c 0
 269 598 199 508 199 354 c 0
 199 200 269 112 388 112 c 0
EndSplineSet
EndChar

StartChar: Odieresis
Encoding: 214 214 78
Width: 776
GlyphClass: 2
Flags: MW
HStem: -16 128<328.5 447 328.5 496> 598 128<328.5 447> 773 121<209 352 209 352 423 567 209 423>
VStem: 42 157<277 431 277 468.5> 209 143<773 894 773 894> 423 144<773 894 773 894> 577 157<277 431>
AnchorPoint: "Anchor-3" 388 710 basechar 0
AnchorPoint: "Anchor-1" 388 355 basechar 0
AnchorPoint: "Anchor-0" 388 0 basechar 0
LayerCount: 2
Fore
SplineSet
209 773 m 1
 209 894 l 1
 352 894 l 1
 352 773 l 1
 209 773 l 1
423 773 m 1
 423 894 l 1
 567 894 l 1
 567 773 l 1
 423 773 l 1
388 -16 m 0
 172 -16 42 125 42 354 c 0
 42 583 172 726 388 726 c 0
 604 726 734 583 734 354 c 0xf2
 734 125 604 -16 388 -16 c 0
388 112 m 0
 506 112 577 200 577 354 c 0
 577 508 506 598 388 598 c 0
 269 598 199 508 199 354 c 0
 199 200 269 112 388 112 c 0
EndSplineSet
Substitution2: "'ss08' Style Set 8 in Latin lookup 41 subtable" Odieresis.ss08
Substitution2: "'aalt' Access All Alternates in Latin lookup 0 subtable" Odieresis.ss08
EndChar

StartChar: Ograve
Encoding: 210 210 79
Width: 776
GlyphClass: 2
Flags: MW
HStem: -16 128<328.5 447 328.5 496> 598 128<328.5 447> 772 147<340 340 340 395 250 454>
VStem: 42 157<277 431 277 468.5> 577 157<277 431>
AnchorPoint: "Anchor-3" 388 710 basechar 0
AnchorPoint: "Anchor-1" 388 355 basechar 0
AnchorPoint: "Anchor-0" 388 0 basechar 0
LayerCount: 2
Fore
SplineSet
340 772 m 1
 250 919 l 1
 395 919 l 1
 454 772 l 1
 340 772 l 1
388 -16 m 0
 172 -16 42 125 42 354 c 0
 42 583 172 726 388 726 c 0
 604 726 734 583 734 354 c 0
 734 125 604 -16 388 -16 c 0
388 112 m 0
 506 112 577 200 577 354 c 0
 577 508 506 598 388 598 c 0
 269 598 199 508 199 354 c 0
 199 200 269 112 388 112 c 0
EndSplineSet
EndChar

StartChar: Ohungarumlaut
Encoding: 336 336 80
Width: 776
GlyphClass: 2
Flags: MW
HStem: -16 128<328.5 447 328.5 496> 598 128<328.5 447> 765 148<242 446 300 356 419 446 478 533 419 419>
VStem: 42 157<277 431 277 468.5> 577 157<277 431>
AnchorPoint: "Anchor-3" 388 710 basechar 0
AnchorPoint: "Anchor-1" 388 355 basechar 0
AnchorPoint: "Anchor-0" 388 0 basechar 0
LayerCount: 2
Fore
SplineSet
242 765 m 1
 300 913 l 1
 446 913 l 1
 356 765 l 1
 242 765 l 1
419 765 m 1
 478 913 l 1
 623 913 l 1
 533 765 l 1
 419 765 l 1
388 -16 m 0
 172 -16 42 125 42 354 c 0
 42 583 172 726 388 726 c 0
 604 726 734 583 734 354 c 0
 734 125 604 -16 388 -16 c 0
388 112 m 0
 506 112 577 200 577 354 c 0
 577 508 506 598 388 598 c 0
 269 598 199 508 199 354 c 0
 199 200 269 112 388 112 c 0
EndSplineSet
EndChar

StartChar: Omacron
Encoding: 332 332 81
Width: 776
GlyphClass: 2
Flags: MW
HStem: -16 128<328.5 447 328.5 496> 598 128<328.5 447> 781 110<238 537 238 537>
VStem: 42 157<277 431 277 468.5> 238 299<781 891 781 891> 577 157<277 431>
AnchorPoint: "Anchor-3" 388 710 basechar 0
AnchorPoint: "Anchor-1" 388 355 basechar 0
AnchorPoint: "Anchor-0" 388 0 basechar 0
LayerCount: 2
Fore
SplineSet
238 781 m 1
 238 891 l 1
 537 891 l 1
 537 781 l 1
 238 781 l 1
388 -16 m 0
 172 -16 42 125 42 354 c 0
 42 583 172 726 388 726 c 0
 604 726 734 583 734 354 c 0
 734 125 604 -16 388 -16 c 0
388 112 m 0
 506 112 577 200 577 354 c 0
 577 508 506 598 388 598 c 0
 269 598 199 508 199 354 c 0
 199 200 269 112 388 112 c 0
EndSplineSet
EndChar

StartChar: Oslash
Encoding: 216 216 82
Width: 776
GlyphClass: 2
Flags: MW
HStem: -16 128<369 447 369 496> 598 128<328.5 406.5>
VStem: 42 157<324.5 431 324.5 468.5> 577 157<277 383.5>
AnchorPoint: "Anchor-3" 388 710 basechar 0
AnchorPoint: "Anchor-1" 388 355 basechar 0
AnchorPoint: "Anchor-0" 388 0 basechar 0
LayerCount: 2
Fore
SplineSet
72 -16 m 1
 138 79 l 1
 76 143 42 237 42 354 c 0
 42 583 172 726 388 726 c 0
 455 726 514 712 564 686 c 1
 592 726 l 1
 704 726 l 1
 637 631 l 1
 699 566 734 471 734 354 c 0
 734 125 604 -16 388 -16 c 0
 320 -16 261 -2 212 24 c 1
 184 -16 l 1
 72 -16 l 1
199 354 m 0
 199 295 209 246 228 207 c 1
 484 572 l 1
 457 589 425 598 388 598 c 0
 269 598 199 508 199 354 c 0
388 112 m 0
 506 112 577 200 577 354 c 0
 577 413 566 463 547 502 c 1
 291 137 l 1
 318 121 350 112 388 112 c 0
EndSplineSet
EndChar

StartChar: Otilde
Encoding: 213 213 83
Width: 776
GlyphClass: 2
Flags: MW
HStem: -16 128<328.5 447 328.5 496> 598 128<328.5 447> 769 142<216 342 216 342> 774 89<440 456.5 440 480> 774 144<428.5 558> 822 89<319.5 336>
VStem: 42 157<277 431 277 468.5> 216 75<769 769> 484 74<918 918> 577 157<277 431>
AnchorPoint: "Anchor-3" 388 710 basechar 0
AnchorPoint: "Anchor-1" 388 355 basechar 0
AnchorPoint: "Anchor-0" 388 0 basechar 0
LayerCount: 2
Fore
SplineSet
444 774 m 0xca80
 413 774 393 782 368 804 c 0
 352 816 343 822 329 822 c 0xc540
 310 822 294 810 291 769 c 1
 216 769 l 1
 217 856 257 911 326 911 c 0xe140
 358 911 382 902 408 881 c 0
 424 869 434 863 446 863 c 0xd280
 467 863 481 875 484 918 c 1
 558 918 l 1
 557 830 516 774 444 774 c 0xca80
388 -16 m 0
 172 -16 42 125 42 354 c 0xc240
 42 583 172 726 388 726 c 0
 604 726 734 583 734 354 c 0
 734 125 604 -16 388 -16 c 0
388 112 m 0
 506 112 577 200 577 354 c 0
 577 508 506 598 388 598 c 0
 269 598 199 508 199 354 c 0
 199 200 269 112 388 112 c 0
EndSplineSet
EndChar

StartChar: OE
Encoding: 338 338 84
Width: 1120
GlyphClass: 2
Flags: MW
HStem: -16 128<322.5 431> 0 128<752 1074 752 1074> 293 126<752 1054 752 1054> 582 128<752 1066 752 752> 598 128<322 431 281.5 452>
VStem: 42 157<285 423.5 285 470> 576 176<285 293 419 423.5> 600 152<0 293 69 293>
AnchorPoint: "Anchor-3" 561 710 basechar 0
AnchorPoint: "Anchor-0" 561 0 basechar 0
LayerCount: 2
Fore
SplineSet
386 -16 m 0xb5
 178 -16 42 125 42 354 c 0
 42 586 177 726 386 726 c 0xae
 476 726 548 696 600 641 c 1
 600 710 l 1x75
 1066 710 l 1
 1066 582 l 1
 752 582 l 1
 752 419 l 1
 1054 419 l 1
 1054 293 l 1
 752 293 l 1
 752 128 l 1x76
 1074 128 l 1
 1074 0 l 1
 600 0 l 1x75
 600 69 l 1
 548 14 476 -16 386 -16 c 0xb5
386 112 m 0
 518 112 576 216 576 354 c 0
 576 493 518 598 386 598 c 0
 258 598 199 493 199 354 c 0
 199 216 259 112 386 112 c 0
EndSplineSet
EndChar

StartChar: P
Encoding: 80 80 85
Width: 672
GlyphClass: 2
Flags: MW
HStem: 0 21G<74 74 74 226> 245 128<226 349 349 358 226 349> 582 128<226 349 226 226>
VStem: 74 152<0 245 373 582> 475 156<443.5 512.5>
AnchorPoint: "Anchor-3" 336 710 basechar 0
AnchorPoint: "Anchor-0" 336 0 basechar 0
LayerCount: 2
Fore
SplineSet
74 0 m 1
 74 710 l 1
 358 710 l 2
 528 710 631 622 631 478 c 0
 631 334 528 245 358 245 c 2
 226 245 l 1
 226 0 l 1
 74 0 l 1
226 373 m 1
 349 373 l 2
 429 373 475 409 475 478 c 0
 475 547 429 582 349 582 c 2
 226 582 l 1
 226 373 l 1
EndSplineSet
EndChar

StartChar: Thorn
Encoding: 222 222 86
Width: 642
GlyphClass: 2
Flags: MW
HStem: 0 21G<74 74 74 226> 149 128<226 333 333 336 226 333> 454 129<226 333 226 336> 690 20G<74 226 226 226>
VStem: 74 152<0 149 0 277 277 454 583 710> 445 156<336.5 395.5>
AnchorPoint: "Anchor-3" 321 710 basechar 0
AnchorPoint: "Anchor-0" 321 0 basechar 0
LayerCount: 2
Fore
SplineSet
74 0 m 1
 74 710 l 1
 226 710 l 1
 226 583 l 1
 336 583 l 2
 504 583 601 503 601 367 c 0
 601 228 504 149 336 149 c 2
 226 149 l 1
 226 0 l 1
 74 0 l 1
333 454 m 2
 226 454 l 1
 226 277 l 1
 333 277 l 2
 408 277 445 307 445 366 c 0
 445 425 408 454 333 454 c 2
EndSplineSet
EndChar

StartChar: Q
Encoding: 81 81 87
Width: 769
GlyphClass: 2
Flags: MW
HStem: -16 128<320.5 393.5 320.5 411> 598 128<320 449.5>
VStem: 42 157<289.5 419 289.5 459.5> 570 157<310 419>
AnchorPoint: "Anchor-3" 385 710 basechar 0
AnchorPoint: "Anchor-0" 385 0 basechar 0
LayerCount: 2
Fore
SplineSet
567 -62 m 1
 512 7 l 1
 481 -8 437 -16 385 -16 c 0
 175 -16 42 138 42 354 c 0
 42 565 163 726 385 726 c 0
 607 726 727 565 727 354 c 0
 727 222 680 121 598 55 c 1
 692 -62 l 1
 567 -62 l 1
385 112 m 0
 402 112 417 114 430 119 c 1
 331 240 l 1
 457 240 l 1
 509 171 l 1
 548 209 570 266 570 354 c 0
 570 484 514 598 385 598 c 0
 255 598 199 484 199 354 c 0
 199 225 256 112 385 112 c 0
EndSplineSet
EndChar

StartChar: R
Encoding: 82 82 88
Width: 697
GlyphClass: 2
Flags: MW
HStem: 0 21G<74 74 74 226 492 492 492 647> 260 127<226 368 368 377 226 368> 582 128<226 363 226 226>
VStem: 74 152<0 260 387 582> 484 156<455 516.5>
AnchorPoint: "Anchor-3" 345 710 basechar 0
AnchorPoint: "Anchor-0" 360 0 basechar 0
LayerCount: 2
Fore
SplineSet
74 0 m 1
 74 710 l 1
 385 710 l 2
 541 710 640 627 640 498 c 0
 640 412 589 349 515 326 c 1
 586 316 623 276 629 204 c 2
 647 0 l 1
 492 0 l 1
 479 180 l 2
 475 234 449 260 377 260 c 2
 226 260 l 1
 226 0 l 1
 74 0 l 1
226 387 m 1
 368 387 l 2
 441 387 484 423 484 485 c 0
 484 548 442 582 363 582 c 2
 226 582 l 1
 226 387 l 1
EndSplineSet
Substitution2: "'ss04' Style Set 4 in Latin lookup 37 subtable" R.ss04
Substitution2: "'aalt' Access All Alternates in Latin lookup 0 subtable" R.ss04
EndChar

StartChar: Racute
Encoding: 340 340 89
Width: 697
GlyphClass: 2
Flags: MW
HStem: 0 21G<74 74 74 226 492 492 492 647> 260 127<226 368 368 377 226 368> 582 128<226 363 226 226> 765 148<277 481 335 391>
VStem: 74 152<0 260 387 582> 484 156<455 516.5>
AnchorPoint: "Anchor-3" 345 710 basechar 0
AnchorPoint: "Anchor-0" 360 0 basechar 0
LayerCount: 2
Fore
SplineSet
277 765 m 1
 335 913 l 1
 481 913 l 1
 391 765 l 1
 277 765 l 1
74 0 m 1
 74 710 l 1
 385 710 l 2
 541 710 640 627 640 498 c 0
 640 412 589 349 515 326 c 1
 586 316 623 276 629 204 c 2
 647 0 l 1
 492 0 l 1
 479 180 l 2
 475 234 449 260 377 260 c 2
 226 260 l 1
 226 0 l 1
 74 0 l 1
226 387 m 1
 368 387 l 2
 441 387 484 423 484 485 c 0
 484 548 442 582 363 582 c 2
 226 582 l 1
 226 387 l 1
EndSplineSet
Substitution2: "'ss04' Style Set 4 in Latin lookup 37 subtable" Racute.ss04
Substitution2: "'aalt' Access All Alternates in Latin lookup 0 subtable" Racute.ss04
EndChar

StartChar: Rcaron
Encoding: 344 344 90
Width: 697
GlyphClass: 2
Flags: MW
HStem: 0 21G<74 74 74 226 492 492 492 647> 260 127<226 368 368 377 226 368> 582 128<226 363 226 226> 765 153<273 281 408 417 273 273>
VStem: 74 152<0 260 387 582> 484 156<455 516.5>
AnchorPoint: "Anchor-3" 345 710 basechar 0
AnchorPoint: "Anchor-0" 360 0 basechar 0
LayerCount: 2
Fore
SplineSet
177 918 m 1
 281 918 l 1
 345 829 l 1
 408 918 l 1
 513 918 l 1
 417 765 l 1
 273 765 l 1
 177 918 l 1
74 0 m 1
 74 710 l 1
 385 710 l 2
 541 710 640 627 640 498 c 0
 640 412 589 349 515 326 c 1
 586 316 623 276 629 204 c 2
 647 0 l 1
 492 0 l 1
 479 180 l 2
 475 234 449 260 377 260 c 2
 226 260 l 1
 226 0 l 1
 74 0 l 1
226 387 m 1
 368 387 l 2
 441 387 484 423 484 485 c 0
 484 548 442 582 363 582 c 2
 226 582 l 1
 226 387 l 1
EndSplineSet
Substitution2: "'ss04' Style Set 4 in Latin lookup 37 subtable" Rcaron.ss04
Substitution2: "'aalt' Access All Alternates in Latin lookup 0 subtable" Rcaron.ss04
EndChar

StartChar: uni0156
Encoding: 342 342 91
Width: 697
GlyphClass: 2
Flags: MW
HStem: -165 116<295 330 295 425> 0 21G<74 74 74 226 492 492 492 647> 260 127<226 368 368 377 226 368> 582 128<226 363 226 226>
VStem: 74 152<0 260 387 582> 295 130<-154 -49 -154 -49 -154 -49> 484 156<455 516.5>
AnchorPoint: "Anchor-3" 345 710 basechar 0
AnchorPoint: "Anchor-0" 360 -253 basechar 0
LayerCount: 2
Fore
SplineSet
74 0 m 1
 74 710 l 1
 385 710 l 2
 541 710 640 627 640 498 c 0
 640 412 589 349 515 326 c 1
 586 316 623 276 629 204 c 2
 647 0 l 1
 492 0 l 1
 479 180 l 2
 475 234 449 260 377 260 c 2
 226 260 l 1
 226 0 l 1
 74 0 l 1
226 387 m 1
 368 387 l 2
 441 387 484 423 484 485 c 0
 484 548 442 582 363 582 c 2
 226 582 l 1
 226 387 l 1
278 -253 m 1
 330 -165 l 1
 295 -165 l 1
 295 -49 l 1
 425 -49 l 1
 425 -154 l 1
 366 -253 l 1
 278 -253 l 1
EndSplineSet
Substitution2: "'ss04' Style Set 4 in Latin lookup 37 subtable" uni0156.ss04
Substitution2: "'aalt' Access All Alternates in Latin lookup 0 subtable" uni0156.ss04
EndChar

StartChar: S
Encoding: 83 83 92
Width: 681
GlyphClass: 2
Flags: MW
HStem: -16 126<311 394.5 311 439> 600 126<295.5 370.5>
VStem: 66 153<490.5 542 490.5 575.5> 476 153<165 216.5>
AnchorPoint: "Anchor-3" 333 710 basechar 0
AnchorPoint: "Anchor-0" 349 0 basechar 0
LayerCount: 2
Fore
SplineSet
355 -16 m 0
 171 -16 63 82 52 234 c 1
 205 241 l 1
 217 157 265 110 357 110 c 0
 432 110 476 138 476 192 c 0
 476 241 451 270 318 300 c 0
 136 341 66 391 66 512 c 0
 66 639 165 726 332 726 c 0
 508 726 603 626 618 486 c 1
 466 478 l 1
 458 552 411 600 330 600 c 0
 261 600 219 567 219 517 c 0
 219 464 252 442 367 418 c 0
 564 378 629 307 629 199 c 0
 629 66 523 -16 355 -16 c 0
EndSplineSet
EndChar

StartChar: Sacute
Encoding: 346 346 93
Width: 681
GlyphClass: 2
Flags: MW
HStem: -16 126<311 394.5 311 439> 600 126<295.5 370.5> 765 148<265 469 324 379>
VStem: 66 153<490.5 542 490.5 575.5> 476 153<165 216.5>
AnchorPoint: "Anchor-3" 333 710 basechar 0
AnchorPoint: "Anchor-0" 349 0 basechar 0
LayerCount: 2
Fore
SplineSet
265 765 m 1
 324 913 l 1
 469 913 l 1
 379 765 l 1
 265 765 l 1
355 -16 m 0
 171 -16 63 82 52 234 c 1
 205 241 l 1
 217 157 265 110 357 110 c 0
 432 110 476 138 476 192 c 0
 476 241 451 270 318 300 c 0
 136 341 66 391 66 512 c 0
 66 639 165 726 332 726 c 0
 508 726 603 626 618 486 c 1
 466 478 l 1
 458 552 411 600 330 600 c 0
 261 600 219 567 219 517 c 0
 219 464 252 442 367 418 c 0
 564 378 629 307 629 199 c 0
 629 66 523 -16 355 -16 c 0
EndSplineSet
EndChar

StartChar: Scaron
Encoding: 352 352 94
Width: 681
GlyphClass: 2
Flags: MW
HStem: -16 126<311 394.5 311 439> 600 126<295.5 370.5> 765 153<261 270 396 405 261 261>
VStem: 66 153<490.5 542 490.5 575.5> 476 153<165 216.5>
AnchorPoint: "Anchor-3" 333 710 basechar 0
AnchorPoint: "Anchor-0" 349 0 basechar 0
LayerCount: 2
Fore
SplineSet
165 918 m 1
 270 918 l 1
 333 829 l 1
 396 918 l 1
 501 918 l 1
 405 765 l 1
 261 765 l 1
 165 918 l 1
355 -16 m 0
 171 -16 63 82 52 234 c 1
 205 241 l 1
 217 157 265 110 357 110 c 0
 432 110 476 138 476 192 c 0
 476 241 451 270 318 300 c 0
 136 341 66 391 66 512 c 0
 66 639 165 726 332 726 c 0
 508 726 603 626 618 486 c 1
 466 478 l 1
 458 552 411 600 330 600 c 0
 261 600 219 567 219 517 c 0
 219 464 252 442 367 418 c 0
 564 378 629 307 629 199 c 0
 629 66 523 -16 355 -16 c 0
EndSplineSet
EndChar

StartChar: Scedilla
Encoding: 350 350 95
Width: 681
GlyphClass: 2
Flags: MW
HStem: -232 73<324.5 354.5 324.5 378> -84 53<323 374> -84 194<323 349.5> -13 21G<301 301> 600 126<295.5 370.5>
VStem: 66 153<490.5 542 490.5 575.5> 388 82<-134.5 -111.5> 476 153<165 216.5>
AnchorPoint: "Anchor-3" 333 710 basechar 0
AnchorPoint: "Anchor-0" 349 0 basechar 0
LayerCount: 2
Fore
SplineSet
343 -232 m 0xce
 276 -232 233 -198 215 -149 c 1
 281 -121 l 1
 292 -147 309 -159 340 -159 c 0
 369 -159 388 -146 388 -123 c 0
 388 -100 376 -84 323 -84 c 1xce
 282 -45 l 1
 301 -13 l 1x9e
 150 4 62 98 52 234 c 1
 205 241 l 1
 217 157 265 110 357 110 c 0
 432 110 476 138 476 192 c 0
 476 241 451 270 318 300 c 0
 136 341 66 391 66 512 c 0
 66 639 165 726 332 726 c 0
 508 726 603 626 618 486 c 1
 466 478 l 1
 458 552 411 600 330 600 c 0
 261 600 219 567 219 517 c 0
 219 464 252 442 367 418 c 0
 564 378 629 307 629 199 c 0xad
 629 74 536 -6 385 -15 c 1
 374 -31 l 1
 441 -37 470 -76 470 -126 c 0
 470 -198 413 -232 343 -232 c 0xce
EndSplineSet
Substitution2: "'locl' Localized Forms in Latin lookup 10 subtable" uni0218
Substitution2: "'aalt' Access All Alternates in Latin lookup 0 subtable" uni0218
EndChar

StartChar: Scircumflex
Encoding: 348 348 96
Width: 681
GlyphClass: 2
Flags: MW
HStem: -16 126<311 394.5 311 439> 600 126<295.5 370.5> 765 153<165 405 261 270 396 396 396 405 261 501>
VStem: 66 153<490.5 542 490.5 575.5> 476 153<165 216.5>
AnchorPoint: "Anchor-3" 333 710 basechar 0
AnchorPoint: "Anchor-0" 349 0 basechar 0
LayerCount: 2
Fore
SplineSet
165 765 m 1
 261 918 l 1
 405 918 l 1
 501 765 l 1
 396 765 l 1
 333 854 l 1
 270 765 l 1
 165 765 l 1
355 -16 m 0
 171 -16 63 82 52 234 c 1
 205 241 l 1
 217 157 265 110 357 110 c 0
 432 110 476 138 476 192 c 0
 476 241 451 270 318 300 c 0
 136 341 66 391 66 512 c 0
 66 639 165 726 332 726 c 0
 508 726 603 626 618 486 c 1
 466 478 l 1
 458 552 411 600 330 600 c 0
 261 600 219 567 219 517 c 0
 219 464 252 442 367 418 c 0
 564 378 629 307 629 199 c 0
 629 66 523 -16 355 -16 c 0
EndSplineSet
EndChar

StartChar: uni0218
Encoding: 536 536 97
Width: 681
GlyphClass: 2
Flags: MW
HStem: -165 116<284 319 284 414> -16 126<311 394.5 311 439> 600 126<295.5 370.5>
VStem: 66 153<490.5 542 490.5 575.5> 284 130<-154 -49 -154 -49 -154 -49> 476 153<165 216.5>
AnchorPoint: "Anchor-3" 333 710 basechar 0
AnchorPoint: "Anchor-0" 349 -253 basechar 0
LayerCount: 2
Fore
SplineSet
355 -16 m 0
 171 -16 63 82 52 234 c 1
 205 241 l 1
 217 157 265 110 357 110 c 0
 432 110 476 138 476 192 c 0
 476 241 451 270 318 300 c 0
 136 341 66 391 66 512 c 0
 66 639 165 726 332 726 c 0
 508 726 603 626 618 486 c 1
 466 478 l 1
 458 552 411 600 330 600 c 0
 261 600 219 567 219 517 c 0
 219 464 252 442 367 418 c 0
 564 378 629 307 629 199 c 0
 629 66 523 -16 355 -16 c 0
267 -253 m 1
 319 -165 l 1
 284 -165 l 1
 284 -49 l 1
 414 -49 l 1
 414 -154 l 1
 355 -253 l 1
 267 -253 l 1
EndSplineSet
EndChar

StartChar: uni1E9E
Encoding: 7838 7838 98
Width: 741
GlyphClass: 2
Flags: MW
HStem: 0 128<74 414 293 414 293 414> 582 128<297.5 656 333 478>
VStem: 74 152<0 469 0 547> 535 156<193 253.5>
AnchorPoint: "Anchor-3" 371 710 basechar 0
AnchorPoint: "Anchor-0" 371 0 basechar 0
LayerCount: 2
Fore
SplineSet
74 0 m 1
 74 469 l 2
 74 625 164 710 333 710 c 2
 656 710 l 1
 656 579 l 1
 480 421 l 1
 618 402 691 332 691 221 c 0
 691 81 590 0 414 0 c 2
 293 0 l 1
 293 128 l 1
 414 128 l 2
 489 128 535 163 535 223 c 0
 535 284 486 318 405 318 c 2
 307 318 l 1
 307 423 l 1
 478 582 l 1
 333 582 l 2
 262 582 226 544 226 469 c 2
 226 0 l 1
 74 0 l 1
EndSplineSet
EndChar

StartChar: T
Encoding: 84 84 99
Width: 599
GlyphClass: 2
Flags: MW
HStem: 0 21G<223 223 223 376> 582 128<11 223 11 589 376 376 376 589>
VStem: 223 153<0 582 0 582>
AnchorPoint: "Anchor-3" 299 710 basechar 0
AnchorPoint: "Anchor-1" 300 326 basechar 0
AnchorPoint: "Anchor-0" 299 0 basechar 0
LayerCount: 2
Fore
SplineSet
223 0 m 1
 223 582 l 1
 11 582 l 1
 11 710 l 1
 589 710 l 1
 589 582 l 1
 376 582 l 1
 376 0 l 1
 223 0 l 1
EndSplineSet
EndChar

StartChar: Tbar
Encoding: 358 358 100
Width: 599
GlyphClass: 2
Flags: MW
HStem: 0 21G<223 223 223 376> 269 115<99 223 99 223 376 501> 582 128<11 223 11 589 376 376 376 589>
VStem: 223 153<0 269 0 269 384 582>
AnchorPoint: "Anchor-3" 299 710 basechar 0
AnchorPoint: "Anchor-1" 300 326 basechar 0
AnchorPoint: "Anchor-0" 299 0 basechar 0
LayerCount: 2
Fore
SplineSet
223 0 m 1
 223 269 l 1
 99 269 l 1
 99 384 l 1
 223 384 l 1
 223 582 l 1
 11 582 l 1
 11 710 l 1
 589 710 l 1
 589 582 l 1
 376 582 l 1
 376 384 l 1
 501 384 l 1
 501 269 l 1
 376 269 l 1
 376 0 l 1
 223 0 l 1
EndSplineSet
EndChar

StartChar: Tcaron
Encoding: 356 356 101
Width: 599
GlyphClass: 2
Flags: MW
HStem: 0 21G<223 223 223 376> 582 128<11 223 11 589 376 376 376 589> 765 153<227 236 363 372 227 227>
VStem: 223 153<0 582 0 582>
AnchorPoint: "Anchor-3" 299 710 basechar 0
AnchorPoint: "Anchor-1" 300 326 basechar 0
AnchorPoint: "Anchor-0" 299 0 basechar 0
LayerCount: 2
Fore
SplineSet
131 918 m 1
 236 918 l 1
 299 829 l 1
 363 918 l 1
 468 918 l 1
 372 765 l 1
 227 765 l 1
 131 918 l 1
223 0 m 1
 223 582 l 1
 11 582 l 1
 11 710 l 1
 589 710 l 1
 589 582 l 1
 376 582 l 1
 376 0 l 1
 223 0 l 1
EndSplineSet
EndChar

StartChar: uni0162
Encoding: 354 354 102
Width: 599
GlyphClass: 2
Flags: MW
HStem: -232 73<274.5 305 274.5 328.5> -84 53<273 324> 0 21G<223 223 223 259 345 345 345 376> 582 128<11 223 11 589 376 376 376 589>
VStem: 223 153<0 582 0 582> 338 82<-134.5 -111.5>
AnchorPoint: "Anchor-3" 299 710 basechar 0
AnchorPoint: "Anchor-1" 300 326 basechar 0
AnchorPoint: "Anchor-0" 299 0 basechar 0
LayerCount: 2
Fore
SplineSet
223 0 m 1xf8
 223 582 l 1
 11 582 l 1
 11 710 l 1
 589 710 l 1
 589 582 l 1
 376 582 l 1
 376 0 l 1xb8
 345 0 l 1
 324 -31 l 1
 391 -37 420 -76 420 -126 c 0
 420 -198 363 -232 294 -232 c 0
 227 -232 183 -198 165 -149 c 1
 231 -121 l 1
 242 -147 259 -159 290 -159 c 0
 320 -159 338 -146 338 -123 c 0xf4
 338 -100 326 -84 273 -84 c 1
 233 -45 l 1
 259 0 l 1
 223 0 l 1xf8
EndSplineSet
Substitution2: "'locl' Localized Forms in Latin lookup 10 subtable" uni021A
Substitution2: "'aalt' Access All Alternates in Latin lookup 0 subtable" uni021A
EndChar

StartChar: uni021A
Encoding: 538 538 103
Width: 599
GlyphClass: 2
Flags: MW
HStem: -165 116<234 269 234 364> 0 21G<223 223 223 376> 582 128<11 223 11 589 376 376 376 589>
VStem: 223 141<-154 582> 223 153<0 582 0 582> 234 142<-165 582 -49 582>
AnchorPoint: "Anchor-3" 299 710 basechar 0
AnchorPoint: "Anchor-1" 300 326 basechar 0
AnchorPoint: "Anchor-0" 299 -253 basechar 0
LayerCount: 2
Fore
SplineSet
223 0 m 1xe8
 223 582 l 1
 11 582 l 1
 11 710 l 1
 589 710 l 1
 589 582 l 1
 376 582 l 1
 376 0 l 1
 223 0 l 1xe8
217 -253 m 1
 269 -165 l 1
 234 -165 l 1
 234 -49 l 1xe4
 364 -49 l 1
 364 -154 l 1xf0
 305 -253 l 1
 217 -253 l 1
EndSplineSet
EndChar

StartChar: U
Encoding: 85 85 104
Width: 703
GlyphClass: 2
Flags: MW
HStem: -16 128<306.5 397 306.5 441.5> 691 20G<59 211 211 211 492 644 644 644>
VStem: 59 152<256 711> 492 152<256 711>
AnchorPoint: "Anchor-3" 352 710 basechar 0
AnchorPoint: "Anchor-2" 467 1 basechar 0
AnchorPoint: "Anchor-0" 352 0 basechar 0
LayerCount: 2
Fore
SplineSet
352 -16 m 0
 172 -16 59 90 59 256 c 2
 59 711 l 1
 211 711 l 1
 211 256 l 2
 211 164 261 112 352 112 c 0
 442 112 492 164 492 256 c 2
 492 711 l 1
 644 711 l 1
 644 256 l 2
 644 90 531 -16 352 -16 c 0
EndSplineSet
EndChar

StartChar: Uacute
Encoding: 218 218 105
Width: 703
GlyphClass: 2
Flags: MW
HStem: -16 128<306.5 397 306.5 441.5> 691 20G<59 211 211 211 492 644 644 644> 765 148<283 488 342 398>
VStem: 59 152<256 711> 492 152<256 711>
AnchorPoint: "Anchor-3" 352 710 basechar 0
AnchorPoint: "Anchor-2" 467 1 basechar 0
AnchorPoint: "Anchor-0" 352 0 basechar 0
LayerCount: 2
Fore
SplineSet
283 765 m 1
 342 913 l 1
 488 913 l 1
 398 765 l 1
 283 765 l 1
352 -16 m 0
 172 -16 59 90 59 256 c 2
 59 711 l 1
 211 711 l 1
 211 256 l 2
 211 164 261 112 352 112 c 0
 442 112 492 164 492 256 c 2
 492 711 l 1
 644 711 l 1
 644 256 l 2
 644 90 531 -16 352 -16 c 0
EndSplineSet
EndChar

StartChar: Ubreve
Encoding: 364 364 106
Width: 703
GlyphClass: 2
Flags: MW
HStem: -16 128<306.5 397 306.5 441.5> 691 20G<59 211 211 211 492 644 644 644> 766 82<332 372 332 398> 766 147<195 398>
VStem: 59 152<256 711> 492 152<256 711>
AnchorPoint: "Anchor-3" 352 710 basechar 0
AnchorPoint: "Anchor-2" 467 1 basechar 0
AnchorPoint: "Anchor-0" 352 0 basechar 0
LayerCount: 2
Fore
SplineSet
352 766 m 0xdc
 259 766 199 819 195 913 c 1xdc
 282 913 l 1
 286 867 312 848 352 848 c 0xec
 392 848 416 867 421 913 c 1
 508 913 l 1
 504 819 444 766 352 766 c 0xdc
352 -16 m 0
 172 -16 59 90 59 256 c 2
 59 711 l 1
 211 711 l 1
 211 256 l 2
 211 164 261 112 352 112 c 0
 442 112 492 164 492 256 c 2
 492 711 l 1
 644 711 l 1
 644 256 l 2
 644 90 531 -16 352 -16 c 0
EndSplineSet
EndChar

StartChar: Ucircumflex
Encoding: 219 219 107
Width: 703
GlyphClass: 2
Flags: MW
HStem: -16 128<306.5 397 306.5 441.5> 691 20G<59 211 211 211 492 644 644 644> 765 153<183 424 279 288 415 415 415 424 279 520>
VStem: 59 152<256 711> 492 152<256 711>
AnchorPoint: "Anchor-3" 352 710 basechar 0
AnchorPoint: "Anchor-2" 467 1 basechar 0
AnchorPoint: "Anchor-0" 352 0 basechar 0
LayerCount: 2
Fore
SplineSet
183 765 m 1
 279 918 l 1
 424 918 l 1
 520 765 l 1
 415 765 l 1
 352 854 l 1
 288 765 l 1
 183 765 l 1
352 -16 m 0
 172 -16 59 90 59 256 c 2
 59 711 l 1
 211 711 l 1
 211 256 l 2
 211 164 261 112 352 112 c 0
 442 112 492 164 492 256 c 2
 492 711 l 1
 644 711 l 1
 644 256 l 2
 644 90 531 -16 352 -16 c 0
EndSplineSet
EndChar

StartChar: Udieresis
Encoding: 220 220 108
Width: 703
GlyphClass: 2
Flags: MW
HStem: -16 128<306.5 397 306.5 441.5> 691 20G<59 211 211 211 492 644 644 644> 773 121<173 316 173 316 387 531 173 387>
VStem: 59 152<256 711> 173 38 173 143<773 894 773 894> 387 144<773 894 773 894> 492 39 492 152<256 711>
AnchorPoint: "Anchor-3" 352 710 basechar 0
AnchorPoint: "Anchor-2" 467 1 basechar 0
AnchorPoint: "Anchor-0" 352 0 basechar 0
LayerCount: 2
Fore
SplineSet
173 773 m 1xe880
 173 894 l 1xea
 316 894 l 1
 316 773 l 1xe480
 173 773 l 1xe880
387 773 m 1
 387 894 l 1xf2
 531 894 l 1
 531 773 l 1xf1
 387 773 l 1
352 -16 m 0
 172 -16 59 90 59 256 c 2
 59 711 l 1
 211 711 l 1
 211 256 l 2
 211 164 261 112 352 112 c 0
 442 112 492 164 492 256 c 2
 492 711 l 1
 644 711 l 1
 644 256 l 2xf080
 644 90 531 -16 352 -16 c 0
EndSplineSet
Substitution2: "'ss08' Style Set 8 in Latin lookup 41 subtable" Udieresis.ss08
Substitution2: "'aalt' Access All Alternates in Latin lookup 0 subtable" Udieresis.ss08
EndChar

StartChar: Ugrave
Encoding: 217 217 109
Width: 703
GlyphClass: 2
Flags: MW
HStem: -16 128<306.5 397 306.5 441.5> 691 20G<59 211 211 211 492 644 644 644> 772 147<304 304 304 359 214 418>
VStem: 59 152<256 711> 492 152<256 711>
AnchorPoint: "Anchor-3" 352 710 basechar 0
AnchorPoint: "Anchor-2" 467 1 basechar 0
AnchorPoint: "Anchor-0" 352 0 basechar 0
LayerCount: 2
Fore
SplineSet
304 772 m 1
 214 919 l 1
 359 919 l 1
 418 772 l 1
 304 772 l 1
352 -16 m 0
 172 -16 59 90 59 256 c 2
 59 711 l 1
 211 711 l 1
 211 256 l 2
 211 164 261 112 352 112 c 0
 442 112 492 164 492 256 c 2
 492 711 l 1
 644 711 l 1
 644 256 l 2
 644 90 531 -16 352 -16 c 0
EndSplineSet
EndChar

StartChar: Uhungarumlaut
Encoding: 368 368 110
Width: 703
GlyphClass: 2
Flags: MW
HStem: -16 128<306.5 397 306.5 441.5> 691 20G<59 211 211 211 492 644 644 644> 765 148<206 410 264 320 383 410 442 497 383 383>
VStem: 59 152<256 711> 492 152<256 711>
AnchorPoint: "Anchor-3" 352 710 basechar 0
AnchorPoint: "Anchor-2" 467 1 basechar 0
AnchorPoint: "Anchor-0" 352 0 basechar 0
LayerCount: 2
Fore
SplineSet
206 765 m 1
 264 913 l 1
 410 913 l 1
 320 765 l 1
 206 765 l 1
383 765 m 1
 442 913 l 1
 587 913 l 1
 497 765 l 1
 383 765 l 1
352 -16 m 0
 172 -16 59 90 59 256 c 2
 59 711 l 1
 211 711 l 1
 211 256 l 2
 211 164 261 112 352 112 c 0
 442 112 492 164 492 256 c 2
 492 711 l 1
 644 711 l 1
 644 256 l 2
 644 90 531 -16 352 -16 c 0
EndSplineSet
EndChar

StartChar: Umacron
Encoding: 362 362 111
Width: 703
GlyphClass: 2
Flags: MW
HStem: -16 128<306.5 397 306.5 441.5> 691 20G<59 211 211 211 492 644 644 644> 781 110<202 501 202 501>
VStem: 59 152<256 711> 202 9 492 9 492 152<256 711>
AnchorPoint: "Anchor-3" 352 710 basechar 0
AnchorPoint: "Anchor-2" 467 1 basechar 0
AnchorPoint: "Anchor-0" 352 0 basechar 0
LayerCount: 2
Fore
SplineSet
202 781 m 1xec
 202 891 l 1
 501 891 l 1
 501 781 l 1
 202 781 l 1xec
352 -16 m 0
 172 -16 59 90 59 256 c 2
 59 711 l 1
 211 711 l 1
 211 256 l 2
 211 164 261 112 352 112 c 0
 442 112 492 164 492 256 c 2
 492 711 l 1
 644 711 l 1
 644 256 l 2xf2
 644 90 531 -16 352 -16 c 0
EndSplineSet
EndChar

StartChar: Uogonek
Encoding: 370 370 112
Width: 703
GlyphClass: 2
Flags: MW
HStem: -216 90<361.5 439.5> -16 128<335 335> 691 20G<59 211 211 211 492 644 644 644>
VStem: 59 152<256 711> 284 121<-158 -93.5> 492 152<256 711>
AnchorPoint: "Anchor-3" 352 710 basechar 0
AnchorPoint: "Anchor-2" 467 1 basechar 0
AnchorPoint: "Anchor-0" 352 0 basechar 0
LayerCount: 2
Fore
SplineSet
397 -216 m 0
 326 -216 284 -186 284 -130 c 0
 284 -90 309 -51 333 -18 c 1
 335 -16 l 1
 165 -10 59 95 59 256 c 2
 59 711 l 1
 211 711 l 1
 211 256 l 2
 211 164 261 112 352 112 c 0
 442 112 492 164 492 256 c 2
 492 711 l 1
 644 711 l 1
 644 256 l 2
 644 129 578 37 466 1 c 1
 436 -38 l 2
 417 -65 405 -85 405 -102 c 0
 405 -118 417 -126 431 -126 c 0
 448 -126 466 -121 476 -114 c 1
 503 -190 l 1
 485 -204 440 -216 397 -216 c 0
EndSplineSet
EndChar

StartChar: Uring
Encoding: 366 366 113
Width: 703
GlyphClass: 2
Flags: MW
HStem: -16 128<306.5 397 306.5 441.5> 691 20G<59 211 211 211 492 644 644 644> 749 64<341 362.5 341 381> 888 64<341 362.5>
VStem: 59 152<256 711> 249 65<839.5 861 839.5 879> 389 65<839.5 861> 492 152<256 711>
AnchorPoint: "Anchor-3" 352 710 basechar 0
AnchorPoint: "Anchor-2" 467 1 basechar 0
AnchorPoint: "Anchor-0" 352 0 basechar 0
LayerCount: 2
Fore
SplineSet
352 749 m 0
 294 749 249 792 249 850 c 0
 249 908 294 952 352 952 c 0
 410 952 454 908 454 850 c 0
 454 792 410 749 352 749 c 0
352 813 m 0
 373 813 389 829 389 850 c 0
 389 872 373 888 352 888 c 0
 330 888 314 872 314 850 c 0
 314 829 330 813 352 813 c 0
352 -16 m 0
 172 -16 59 90 59 256 c 2
 59 711 l 1
 211 711 l 1
 211 256 l 2
 211 164 261 112 352 112 c 0
 442 112 492 164 492 256 c 2
 492 711 l 1
 644 711 l 1
 644 256 l 2
 644 90 531 -16 352 -16 c 0
EndSplineSet
EndChar

StartChar: Utilde
Encoding: 360 360 114
Width: 703
GlyphClass: 2
Flags: MW
HStem: -16 128<306.5 397 306.5 441.5> 691 20G<59 211 211 211 492 644 644 644> 769 142<180 306 180 306> 774 89<404 420.5 404 444> 774 144<392.5 522> 822 89<283.5 300>
VStem: 59 152<256 711> 180 31 180 75<769 769> 448 74<918 918> 492 152<256 711>
AnchorPoint: "Anchor-3" 352 710 basechar 0
AnchorPoint: "Anchor-2" 467 1 basechar 0
AnchorPoint: "Anchor-0" 352 0 basechar 0
LayerCount: 2
Fore
SplineSet
408 774 m 0xca40
 377 774 357 782 332 804 c 0
 316 816 307 822 293 822 c 0xc4a0
 274 822 258 810 255 769 c 1xe0a0
 180 769 l 1
 181 856 221 911 290 911 c 0xe120
 322 911 346 902 372 881 c 0
 388 869 398 863 410 863 c 0xd240
 431 863 445 875 448 918 c 1
 522 918 l 1
 521 830 480 774 408 774 c 0xca40
352 -16 m 0
 172 -16 59 90 59 256 c 2
 59 711 l 1
 211 711 l 1
 211 256 l 2xe220
 211 164 261 112 352 112 c 0
 442 112 492 164 492 256 c 2
 492 711 l 1
 644 711 l 1
 644 256 l 2
 644 90 531 -16 352 -16 c 0
EndSplineSet
EndChar

StartChar: V
Encoding: 86 86 115
Width: 730
GlyphClass: 2
Flags: MW
HStem: 0 21G<275 275 275 454> 690 20G<19 176 176 176 554 711 711 711>
VStem: 19 692<710 710>
AnchorPoint: "Anchor-3" 365 710 basechar 0
AnchorPoint: "Anchor-0" 365 0 basechar 0
LayerCount: 2
Fore
SplineSet
275 0 m 1
 19 710 l 1
 176 710 l 1
 365 171 l 1
 554 710 l 1
 711 710 l 1
 454 0 l 1
 275 0 l 1
EndSplineSet
EndChar

StartChar: W
Encoding: 87 87 116
Width: 1015
GlyphClass: 2
Flags: MW
HStem: 0 21G<229 229 229 391 623 623 623 787> 690 20G<37 196 196 196 441 574 574 574 819 978 978 978>
VStem: 37 941<710 710>
AnchorPoint: "Anchor-3" 507 710 basechar 0
AnchorPoint: "Anchor-0" 507 0 basechar 0
LayerCount: 2
Fore
SplineSet
229 0 m 1
 37 710 l 1
 196 710 l 1
 318 210 l 1
 441 710 l 1
 574 710 l 1
 698 210 l 1
 819 710 l 1
 978 710 l 1
 787 0 l 1
 623 0 l 1
 507 454 l 1
 391 0 l 1
 229 0 l 1
EndSplineSet
EndChar

StartChar: Wacute
Encoding: 7810 7810 117
Width: 1015
GlyphClass: 2
Flags: MW
HStem: 0 21G<229 229 229 391 623 623 623 787> 690 20G<37 196 196 196 441 574 574 574 819 978 978 978> 765 148<439 644 498 554>
VStem: 37 941<710 710>
AnchorPoint: "Anchor-3" 507 710 basechar 0
AnchorPoint: "Anchor-0" 507 0 basechar 0
LayerCount: 2
Fore
SplineSet
439 765 m 1
 498 913 l 1
 644 913 l 1
 554 765 l 1
 439 765 l 1
229 0 m 1
 37 710 l 1
 196 710 l 1
 318 210 l 1
 441 710 l 1
 574 710 l 1
 698 210 l 1
 819 710 l 1
 978 710 l 1
 787 0 l 1
 623 0 l 1
 507 454 l 1
 391 0 l 1
 229 0 l 1
EndSplineSet
EndChar

StartChar: Wcircumflex
Encoding: 372 372 118
Width: 1015
GlyphClass: 2
Flags: MW
HStem: 0 21G<229 229 229 391 623 623 623 787> 690 20G<37 196 196 196 441 574 574 574 819 978 978 978> 765 153<339 580 435 444 571 571 571 580 435 676>
VStem: 37 941<710 710>
AnchorPoint: "Anchor-3" 507 710 basechar 0
AnchorPoint: "Anchor-0" 507 0 basechar 0
LayerCount: 2
Fore
SplineSet
339 765 m 1
 435 918 l 1
 580 918 l 1
 676 765 l 1
 571 765 l 1
 507 854 l 1
 444 765 l 1
 339 765 l 1
229 0 m 1
 37 710 l 1
 196 710 l 1
 318 210 l 1
 441 710 l 1
 574 710 l 1
 698 210 l 1
 819 710 l 1
 978 710 l 1
 787 0 l 1
 623 0 l 1
 507 454 l 1
 391 0 l 1
 229 0 l 1
EndSplineSet
EndChar

StartChar: Wdieresis
Encoding: 7812 7812 119
Width: 1015
GlyphClass: 2
Flags: MW
HStem: 0 21G<229 229 229 391 623 623 623 787> 690 20G<37 196 196 196 441 574 574 574 819 978 978 978> 773 121<328 472 328 472 543 686 328 543>
VStem: 328 144<773 894 773 894> 543 143<773 894 773 894>
AnchorPoint: "Anchor-3" 507 710 basechar 0
AnchorPoint: "Anchor-0" 507 0 basechar 0
LayerCount: 2
Fore
SplineSet
328 773 m 1
 328 894 l 1
 472 894 l 1
 472 773 l 1
 328 773 l 1
543 773 m 1
 543 894 l 1
 686 894 l 1
 686 773 l 1
 543 773 l 1
229 0 m 1
 37 710 l 1
 196 710 l 1
 318 210 l 1
 441 710 l 1
 574 710 l 1
 698 210 l 1
 819 710 l 1
 978 710 l 1
 787 0 l 1
 623 0 l 1
 507 454 l 1
 391 0 l 1
 229 0 l 1
EndSplineSet
Substitution2: "'ss08' Style Set 8 in Latin lookup 41 subtable" Wdieresis.ss08
Substitution2: "'aalt' Access All Alternates in Latin lookup 0 subtable" Wdieresis.ss08
EndChar

StartChar: Wgrave
Encoding: 7808 7808 120
Width: 1015
GlyphClass: 2
Flags: MW
HStem: 0 21G<229 229 229 391 623 623 623 787> 690 20G<37 196 196 196 441 574 574 574 819 978 978 978> 772 147<460 460 460 515 370 574>
VStem: 37 941<710 710>
AnchorPoint: "Anchor-3" 507 710 basechar 0
AnchorPoint: "Anchor-0" 507 0 basechar 0
LayerCount: 2
Fore
SplineSet
460 772 m 1
 370 919 l 1
 515 919 l 1
 574 772 l 1
 460 772 l 1
229 0 m 1
 37 710 l 1
 196 710 l 1
 318 210 l 1
 441 710 l 1
 574 710 l 1
 698 210 l 1
 819 710 l 1
 978 710 l 1
 787 0 l 1
 623 0 l 1
 507 454 l 1
 391 0 l 1
 229 0 l 1
EndSplineSet
EndChar

StartChar: X
Encoding: 88 88 121
Width: 688
GlyphClass: 2
Flags: MW
HStem: 0 21G<12 12 12 189 499 499 499 676> 690 20G<14 190 190 190 496 673 673 673>
VStem: 12 664<0 0>
AnchorPoint: "Anchor-3" 344 710 basechar 0
AnchorPoint: "Anchor-0" 344 0 basechar 0
LayerCount: 2
Fore
SplineSet
12 0 m 1
 253 356 l 1
 14 710 l 1
 190 710 l 1
 345 471 l 1
 496 710 l 1
 673 710 l 1
 434 358 l 1
 676 0 l 1
 499 0 l 1
 343 243 l 1
 189 0 l 1
 12 0 l 1
EndSplineSet
EndChar

StartChar: Y
Encoding: 89 89 122
Width: 631
GlyphClass: 2
Flags: MW
HStem: 0 21G<240 240 240 392> 690 20G<-7 161 161 161 470 638 638 638>
VStem: 240 152<0 276 0 276>
AnchorPoint: "Anchor-3" 316 710 basechar 0
AnchorPoint: "Anchor-0" 316 0 basechar 0
LayerCount: 2
Fore
SplineSet
240 0 m 1
 240 276 l 1
 -7 710 l 1
 161 710 l 1
 316 424 l 1
 470 710 l 1
 638 710 l 1
 392 276 l 1
 392 0 l 1
 240 0 l 1
EndSplineSet
EndChar

StartChar: Yacute
Encoding: 221 221 123
Width: 631
GlyphClass: 2
Flags: MW
HStem: 0 21G<240 240 240 392> 690 20G<-7 161 161 161 470 638 638 638> 765 148<248 452 307 362>
VStem: 240 152<0 276 0 276>
AnchorPoint: "Anchor-3" 316 710 basechar 0
AnchorPoint: "Anchor-0" 316 0 basechar 0
LayerCount: 2
Fore
SplineSet
248 765 m 1
 307 913 l 1
 452 913 l 1
 362 765 l 1
 248 765 l 1
240 0 m 1
 240 276 l 1
 -7 710 l 1
 161 710 l 1
 316 424 l 1
 470 710 l 1
 638 710 l 1
 392 276 l 1
 392 0 l 1
 240 0 l 1
EndSplineSet
EndChar

StartChar: Ycircumflex
Encoding: 374 374 124
Width: 631
GlyphClass: 2
Flags: MW
HStem: 0 21G<240 240 240 392> 690 20G<-7 161 161 161 470 638 638 638> 765 153<148 388 244 253 380 380 380 388 244 484>
VStem: 240 152<0 276 0 276>
AnchorPoint: "Anchor-3" 316 710 basechar 0
AnchorPoint: "Anchor-0" 316 0 basechar 0
LayerCount: 2
Fore
SplineSet
148 765 m 1
 244 918 l 1
 388 918 l 1
 484 765 l 1
 380 765 l 1
 316 854 l 1
 253 765 l 1
 148 765 l 1
240 0 m 1
 240 276 l 1
 -7 710 l 1
 161 710 l 1
 316 424 l 1
 470 710 l 1
 638 710 l 1
 392 276 l 1
 392 0 l 1
 240 0 l 1
EndSplineSet
EndChar

StartChar: Ydieresis
Encoding: 376 376 125
Width: 631
GlyphClass: 2
Flags: MW
HStem: 0 21G<240 240 240 392> 690 20G<-7 161 161 161 470 638 638 638> 773 121<137 280 137 280 352 495 137 352>
VStem: 137 143<773 894 773 894> 240 152<0 276 0 276> 352 143<773 894 773 894>
AnchorPoint: "Anchor-3" 316 710 basechar 0
AnchorPoint: "Anchor-0" 316 0 basechar 0
LayerCount: 2
Fore
SplineSet
137 773 m 1xf4
 137 894 l 1
 280 894 l 1
 280 773 l 1
 137 773 l 1xf4
352 773 m 1
 352 894 l 1
 495 894 l 1
 495 773 l 1
 352 773 l 1
240 0 m 1xe8
 240 276 l 1
 -7 710 l 1
 161 710 l 1
 316 424 l 1
 470 710 l 1
 638 710 l 1
 392 276 l 1
 392 0 l 1
 240 0 l 1xe8
EndSplineSet
Substitution2: "'ss08' Style Set 8 in Latin lookup 41 subtable" Ydieresis.ss08
Substitution2: "'aalt' Access All Alternates in Latin lookup 0 subtable" Ydieresis.ss08
EndChar

StartChar: Ygrave
Encoding: 7922 7922 126
Width: 631
GlyphClass: 2
Flags: MW
HStem: 0 21G<240 240 240 392> 690 20G<-7 161 161 161 470 638 638 638> 772 147<268 268 268 324 178 383>
VStem: 240 152<0 276 0 276>
AnchorPoint: "Anchor-3" 316 710 basechar 0
AnchorPoint: "Anchor-0" 316 0 basechar 0
LayerCount: 2
Fore
SplineSet
268 772 m 1
 178 919 l 1
 324 919 l 1
 383 772 l 1
 268 772 l 1
240 0 m 1
 240 276 l 1
 -7 710 l 1
 161 710 l 1
 316 424 l 1
 470 710 l 1
 638 710 l 1
 392 276 l 1
 392 0 l 1
 240 0 l 1
EndSplineSet
EndChar

StartChar: uni1EF8
Encoding: 7928 7928 127
Width: 631
GlyphClass: 2
Flags: MW
HStem: 0 21G<240 240 240 392> 690 20G<-7 161 161 161 470 638 638 638> 769 142<144 271 144 271> 774 89<369 385 369 408.5> 774 144<356.5 487> 822 89<247.5 264>
VStem: 144 75<769 769> 240 152<0 276 0 276> 412 75<918 918>
AnchorPoint: "Anchor-3" 316 710 basechar 0
AnchorPoint: "Anchor-0" 316 0 basechar 0
LayerCount: 2
Fore
SplineSet
372 774 m 0xc880
 341 774 322 782 296 804 c 0
 281 816 271 822 257 822 c 0xc6
 238 822 222 810 219 769 c 1
 144 769 l 1
 145 856 186 911 255 911 c 0xe2
 287 911 310 902 336 881 c 0
 353 869 363 863 375 863 c 0xd080
 395 863 409 875 412 918 c 1
 487 918 l 1
 485 830 445 774 372 774 c 0xc880
240 0 m 1xe1
 240 276 l 1
 -7 710 l 1
 161 710 l 1
 316 424 l 1
 470 710 l 1
 638 710 l 1
 392 276 l 1
 392 0 l 1
 240 0 l 1xe1
EndSplineSet
EndChar

StartChar: Z
Encoding: 90 90 128
Width: 594
GlyphClass: 2
Flags: MW
HStem: 0 128<209 567 209 567> 582 128<43 365 43 554>
VStem: 27 540<0 124 124 124>
AnchorPoint: "Anchor-3" 306 710 basechar 0
AnchorPoint: "Anchor-0" 306 0 basechar 0
LayerCount: 2
Fore
SplineSet
27 0 m 1
 27 124 l 1
 365 582 l 1
 43 582 l 1
 43 710 l 1
 554 710 l 1
 554 586 l 1
 209 128 l 1
 567 128 l 1
 567 0 l 1
 27 0 l 1
EndSplineSet
EndChar

StartChar: Zacute
Encoding: 377 377 129
Width: 594
GlyphClass: 2
Flags: MW
HStem: 0 128<209 567 209 567> 582 128<43 365 43 554> 765 148<238 442 296 352>
VStem: 27 540<0 124 124 124>
AnchorPoint: "Anchor-3" 306 710 basechar 0
AnchorPoint: "Anchor-0" 306 0 basechar 0
LayerCount: 2
Fore
SplineSet
238 765 m 1
 296 913 l 1
 442 913 l 1
 352 765 l 1
 238 765 l 1
27 0 m 1
 27 124 l 1
 365 582 l 1
 43 582 l 1
 43 710 l 1
 554 710 l 1
 554 586 l 1
 209 128 l 1
 567 128 l 1
 567 0 l 1
 27 0 l 1
EndSplineSet
EndChar

StartChar: Zcaron
Encoding: 381 381 130
Width: 594
GlyphClass: 2
Flags: MW
HStem: 0 128<209 567 209 567> 582 128<43 365 43 554> 765 153<234 242 369 378 234 234>
VStem: 27 540<0 124 124 124>
AnchorPoint: "Anchor-3" 306 710 basechar 0
AnchorPoint: "Anchor-0" 306 0 basechar 0
LayerCount: 2
Fore
SplineSet
138 918 m 1
 242 918 l 1
 306 829 l 1
 369 918 l 1
 474 918 l 1
 378 765 l 1
 234 765 l 1
 138 918 l 1
27 0 m 1
 27 124 l 1
 365 582 l 1
 43 582 l 1
 43 710 l 1
 554 710 l 1
 554 586 l 1
 209 128 l 1
 567 128 l 1
 567 0 l 1
 27 0 l 1
EndSplineSet
EndChar

StartChar: Zdotaccent
Encoding: 379 379 131
Width: 594
GlyphClass: 2
Flags: MW
HStem: 0 128<209 567 209 567> 582 128<43 365 43 554> 776 120<228 383 228 383>
VStem: 228 155<776 896 776 896>
AnchorPoint: "Anchor-3" 306 710 basechar 0
AnchorPoint: "Anchor-0" 306 0 basechar 0
LayerCount: 2
Fore
SplineSet
228 776 m 1
 228 896 l 1
 383 896 l 1
 383 776 l 1
 228 776 l 1
27 0 m 1
 27 124 l 1
 365 582 l 1
 43 582 l 1
 43 710 l 1
 554 710 l 1
 554 586 l 1
 209 128 l 1
 567 128 l 1
 567 0 l 1
 27 0 l 1
EndSplineSet
Substitution2: "'ss08' Style Set 8 in Latin lookup 41 subtable" Zdotaccent.ss08
Substitution2: "'aalt' Access All Alternates in Latin lookup 0 subtable" Zdotaccent.ss08
EndChar

StartChar: uniA78B
Encoding: 42891 42891 132
Width: 226
GlyphClass: 1
Flags: MW
HStem: 690 20G<42 184 184 184>
VStem: 42 142<570 710 570 710>
LayerCount: 2
Fore
SplineSet
55 330 m 1
 42 570 l 1
 42 710 l 1
 184 710 l 1
 184 570 l 1
 171 330 l 1
 55 330 l 1
EndSplineSet
EndChar

StartChar: uni013B.loclMAH
Encoding: 65538 -1 133
Width: 589
GlyphClass: 2
Flags: MW
HStem: -165 116<249 283 249 379> 0 128<226 553 226 553> 690 20G<74 226 226 226>
VStem: 74 152<128 710 128 710 128 710> 249 130<-154 -49 -154 -49 -154 -49>
AnchorPoint: "Anchor-4" 362 536 basechar 0
AnchorPoint: "Anchor-3" 150 710 basechar 0
AnchorPoint: "Anchor-1" 184 380 basechar 0
AnchorPoint: "Anchor-0" 314 -253 basechar 0
LayerCount: 2
Fore
SplineSet
74 0 m 1
 74 710 l 1
 226 710 l 1
 226 128 l 1
 553 128 l 1
 553 0 l 1
 74 0 l 1
231 -253 m 1
 283 -165 l 1
 249 -165 l 1
 249 -49 l 1
 379 -49 l 1
 379 -154 l 1xe8
 319 -253 l 1
 231 -253 l 1
EndSplineSet
EndChar

StartChar: uni0145.loclMAH
Encoding: 65539 -1 134
Width: 750
GlyphClass: 2
Flags: MW
HStem: -165 116<306 341 306 436> 0 21G<74 74 74 226 506 506 506 676> 690 20G<74 242 242 242 524 676 676 676>
VStem: 74 152<0 473 0 710> 306 130<-154 -49 -154 -49 -154 -49> 524 152<220 710 0 710>
AnchorPoint: "Anchor-3" 381 710 basechar 0
AnchorPoint: "Anchor-0" 371 -253 basechar 0
LayerCount: 2
Fore
SplineSet
74 0 m 1
 74 710 l 1
 242 710 l 1
 524 220 l 1
 524 710 l 1
 676 710 l 1
 676 0 l 1
 506 0 l 1
 226 473 l 1
 226 0 l 1
 74 0 l 1
289 -253 m 1
 341 -165 l 1
 306 -165 l 1
 306 -49 l 1
 436 -49 l 1
 436 -154 l 1
 377 -253 l 1
 289 -253 l 1
EndSplineSet
EndChar

StartChar: R.ss04
Encoding: 65540 -1 135
Width: 709
GlyphClass: 2
Flags: MW
HStem: 0 21G<74 74 74 226 494 494 494 658> 261 126<226 349 349 356 226 349> 582 128<226 349 226 226>
VStem: 74 152<0 261 387 582> 476 155<452 516>
AnchorPoint: "Anchor-3" 342 710 basechar 0
AnchorPoint: "Anchor-0" 342 0 basechar 0
LayerCount: 2
Fore
SplineSet
74 0 m 1
 74 710 l 1
 358 710 l 2
 532 710 631 628 631 485 c 0
 631 394 587 319 499 288 c 1
 658 0 l 1
 494 0 l 1
 356 261 l 1
 226 261 l 1
 226 0 l 1
 74 0 l 1
226 387 m 1
 349 387 l 2
 426 387 476 420 476 484 c 0
 476 548 426 582 349 582 c 2
 226 582 l 1
 226 387 l 1
EndSplineSet
EndChar

StartChar: Racute.ss04
Encoding: 65541 -1 136
Width: 709
GlyphClass: 2
Flags: MW
HStem: 0 21G<74 74 74 226 494 494 494 658> 261 126<226 349 349 356 226 349> 582 128<226 349 226 226> 765 148<274 478 333 388>
VStem: 74 152<0 261 387 582> 476 155<452 516>
AnchorPoint: "Anchor-3" 342 710 basechar 0
AnchorPoint: "Anchor-0" 342 0 basechar 0
LayerCount: 2
Fore
SplineSet
274 765 m 1
 333 913 l 1
 478 913 l 1
 388 765 l 1
 274 765 l 1
74 0 m 1
 74 710 l 1
 358 710 l 2
 532 710 631 628 631 485 c 0
 631 394 587 319 499 288 c 1
 658 0 l 1
 494 0 l 1
 356 261 l 1
 226 261 l 1
 226 0 l 1
 74 0 l 1
226 387 m 1
 349 387 l 2
 426 387 476 420 476 484 c 0
 476 548 426 582 349 582 c 2
 226 582 l 1
 226 387 l 1
EndSplineSet
EndChar

StartChar: Rcaron.ss04
Encoding: 65542 -1 137
Width: 709
GlyphClass: 2
Flags: MW
HStem: 0 21G<74 74 74 226 494 494 494 658> 261 126<226 349 349 356 226 349> 582 128<226 349 226 226> 765 153<270 279 406 414 270 270>
VStem: 74 152<0 261 387 582> 476 155<452 516>
AnchorPoint: "Anchor-3" 342 710 basechar 0
AnchorPoint: "Anchor-0" 342 0 basechar 0
LayerCount: 2
Fore
SplineSet
174 918 m 1
 279 918 l 1
 342 829 l 1
 406 918 l 1
 510 918 l 1
 414 765 l 1
 270 765 l 1
 174 918 l 1
74 0 m 1
 74 710 l 1
 358 710 l 2
 532 710 631 628 631 485 c 0
 631 394 587 319 499 288 c 1
 658 0 l 1
 494 0 l 1
 356 261 l 1
 226 261 l 1
 226 0 l 1
 74 0 l 1
226 387 m 1
 349 387 l 2
 426 387 476 420 476 484 c 0
 476 548 426 582 349 582 c 2
 226 582 l 1
 226 387 l 1
EndSplineSet
EndChar

StartChar: uni0156.ss04
Encoding: 65543 -1 138
Width: 709
GlyphClass: 2
Flags: MW
HStem: -165 116<277 312 277 407> 0 21G<74 74 74 226 494 494 494 658> 261 126<226 349 349 356 226 349> 582 128<226 349 226 226>
VStem: 74 152<0 261 387 582> 277 130<-154 -49 -154 -49 -154 -49> 476 155<452 516>
AnchorPoint: "Anchor-3" 342 710 basechar 0
AnchorPoint: "Anchor-0" 342 -253 basechar 0
LayerCount: 2
Fore
SplineSet
74 0 m 1
 74 710 l 1
 358 710 l 2
 532 710 631 628 631 485 c 0
 631 394 587 319 499 288 c 1
 658 0 l 1
 494 0 l 1
 356 261 l 1
 226 261 l 1
 226 0 l 1
 74 0 l 1
226 387 m 1
 349 387 l 2
 426 387 476 420 476 484 c 0
 476 548 426 582 349 582 c 2
 226 582 l 1
 226 387 l 1
260 -253 m 1
 312 -165 l 1
 277 -165 l 1
 277 -49 l 1
 407 -49 l 1
 407 -154 l 1
 348 -253 l 1
 260 -253 l 1
EndSplineSet
EndChar

StartChar: I.ss05
Encoding: 65544 -1 139
Width: 472
GlyphClass: 2
Flags: MW
HStem: 0 128<42 160 42 160 312 430> 582 128<48 160 48 424 312 312 312 424>
VStem: 160 152<128 582 128 582>
AnchorPoint: "Anchor-3" 236 710 basechar 0
AnchorPoint: "Anchor-2" 430 0 basechar 0
AnchorPoint: "Anchor-0" 236 0 basechar 0
LayerCount: 2
Fore
SplineSet
42 0 m 1
 42 128 l 1
 160 128 l 1
 160 582 l 1
 48 582 l 1
 48 710 l 1
 424 710 l 1
 424 582 l 1
 312 582 l 1
 312 128 l 1
 430 128 l 1
 430 0 l 1
 42 0 l 1
EndSplineSet
EndChar

StartChar: Iacute.ss05
Encoding: 65545 -1 140
Width: 472
GlyphClass: 2
Flags: MW
HStem: 0 128<42 160 42 160 312 430> 582 128<48 160 48 424 312 312 312 424> 765 148<168 372 226 282>
VStem: 160 152<128 582 128 582>
AnchorPoint: "Anchor-3" 236 710 basechar 0
AnchorPoint: "Anchor-2" 430 0 basechar 0
AnchorPoint: "Anchor-0" 236 0 basechar 0
LayerCount: 2
Fore
SplineSet
168 765 m 1
 226 913 l 1
 372 913 l 1
 282 765 l 1
 168 765 l 1
42 0 m 1
 42 128 l 1
 160 128 l 1
 160 582 l 1
 48 582 l 1
 48 710 l 1
 424 710 l 1
 424 582 l 1
 312 582 l 1
 312 128 l 1
 430 128 l 1
 430 0 l 1
 42 0 l 1
EndSplineSet
EndChar

StartChar: Icircumflex.ss05
Encoding: 65546 -1 141
Width: 472
GlyphClass: 2
Flags: MW
HStem: 0 128<42 160 42 160 312 430> 582 128<48 160 48 424 312 312 312 424> 765 153<68 308 164 172 299 299 299 308 164 404>
VStem: 160 152<128 582 128 582>
AnchorPoint: "Anchor-3" 236 710 basechar 0
AnchorPoint: "Anchor-2" 430 0 basechar 0
AnchorPoint: "Anchor-0" 236 0 basechar 0
LayerCount: 2
Fore
SplineSet
68 765 m 1
 164 918 l 1
 308 918 l 1
 404 765 l 1
 299 765 l 1
 236 854 l 1
 172 765 l 1
 68 765 l 1
42 0 m 1
 42 128 l 1
 160 128 l 1
 160 582 l 1
 48 582 l 1
 48 710 l 1
 424 710 l 1
 424 582 l 1
 312 582 l 1
 312 128 l 1
 430 128 l 1
 430 0 l 1
 42 0 l 1
EndSplineSet
EndChar

StartChar: Idieresis.ss05
Encoding: 65547 -1 142
Width: 472
GlyphClass: 2
Flags: MW
HStem: 0 128<42 160 42 160 312 430> 582 128<48 160 48 424 312 312 312 424> 773 121<57 200 57 200 272 415 57 272>
VStem: 48 152<582 894 710 894> 57 143<773 894 773 894> 160 152<128 582 128 582> 272 143<773 894 773 894> 272 152<582 894>
AnchorPoint: "Anchor-3" 236 710 basechar 0
AnchorPoint: "Anchor-2" 430 0 basechar 0
AnchorPoint: "Anchor-0" 236 0 basechar 0
LayerCount: 2
Fore
SplineSet
57 773 m 1xea
 57 894 l 1
 200 894 l 1
 200 773 l 1
 57 773 l 1xea
272 773 m 1
 272 894 l 1
 415 894 l 1
 415 773 l 1
 272 773 l 1
42 0 m 1
 42 128 l 1
 160 128 l 1
 160 582 l 1xe4
 48 582 l 1
 48 710 l 1
 424 710 l 1
 424 582 l 1xf1
 312 582 l 1
 312 128 l 1xe4
 430 128 l 1
 430 0 l 1
 42 0 l 1
EndSplineSet
Substitution2: "'ss08' Style Set 8 in Latin lookup 41 subtable" Idieresis.ss05.ss08
Substitution2: "'aalt' Access All Alternates in Latin lookup 0 subtable" Idieresis.ss05.ss08
EndChar

StartChar: Idotaccent.ss05
Encoding: 65548 -1 143
Width: 472
GlyphClass: 2
Flags: MW
HStem: 0 128<42 160 42 160 312 430> 582 128<48 160 48 424 312 312 312 424> 776 120<158 313 158 313>
VStem: 158 155<776 896 776 896> 160 152<128 582 128 582>
AnchorPoint: "Anchor-3" 236 710 basechar 0
AnchorPoint: "Anchor-2" 430 0 basechar 0
AnchorPoint: "Anchor-0" 236 0 basechar 0
LayerCount: 2
Fore
SplineSet
158 776 m 1xf0
 158 896 l 1
 313 896 l 1
 313 776 l 1
 158 776 l 1xf0
42 0 m 1
 42 128 l 1
 160 128 l 1
 160 582 l 1
 48 582 l 1
 48 710 l 1
 424 710 l 1
 424 582 l 1
 312 582 l 1
 312 128 l 1xe8
 430 128 l 1
 430 0 l 1
 42 0 l 1
EndSplineSet
Substitution2: "'ss08' Style Set 8 in Latin lookup 41 subtable" Idotaccent.ss05.ss08
Substitution2: "'aalt' Access All Alternates in Latin lookup 0 subtable" Idotaccent.ss05.ss08
EndChar

StartChar: Igrave.ss05
Encoding: 65549 -1 144
Width: 472
GlyphClass: 2
Flags: MW
HStem: 0 128<42 160 42 160 312 430> 582 128<48 160 48 424 312 312 312 424> 772 147<188 188 188 244 98 302>
VStem: 160 152<128 582 128 582>
AnchorPoint: "Anchor-3" 236 710 basechar 0
AnchorPoint: "Anchor-2" 430 0 basechar 0
AnchorPoint: "Anchor-0" 236 0 basechar 0
LayerCount: 2
Fore
SplineSet
188 772 m 1
 98 919 l 1
 244 919 l 1
 302 772 l 1
 188 772 l 1
42 0 m 1
 42 128 l 1
 160 128 l 1
 160 582 l 1
 48 582 l 1
 48 710 l 1
 424 710 l 1
 424 582 l 1
 312 582 l 1
 312 128 l 1
 430 128 l 1
 430 0 l 1
 42 0 l 1
EndSplineSet
EndChar

StartChar: Imacron.ss05
Encoding: 65550 -1 145
Width: 472
GlyphClass: 2
Flags: MW
HStem: 0 128<42 160 42 160 312 430> 582 128<48 160 48 424 312 312 312 424> 781 110<86 385 86 385>
VStem: 86 299<781 891 781 891> 160 152<128 582 128 582>
AnchorPoint: "Anchor-3" 236 710 basechar 0
AnchorPoint: "Anchor-2" 430 0 basechar 0
AnchorPoint: "Anchor-0" 236 0 basechar 0
LayerCount: 2
Fore
SplineSet
86 781 m 1xf0
 86 891 l 1
 385 891 l 1
 385 781 l 1
 86 781 l 1xf0
42 0 m 1
 42 128 l 1
 160 128 l 1
 160 582 l 1
 48 582 l 1
 48 710 l 1
 424 710 l 1
 424 582 l 1
 312 582 l 1
 312 128 l 1xe8
 430 128 l 1
 430 0 l 1
 42 0 l 1
EndSplineSet
EndChar

StartChar: Iogonek.ss05
Encoding: 65551 -1 146
Width: 472
GlyphClass: 2
Flags: MW
HStem: -217 89<325 403> 0 128<42 160 42 160 42 312> 582 128<48 160 48 424 312 312 312 424>
VStem: 160 152<128 582> 247 121<-159.5 -94.5> 247 183<-159.5 128>
AnchorPoint: "Anchor-3" 236 710 basechar 0
AnchorPoint: "Anchor-2" 430 0 basechar 0
AnchorPoint: "Anchor-0" 236 0 basechar 0
LayerCount: 2
Fore
SplineSet
42 0 m 1xe8
 42 128 l 1
 160 128 l 1
 160 582 l 1
 48 582 l 1
 48 710 l 1
 424 710 l 1
 424 582 l 1
 312 582 l 1
 312 128 l 1x70
 430 128 l 1
 430 0 l 1x64
 400 -40 l 2
 380 -66 368 -86 368 -103 c 0
 368 -119 380 -128 394 -128 c 0
 412 -128 429 -122 439 -115 c 1
 467 -191 l 1
 449 -206 403 -217 361 -217 c 0
 289 -217 247 -187 247 -132 c 0
 247 -91 272 -52 297 -20 c 2
 312 0 l 1
 42 0 l 1xe8
EndSplineSet
EndChar

StartChar: Itilde.ss05
Encoding: 65552 -1 147
Width: 472
GlyphClass: 2
Flags: MW
HStem: 0 128<42 160 42 160 312 430> 582 128<48 160 48 424 312 312 312 424> 769 142<64 191 64 191> 774 89<288.5 305 288.5 328> 774 144<276.5 407> 822 89<167.5 184>
VStem: 48 91<582 769 710 769> 64 75<769 769> 160 152<128 582 128 582> 332 75<918 918>
AnchorPoint: "Anchor-3" 236 710 basechar 0
AnchorPoint: "Anchor-2" 430 0 basechar 0
AnchorPoint: "Anchor-0" 236 0 basechar 0
LayerCount: 2
Fore
SplineSet
292 774 m 0xc840
 261 774 241 782 216 804 c 0
 201 816 191 822 177 822 c 0xc5
 158 822 142 810 139 769 c 1
 64 769 l 1
 65 856 106 911 175 911 c 0xe1
 207 911 230 902 256 881 c 0
 272 869 282 863 295 863 c 0xd040
 315 863 329 875 332 918 c 1
 407 918 l 1
 405 830 364 774 292 774 c 0xc840
42 0 m 1
 42 128 l 1
 160 128 l 1
 160 582 l 1xc080
 48 582 l 1
 48 710 l 1xc2
 424 710 l 1
 424 582 l 1
 312 582 l 1
 312 128 l 1xc080
 430 128 l 1
 430 0 l 1
 42 0 l 1
EndSplineSet
EndChar

StartChar: G.ss06
Encoding: 65553 -1 148
Width: 728
GlyphClass: 2
Flags: MW
HStem: -16 128<317.5 428.5 317.5 476> 258 111<380 542 380 691> 598 128<318.5 429>
VStem: 42 157<283 423.5 283 459.5> 380 311<258 327 327 369 213.5 369> 542 149<258 258>
AnchorPoint: "Anchor-3" 381 710 basechar 0
AnchorPoint: "Anchor-0" 384 0 basechar 0
LayerCount: 2
Fore
SplineSet
381 -16 m 0xf4
 156 -16 42 143 42 354 c 0
 42 565 165 726 385 726 c 0
 557 726 661 631 689 477 c 1
 532 470 l 1
 518 548 476 598 382 598 c 0
 255 598 199 493 199 354 c 0
 199 212 257 112 378 112 c 0
 479 112 535 171 542 258 c 1xf4
 380 258 l 1
 380 369 l 1xf8
 691 369 l 1
 691 327 l 2
 691 100 571 -16 381 -16 c 0xf4
EndSplineSet
EndChar

StartChar: Gbreve.ss06
Encoding: 65554 -1 149
Width: 728
GlyphClass: 2
Flags: MW
HStem: -16 128<317.5 428.5 317.5 476> 258 111<380 542 380 691> 598 128<318.5 429> 766 82<361 401 361 427.5> 766 147<224 427.5>
VStem: 42 157<283 423.5 283 459.5> 380 311<258 327 327 369 213.5 369> 542 149<258 258>
AnchorPoint: "Anchor-3" 381 710 basechar 0
AnchorPoint: "Anchor-0" 384 0 basechar 0
LayerCount: 2
Fore
SplineSet
381 766 m 0xee
 288 766 228 819 224 913 c 1xed
 311 913 l 1
 316 867 341 848 381 848 c 0xf5
 421 848 446 867 451 913 c 1
 538 913 l 1
 534 819 474 766 381 766 c 0xee
381 -16 m 0
 156 -16 42 143 42 354 c 0
 42 565 165 726 385 726 c 0
 557 726 661 631 689 477 c 1
 532 470 l 1
 518 548 476 598 382 598 c 0
 255 598 199 493 199 354 c 0
 199 212 257 112 378 112 c 0
 479 112 535 171 542 258 c 1xf5
 380 258 l 1
 380 369 l 1xf6
 691 369 l 1
 691 327 l 2
 691 100 571 -16 381 -16 c 0
EndSplineSet
EndChar

StartChar: Gcircumflex.ss06
Encoding: 65555 -1 150
Width: 728
GlyphClass: 2
Flags: MW
HStem: -16 128<317.5 428.5 317.5 476> 258 111<380 542 380 691> 598 128<318.5 429> 765 153<213 453 309 318 445 445 445 453 309 549>
VStem: 42 157<283 423.5 283 459.5> 380 311<258 327 327 369 213.5 369> 542 149<258 258>
AnchorPoint: "Anchor-3" 381 710 basechar 0
AnchorPoint: "Anchor-0" 384 0 basechar 0
LayerCount: 2
Fore
SplineSet
213 765 m 1xfa
 309 918 l 1
 453 918 l 1
 549 765 l 1
 445 765 l 1
 381 854 l 1
 318 765 l 1
 213 765 l 1xfa
381 -16 m 0
 156 -16 42 143 42 354 c 0
 42 565 165 726 385 726 c 0
 557 726 661 631 689 477 c 1
 532 470 l 1
 518 548 476 598 382 598 c 0
 255 598 199 493 199 354 c 0
 199 212 257 112 378 112 c 0
 479 112 535 171 542 258 c 1xfa
 380 258 l 1
 380 369 l 1xfc
 691 369 l 1
 691 327 l 2
 691 100 571 -16 381 -16 c 0
EndSplineSet
EndChar

StartChar: uni0122.ss06
Encoding: 65556 -1 151
Width: 728
GlyphClass: 2
Flags: MW
HStem: -165 116<319 354 319 449> -16 128<317.5 428.5 317.5 476> 258 111<380 542 380 691> 598 128<318.5 429>
VStem: 42 157<283 423.5 283 459.5> 319 130<-154 -49 -154 -49 -154 -49> 380 311<258 327 327 369 213.5 369> 542 149<258 258>
AnchorPoint: "Anchor-3" 381 710 basechar 0
AnchorPoint: "Anchor-0" 384 -253 basechar 0
LayerCount: 2
Fore
SplineSet
381 -16 m 0xfd
 156 -16 42 143 42 354 c 0
 42 565 165 726 385 726 c 0
 557 726 661 631 689 477 c 1
 532 470 l 1
 518 548 476 598 382 598 c 0
 255 598 199 493 199 354 c 0
 199 212 257 112 378 112 c 0
 479 112 535 171 542 258 c 1xfd
 380 258 l 1
 380 369 l 1xfa
 691 369 l 1
 691 327 l 2
 691 100 571 -16 381 -16 c 0xfd
302 -253 m 1
 354 -165 l 1
 319 -165 l 1
 319 -49 l 1
 449 -49 l 1
 449 -154 l 1
 390 -253 l 1
 302 -253 l 1
EndSplineSet
EndChar

StartChar: Gdotaccent.ss06
Encoding: 65557 -1 152
Width: 728
GlyphClass: 2
Flags: MW
HStem: -16 128<317.5 428.5 317.5 476> 258 111<380 542 380 691> 598 128<318.5 429> 776 120<304 459 304 459>
VStem: 42 157<283 423.5 283 459.5> 304 155<776 896 776 896> 380 311<258 327 327 369 213.5 369> 542 149<258 258>
AnchorPoint: "Anchor-3" 381 710 basechar 0
AnchorPoint: "Anchor-0" 384 0 basechar 0
LayerCount: 2
Fore
SplineSet
304 776 m 1xfd
 304 896 l 1
 459 896 l 1
 459 776 l 1
 304 776 l 1xfd
381 -16 m 0
 156 -16 42 143 42 354 c 0
 42 565 165 726 385 726 c 0
 557 726 661 631 689 477 c 1
 532 470 l 1
 518 548 476 598 382 598 c 0
 255 598 199 493 199 354 c 0
 199 212 257 112 378 112 c 0
 479 112 535 171 542 258 c 1xfd
 380 258 l 1
 380 369 l 1xfa
 691 369 l 1
 691 327 l 2
 691 100 571 -16 381 -16 c 0
EndSplineSet
Substitution2: "'ss08' Style Set 8 in Latin lookup 41 subtable" Gdotaccent.ss06.ss08
Substitution2: "'aalt' Access All Alternates in Latin lookup 0 subtable" Gdotaccent.ss06.ss08
EndChar

StartChar: uni1E20.ss06
Encoding: 65558 -1 153
Width: 728
GlyphClass: 2
Flags: MW
HStem: -16 128<317.5 428.5 317.5 476> 258 111<380 542 380 691> 598 128<318.5 429> 781 110<232 531 232 531>
VStem: 42 157<283 423.5 283 459.5> 232 299<781 891 781 891> 380 311<258 327 327 369 213.5 369> 542 149<258 258>
AnchorPoint: "Anchor-3" 381 710 basechar 0
AnchorPoint: "Anchor-0" 384 0 basechar 0
LayerCount: 2
Fore
SplineSet
232 781 m 1xfc
 232 891 l 1
 531 891 l 1
 531 781 l 1
 232 781 l 1xfc
381 -16 m 0
 156 -16 42 143 42 354 c 0
 42 565 165 726 385 726 c 0
 557 726 661 631 689 477 c 1
 532 470 l 1
 518 548 476 598 382 598 c 0
 255 598 199 493 199 354 c 0
 199 212 257 112 378 112 c 0
 479 112 535 171 542 258 c 1xf9
 380 258 l 1
 380 369 l 1xfa
 691 369 l 1
 691 327 l 2xf9
 691 100 571 -16 381 -16 c 0
EndSplineSet
EndChar

StartChar: Adieresis.ss08
Encoding: 65559 -1 154
Width: 730
GlyphClass: 2
Flags: MW
HStem: 0 21G<19 19 19 176 553 553 553 711> 151 125<271 459 271 501 228 459> 690 20G<275 455 455 455> 765 143<237.5 282.5 447.5 492.5>
VStem: 187 146<814 858> 397 146<814 858>
AnchorPoint: "Anchor-3" 365 710 basechar 0
AnchorPoint: "Anchor-2" 711 0 basechar 0
AnchorPoint: "Anchor-0" 365 0 basechar 0
LayerCount: 2
Fore
SplineSet
260 765 m 0
 215 765 187 792 187 836 c 0
 187 880 215 908 260 908 c 0
 305 908 333 880 333 836 c 0
 333 792 305 765 260 765 c 0
470 765 m 0
 425 765 397 792 397 836 c 0
 397 880 425 908 470 908 c 0
 515 908 543 880 543 836 c 0
 543 792 515 765 470 765 c 0
19 0 m 1
 275 710 l 1
 455 710 l 1
 711 0 l 1
 553 0 l 1
 501 151 l 1
 228 151 l 1
 176 0 l 1
 19 0 l 1
271 276 m 1
 459 276 l 1
 365 550 l 1
 271 276 l 1
EndSplineSet
EndChar

StartChar: Cdotaccent.ss08
Encoding: 65560 -1 155
Width: 734
GlyphClass: 2
Flags: MW
HStem: -16 128<322.5 424.5 322.5 467.5> 598 128<321.5 422> 765 143<355 399.5>
VStem: 42 157<279 428 279 467> 302 151<814 858>
AnchorPoint: "Anchor-3" 377 710 basechar 0
AnchorPoint: "Anchor-0" 379 0 basechar 0
LayerCount: 2
Fore
SplineSet
377 765 m 0
 333 765 302 792 302 836 c 0
 302 880 333 908 377 908 c 0
 422 908 453 880 453 836 c 0
 453 792 422 765 377 765 c 0
375 -16 m 0
 181 -16 42 122 42 354 c 0
 42 580 173 726 378 726 c 0
 564 726 664 631 694 462 c 1
 536 456 l 1
 520 545 466 598 378 598 c 0
 265 598 199 502 199 354 c 0
 199 204 268 112 377 112 c 0
 472 112 524 169 538 265 c 1
 697 259 l 1
 668 86 560 -16 375 -16 c 0
EndSplineSet
EndChar

StartChar: Edieresis.ss08
Encoding: 65561 -1 156
Width: 622
GlyphClass: 2
Flags: MW
HStem: 0 128<226 576 226 576> 293 126<226 556 226 556> 582 128<226 568 226 226> 765 143<194.5 239.5 404.5 449.5>
VStem: 74 152<128 293 419 582> 144 146<814 858> 354 146<814 858>
AnchorPoint: "Anchor-3" 322 710 basechar 0
AnchorPoint: "Anchor-2" 576 0 basechar 0
AnchorPoint: "Anchor-0" 323 0 basechar 0
LayerCount: 2
Fore
SplineSet
217 765 m 0xf6
 172 765 144 792 144 836 c 0
 144 880 172 908 217 908 c 0
 262 908 290 880 290 836 c 0
 290 792 262 765 217 765 c 0xf6
427 765 m 0
 382 765 354 792 354 836 c 0
 354 880 382 908 427 908 c 0
 472 908 500 880 500 836 c 0
 500 792 472 765 427 765 c 0
74 0 m 1xe8
 74 710 l 1
 568 710 l 1
 568 582 l 1
 226 582 l 1
 226 419 l 1
 556 419 l 1
 556 293 l 1
 226 293 l 1
 226 128 l 1
 576 128 l 1
 576 0 l 1
 74 0 l 1xe8
EndSplineSet
EndChar

StartChar: Edotaccent.ss08
Encoding: 65562 -1 157
Width: 622
GlyphClass: 2
Flags: MW
HStem: 0 128<226 576 226 576> 293 126<226 556 226 556> 582 128<226 568 226 226> 765 143<299.5 344.5>
VStem: 74 152<128 293 419 582> 247 151<814 858>
AnchorPoint: "Anchor-3" 322 710 basechar 0
AnchorPoint: "Anchor-2" 576 0 basechar 0
AnchorPoint: "Anchor-0" 323 0 basechar 0
LayerCount: 2
Fore
SplineSet
322 765 m 0
 277 765 247 792 247 836 c 0
 247 880 277 908 322 908 c 0
 367 908 398 880 398 836 c 0
 398 792 367 765 322 765 c 0
74 0 m 1xe8
 74 710 l 1
 568 710 l 1
 568 582 l 1
 226 582 l 1
 226 419 l 1
 556 419 l 1
 556 293 l 1
 226 293 l 1
 226 128 l 1
 576 128 l 1
 576 0 l 1
 74 0 l 1xe8
EndSplineSet
EndChar

StartChar: Gdotaccent.ss08
Encoding: 65563 -1 158
Width: 738
GlyphClass: 2
Flags: MW
HStem: -16 128<319 420> 0 21G<597 691 597 597> 258 111<380 542 380 691> 598 128<319 426.5> 765 143<358.5 403>
VStem: 42 157<283 423.5 283 461> 305 151<814 858> 594.5 96.5
AnchorPoint: "Anchor-3" 380 710 basechar 0
AnchorPoint: "Anchor-0" 383 0 basechar 0
LayerCount: 2
Fore
SplineSet
381 765 m 0xbf
 336 765 305 792 305 836 c 0
 305 880 336 908 381 908 c 0
 425 908 456 880 456 836 c 0
 456 792 425 765 381 765 c 0xbf
370 -16 m 0
 165 -16 42 135 42 354 c 0
 42 568 167 726 379 726 c 0
 563 726 658 628 689 477 c 1
 532 470 l 1
 517 549 473 598 380 598 c 0
 258 598 199 493 199 354 c 0
 199 212 255 112 383 112 c 0xb5
 477 112 535 173 542 258 c 1
 380 258 l 1
 380 369 l 1
 691 369 l 1
 691 0 l 1
 597 0 l 1x75
 592 101 l 1
 555 30 470 -16 370 -16 c 0
EndSplineSet
EndChar

StartChar: Idieresis.ss08
Encoding: 65564 -1 159
Width: 300
GlyphClass: 2
Flags: MW
HStem: 0 21G<74 74 74 226> 690 20G<74 226 226 226> 765 143<22.5 67.5 232.5 277.5>
VStem: -28 146<814 858> 74 152<0 710 0 710> 182 146<814 858>
AnchorPoint: "Anchor-3" 150 710 basechar 0
AnchorPoint: "Anchor-2" 226 0 basechar 0
AnchorPoint: "Anchor-0" 150 0 basechar 0
LayerCount: 2
Fore
SplineSet
45 765 m 0xf4
 0 765 -28 792 -28 836 c 0
 -28 880 0 908 45 908 c 0
 90 908 118 880 118 836 c 0
 118 792 90 765 45 765 c 0xf4
255 765 m 0
 210 765 182 792 182 836 c 0
 182 880 210 908 255 908 c 0
 300 908 328 880 328 836 c 0
 328 792 300 765 255 765 c 0
74 0 m 1xe8
 74 710 l 1
 226 710 l 1
 226 0 l 1
 74 0 l 1xe8
EndSplineSet
EndChar

StartChar: Idotaccent.ss08
Encoding: 65565 -1 160
Width: 300
GlyphClass: 2
Flags: MW
HStem: 0 21G<74 74 74 226> 690 20G<74 226 226 226> 765 143<128 172.5>
VStem: 74 152<0 710 0 710>
AnchorPoint: "Anchor-3" 150 710 basechar 0
AnchorPoint: "Anchor-2" 226 0 basechar 0
AnchorPoint: "Anchor-0" 150 0 basechar 0
LayerCount: 2
Fore
SplineSet
150 765 m 0
 106 765 75 792 75 836 c 0
 75 880 106 908 150 908 c 0
 195 908 226 880 226 836 c 0
 226 792 195 765 150 765 c 0
74 0 m 1
 74 710 l 1
 226 710 l 1
 226 0 l 1
 74 0 l 1
EndSplineSet
EndChar

StartChar: Odieresis.ss08
Encoding: 65566 -1 161
Width: 776
GlyphClass: 2
Flags: MW
HStem: -16 128<328.5 447 328.5 496> 598 128<328.5 447> 765 143<260.5 305 470.5 515>
VStem: 42 157<277 431 277 468.5> 209 147<814 858> 419 147<814 858> 577 157<277 431>
AnchorPoint: "Anchor-3" 388 710 basechar 0
AnchorPoint: "Anchor-1" 388 355 basechar 0
AnchorPoint: "Anchor-0" 388 0 basechar 0
LayerCount: 2
Fore
SplineSet
283 765 m 0
 238 765 209 792 209 836 c 0
 209 880 238 908 283 908 c 0
 327 908 356 880 356 836 c 0
 356 792 327 765 283 765 c 0
493 765 m 0
 448 765 419 792 419 836 c 0
 419 880 448 908 493 908 c 0
 537 908 566 880 566 836 c 0
 566 792 537 765 493 765 c 0
388 -16 m 0
 172 -16 42 125 42 354 c 0
 42 583 172 726 388 726 c 0
 604 726 734 583 734 354 c 0xf2
 734 125 604 -16 388 -16 c 0
388 112 m 0
 506 112 577 200 577 354 c 0
 577 508 506 598 388 598 c 0
 269 598 199 508 199 354 c 0
 199 200 269 112 388 112 c 0
EndSplineSet
EndChar

StartChar: Udieresis.ss08
Encoding: 65567 -1 162
Width: 703
GlyphClass: 2
Flags: MW
HStem: -16 128<306.5 397 306.5 441.5> 691 20G<59 211 211 211 492 644 644 644> 765 143<224.5 269 434.5 479>
VStem: 59 152<256 711> 173 147<814 858> 383 147<814 858> 492 152<256 711>
AnchorPoint: "Anchor-3" 352 710 basechar 0
AnchorPoint: "Anchor-2" 467 1 basechar 0
AnchorPoint: "Anchor-0" 352 0 basechar 0
LayerCount: 2
Fore
SplineSet
247 765 m 0xec
 202 765 173 792 173 836 c 0
 173 880 202 908 247 908 c 0
 291 908 320 880 320 836 c 0
 320 792 291 765 247 765 c 0xec
457 765 m 0
 412 765 383 792 383 836 c 0
 383 880 412 908 457 908 c 0
 501 908 530 880 530 836 c 0
 530 792 501 765 457 765 c 0
352 -16 m 0
 172 -16 59 90 59 256 c 2
 59 711 l 1
 211 711 l 1
 211 256 l 2
 211 164 261 112 352 112 c 0
 442 112 492 164 492 256 c 2
 492 711 l 1
 644 711 l 1
 644 256 l 2xf2
 644 90 531 -16 352 -16 c 0
EndSplineSet
EndChar

StartChar: Wdieresis.ss08
Encoding: 65568 -1 163
Width: 1015
GlyphClass: 2
Flags: MW
HStem: 0 21G<229 229 229 391 623 623 623 787> 690 20G<37 196 196 196 441 574 574 574 819 978 978 978> 765 143<380 424.5 590 634.5>
VStem: 329 147<814 858> 539 147<814 858>
AnchorPoint: "Anchor-3" 507 710 basechar 0
AnchorPoint: "Anchor-0" 507 0 basechar 0
LayerCount: 2
Fore
SplineSet
402 765 m 0
 358 765 329 792 329 836 c 0
 329 880 358 908 402 908 c 0
 447 908 476 880 476 836 c 0
 476 792 447 765 402 765 c 0
612 765 m 0
 568 765 539 792 539 836 c 0
 539 880 568 908 612 908 c 0
 657 908 686 880 686 836 c 0
 686 792 657 765 612 765 c 0
229 0 m 1
 37 710 l 1
 196 710 l 1
 318 210 l 1
 441 710 l 1
 574 710 l 1
 698 210 l 1
 819 710 l 1
 978 710 l 1
 787 0 l 1
 623 0 l 1
 507 454 l 1
 391 0 l 1
 229 0 l 1
EndSplineSet
EndChar

StartChar: Ydieresis.ss08
Encoding: 65569 -1 164
Width: 631
GlyphClass: 2
Flags: MW
HStem: 0 21G<240 240 240 392> 690 20G<-7 161 161 161 470 638 638 638> 765 143<188.5 233.5 398.5 443.5>
VStem: 138 146<814 858> 240 152<0 276 0 276> 348 146<814 858>
AnchorPoint: "Anchor-3" 316 710 basechar 0
AnchorPoint: "Anchor-0" 316 0 basechar 0
LayerCount: 2
Fore
SplineSet
211 765 m 0xf4
 166 765 138 792 138 836 c 0
 138 880 166 908 211 908 c 0
 256 908 284 880 284 836 c 0
 284 792 256 765 211 765 c 0xf4
421 765 m 0
 376 765 348 792 348 836 c 0
 348 880 376 908 421 908 c 0
 466 908 494 880 494 836 c 0
 494 792 466 765 421 765 c 0
240 0 m 1xe8
 240 276 l 1
 -7 710 l 1
 161 710 l 1
 316 424 l 1
 470 710 l 1
 638 710 l 1
 392 276 l 1
 392 0 l 1
 240 0 l 1xe8
EndSplineSet
EndChar

StartChar: Zdotaccent.ss08
Encoding: 65570 -1 165
Width: 594
GlyphClass: 2
Flags: MW
HStem: 0 128<209 567 209 567> 582 128<43 365 43 554> 765 143<283.5 328.5>
VStem: 231 151<814 858>
AnchorPoint: "Anchor-3" 306 710 basechar 0
AnchorPoint: "Anchor-0" 306 0 basechar 0
LayerCount: 2
Fore
SplineSet
306 765 m 0
 261 765 231 792 231 836 c 0
 231 880 261 908 306 908 c 0
 351 908 382 880 382 836 c 0
 382 792 351 765 306 765 c 0
27 0 m 1
 27 124 l 1
 365 582 l 1
 43 582 l 1
 43 710 l 1
 554 710 l 1
 554 586 l 1
 209 128 l 1
 567 128 l 1
 567 0 l 1
 27 0 l 1
EndSplineSet
EndChar

StartChar: Idieresis.ss05.ss08
Encoding: 65571 -1 166
Width: 472
GlyphClass: 2
Flags: MW
HStem: 0 128<42 160 42 160 312 430> 582 128<48 160 48 424 312 312 312 424> 765 143<108.5 153.5 318.5 363.5>
VStem: 58 146<814 858> 160 152<128 582 128 582> 268 146<814 858>
AnchorPoint: "Anchor-3" 236 710 basechar 0
AnchorPoint: "Anchor-2" 430 0 basechar 0
AnchorPoint: "Anchor-0" 236 0 basechar 0
LayerCount: 2
Fore
SplineSet
131 765 m 0xf4
 86 765 58 792 58 836 c 0
 58 880 86 908 131 908 c 0
 176 908 204 880 204 836 c 0
 204 792 176 765 131 765 c 0xf4
341 765 m 0
 296 765 268 792 268 836 c 0
 268 880 296 908 341 908 c 0
 386 908 414 880 414 836 c 0
 414 792 386 765 341 765 c 0
42 0 m 1
 42 128 l 1
 160 128 l 1
 160 582 l 1
 48 582 l 1
 48 710 l 1
 424 710 l 1
 424 582 l 1
 312 582 l 1
 312 128 l 1xc8
 430 128 l 1
 430 0 l 1
 42 0 l 1
EndSplineSet
EndChar

StartChar: Idotaccent.ss05.ss08
Encoding: 65572 -1 167
Width: 472
GlyphClass: 2
Flags: MW
HStem: 0 128<42 160 42 160 312 430> 582 128<48 160 48 424 312 312 312 424> 765 143<213.5 258.5>
VStem: 160 152<128 582 128 582> 161 151<814 858>
AnchorPoint: "Anchor-3" 236 710 basechar 0
AnchorPoint: "Anchor-2" 430 0 basechar 0
AnchorPoint: "Anchor-0" 236 0 basechar 0
LayerCount: 2
Fore
SplineSet
236 765 m 0xe8
 191 765 161 792 161 836 c 0
 161 880 191 908 236 908 c 0
 281 908 312 880 312 836 c 0
 312 792 281 765 236 765 c 0xe8
42 0 m 1
 42 128 l 1
 160 128 l 1
 160 582 l 1
 48 582 l 1
 48 710 l 1
 424 710 l 1
 424 582 l 1
 312 582 l 1
 312 128 l 1xd0
 430 128 l 1
 430 0 l 1
 42 0 l 1
EndSplineSet
EndChar

StartChar: Gdotaccent.ss06.ss08
Encoding: 65573 -1 168
Width: 728
GlyphClass: 2
Flags: MW
HStem: -16 128<317.5 428.5 317.5 476> 258 111<380 542 380 691> 598 128<318.5 429> 765 143<359.5 404>
VStem: 42 157<283 423.5 283 459.5> 306 151<814 858> 380 311<258 327 327 369 213.5 369> 542 149<258 258>
AnchorPoint: "Anchor-3" 381 710 basechar 0
AnchorPoint: "Anchor-0" 384 0 basechar 0
LayerCount: 2
Fore
SplineSet
382 765 m 0xfd
 337 765 306 792 306 836 c 0
 306 880 337 908 382 908 c 0
 426 908 457 880 457 836 c 0
 457 792 426 765 382 765 c 0xfd
381 -16 m 0
 156 -16 42 143 42 354 c 0
 42 565 165 726 385 726 c 0
 557 726 661 631 689 477 c 1
 532 470 l 1
 518 548 476 598 382 598 c 0
 255 598 199 493 199 354 c 0
 199 212 257 112 378 112 c 0
 479 112 535 171 542 258 c 1xed
 380 258 l 1
 380 369 l 1xea
 691 369 l 1
 691 327 l 2
 691 100 571 -16 381 -16 c 0
EndSplineSet
EndChar

StartChar: A_I.dlig
Encoding: 65574 -1 169
Width: 1202
GlyphClass: 3
Flags: MW
HStem: 0 128<553 890 772 890 1042 1160 772 890> 151 125<271 459 271 501 228 459> 582 128<778 890 1042 1042 1042 1154>
VStem: 890 152<128 582 128 582>
AnchorPoint: "Anchor-8" 365 710 baselig 0
AnchorPoint: "Anchor-7" 711 0 baselig 0
AnchorPoint: "Anchor-5" 365 0 baselig 0
AnchorPoint: "Anchor-8" 966 710 baselig 1
AnchorPoint: "Anchor-5" 966 0 baselig 1
AnchorPoint: "Anchor-7" 1160 0 baselig 1
LayerCount: 2
Fore
SplineSet
19 0 m 1
 275 710 l 1
 455 710 l 1
 711 0 l 1
 553 0 l 1xb0
 501 151 l 1
 228 151 l 1x70
 176 0 l 1
 19 0 l 1
772 0 m 1
 772 128 l 1
 890 128 l 1
 890 582 l 1
 778 582 l 1
 778 710 l 1
 1154 710 l 1
 1154 582 l 1
 1042 582 l 1
 1042 128 l 1
 1160 128 l 1
 1160 0 l 1
 772 0 l 1
271 276 m 1x70
 459 276 l 1
 365 550 l 1
 271 276 l 1x70
EndSplineSet
Ligature2: "'dlig' Discretionary Ligatures in Latin lookup 32 subtable" A I
EndChar

StartChar: U_I.dlig
Encoding: 65575 -1 170
Width: 1176
GlyphClass: 3
Flags: MW
HStem: -16 128<306.5 397 306.5 441.5> 0 128<745 863 745 863 1016 1134> 582 128<751 863 751 1128 1016 1016 1016 1128>
VStem: 59 152<256 711> 492 152<256 711> 863 153<128 582 128 582>
AnchorPoint: "Anchor-8" 352 710 baselig 0
AnchorPoint: "Anchor-7" 467 1 baselig 0
AnchorPoint: "Anchor-5" 352 0 baselig 0
AnchorPoint: "Anchor-8" 939 710 baselig 1
AnchorPoint: "Anchor-5" 939 0 baselig 1
AnchorPoint: "Anchor-7" 1134 0 baselig 1
LayerCount: 2
Fore
SplineSet
352 -16 m 0xbc
 172 -16 59 90 59 256 c 2
 59 711 l 1
 211 711 l 1
 211 256 l 2
 211 164 261 112 352 112 c 0
 442 112 492 164 492 256 c 2
 492 711 l 1
 644 711 l 1
 644 256 l 2
 644 90 531 -16 352 -16 c 0xbc
745 0 m 1x7c
 745 128 l 1
 863 128 l 1
 863 582 l 1
 751 582 l 1
 751 710 l 1
 1128 710 l 1
 1128 582 l 1
 1016 582 l 1
 1016 128 l 1
 1134 128 l 1
 1134 0 l 1
 745 0 l 1x7c
EndSplineSet
Ligature2: "'dlig' Discretionary Ligatures in Latin lookup 32 subtable" U I
EndChar

StartChar: a
Encoding: 97 97 171
Width: 594
GlyphClass: 2
Flags: MW
HStem: -12 103<238 271> -6 21G<500 538> -6 109<500 581> 439 109<266.5 324.5>
VStem: 37 154<130 165.5 130 181> 386 150<214 240 240 240>
AnchorPoint: "Anchor-3" 297 536 basechar 0
AnchorPoint: "Anchor-2" 581 0 basechar 0
AnchorPoint: "Anchor-0" 292 0 basechar 0
LayerCount: 2
Fore
SplineSet
225 -12 m 0x94
 113 -12 37 42 37 134 c 0
 37 228 96 276 213 300 c 2
 386 334 l 1
 386 404 354 439 295 439 c 0
 238 439 207 412 197 362 c 1
 46 369 l 1
 66 487 155 548 295 548 c 0
 455 548 536 470 536 324 c 2
 536 141 l 2
 536 111 546 103 566 103 c 2
 581 103 l 1x3c
 581 0 l 1
 572 -3 548 -6 528 -6 c 0x54
 472 -6 423 14 410 82 c 1
 383 25 317 -12 225 -12 c 0x94
261 91 m 0
 336 91 386 137 386 214 c 2
 386 240 l 1
 264 214 l 2
 215 204 191 183 191 148 c 0x9c
 191 112 215 91 261 91 c 0
EndSplineSet
Substitution2: "'ss02' Style Set 2 in Latin lookup 35 subtable" a.ss02
Substitution2: "'ss01' Style Set 1 in Latin lookup 34 subtable" a.ss01
Substitution2: "Single Substitution lookup 27 subtable" ordfeminine
AlternateSubs2: "'aalt' Access All Alternates in Latin lookup 1 subtable" ordfeminine a.ss01 a.ss02
EndChar

StartChar: aacute
Encoding: 225 225 172
Width: 594
GlyphClass: 2
Flags: MW
HStem: -12 103<238 271> -6 21G<500 538> -6 109<500 581> 439 109<266.5 324.5> 591 148<228 433 287 343>
VStem: 37 154<130 165.5 130 181> 386 150<214 240 240 240>
AnchorPoint: "Anchor-3" 297 536 basechar 0
AnchorPoint: "Anchor-2" 581 0 basechar 0
AnchorPoint: "Anchor-0" 292 0 basechar 0
LayerCount: 2
Fore
SplineSet
228 591 m 1x9a
 287 739 l 1
 433 739 l 1
 343 591 l 1
 228 591 l 1x9a
225 -12 m 0
 113 -12 37 42 37 134 c 0
 37 228 96 276 213 300 c 2
 386 334 l 1
 386 404 354 439 295 439 c 0
 238 439 207 412 197 362 c 1
 46 369 l 1
 66 487 155 548 295 548 c 0
 455 548 536 470 536 324 c 2
 536 141 l 2
 536 111 546 103 566 103 c 2
 581 103 l 1x3e
 581 0 l 1
 572 -3 548 -6 528 -6 c 0x5a
 472 -6 423 14 410 82 c 1
 383 25 317 -12 225 -12 c 0
261 91 m 0
 336 91 386 137 386 214 c 2
 386 240 l 1
 264 214 l 2
 215 204 191 183 191 148 c 0x9e
 191 112 215 91 261 91 c 0
EndSplineSet
Substitution2: "'ss02' Style Set 2 in Latin lookup 35 subtable" aacute.ss02
Substitution2: "'ss01' Style Set 1 in Latin lookup 34 subtable" aacute.ss01
AlternateSubs2: "'aalt' Access All Alternates in Latin lookup 1 subtable" aacute.ss01 aacute.ss02
EndChar

StartChar: abreve
Encoding: 259 259 173
Width: 594
GlyphClass: 2
Flags: MW
HStem: -12 103<238 271> -6 21G<500 538> -6 109<500 581> 439 109<266.5 324.5> 592 82<277 317 277 343> 592 147<140 343>
VStem: 37 154<130 165.5 130 181> 386 150<214 240 240 240>
AnchorPoint: "Anchor-3" 297 536 basechar 0
AnchorPoint: "Anchor-2" 581 0 basechar 0
AnchorPoint: "Anchor-0" 292 0 basechar 0
LayerCount: 2
Fore
SplineSet
297 592 m 0x95
 204 592 144 645 140 739 c 1x95
 227 739 l 1
 231 693 257 674 297 674 c 0x9b
 337 674 361 693 366 739 c 1
 453 739 l 1
 449 645 389 592 297 592 c 0x95
225 -12 m 0
 113 -12 37 42 37 134 c 0
 37 228 96 276 213 300 c 2
 386 334 l 1
 386 404 354 439 295 439 c 0
 238 439 207 412 197 362 c 1
 46 369 l 1
 66 487 155 548 295 548 c 0
 455 548 536 470 536 324 c 2
 536 141 l 2
 536 111 546 103 566 103 c 2
 581 103 l 1x3b
 581 0 l 1
 572 -3 548 -6 528 -6 c 0x59
 472 -6 423 14 410 82 c 1
 383 25 317 -12 225 -12 c 0
261 91 m 0
 336 91 386 137 386 214 c 2
 386 240 l 1
 264 214 l 2
 215 204 191 183 191 148 c 0x9b
 191 112 215 91 261 91 c 0
EndSplineSet
Substitution2: "'ss02' Style Set 2 in Latin lookup 35 subtable" abreve.ss02
Substitution2: "'ss01' Style Set 1 in Latin lookup 34 subtable" abreve.ss01
AlternateSubs2: "'aalt' Access All Alternates in Latin lookup 1 subtable" abreve.ss01 abreve.ss02
EndChar

StartChar: uni01CE
Encoding: 462 462 174
Width: 594
GlyphClass: 2
Flags: MW
HStem: -12 103<238 271> -6 21G<500 538> -6 109<500 581> 439 109<266.5 324.5> 591 153<224 233 360 369 224 224>
VStem: 37 154<130 165.5 130 181> 386 150<214 240 240 240>
AnchorPoint: "Anchor-3" 297 536 basechar 0
AnchorPoint: "Anchor-2" 581 0 basechar 0
AnchorPoint: "Anchor-0" 292 0 basechar 0
LayerCount: 2
Fore
SplineSet
128 744 m 1x9a
 233 744 l 1
 297 655 l 1
 360 744 l 1
 465 744 l 1
 369 591 l 1
 224 591 l 1
 128 744 l 1x9a
225 -12 m 0
 113 -12 37 42 37 134 c 0
 37 228 96 276 213 300 c 2
 386 334 l 1
 386 404 354 439 295 439 c 0
 238 439 207 412 197 362 c 1
 46 369 l 1
 66 487 155 548 295 548 c 0
 455 548 536 470 536 324 c 2
 536 141 l 2
 536 111 546 103 566 103 c 2
 581 103 l 1x3e
 581 0 l 1
 572 -3 548 -6 528 -6 c 0x5a
 472 -6 423 14 410 82 c 1
 383 25 317 -12 225 -12 c 0
261 91 m 0
 336 91 386 137 386 214 c 2
 386 240 l 1
 264 214 l 2
 215 204 191 183 191 148 c 0x9e
 191 112 215 91 261 91 c 0
EndSplineSet
Substitution2: "'ss02' Style Set 2 in Latin lookup 35 subtable" uni01CE.ss02
Substitution2: "'ss01' Style Set 1 in Latin lookup 34 subtable" uni01CE.ss01
AlternateSubs2: "'aalt' Access All Alternates in Latin lookup 1 subtable" uni01CE.ss01 uni01CE.ss02
EndChar

StartChar: acircumflex
Encoding: 226 226 175
Width: 594
GlyphClass: 2
Flags: MW
HStem: -12 103<238 271> -6 21G<500 538> -6 109<500 581> 439 109<266.5 324.5> 591 153<128 369 224 233 360 360 360 369 224 465>
VStem: 37 154<130 165.5 130 181> 386 150<214 240 240 240>
AnchorPoint: "Anchor-3" 297 536 basechar 0
AnchorPoint: "Anchor-2" 581 0 basechar 0
AnchorPoint: "Anchor-0" 292 0 basechar 0
LayerCount: 2
Fore
SplineSet
128 591 m 1x9a
 224 744 l 1
 369 744 l 1
 465 591 l 1
 360 591 l 1
 297 680 l 1
 233 591 l 1
 128 591 l 1x9a
225 -12 m 0
 113 -12 37 42 37 134 c 0
 37 228 96 276 213 300 c 2
 386 334 l 1
 386 404 354 439 295 439 c 0
 238 439 207 412 197 362 c 1
 46 369 l 1
 66 487 155 548 295 548 c 0
 455 548 536 470 536 324 c 2
 536 141 l 2
 536 111 546 103 566 103 c 2
 581 103 l 1x3e
 581 0 l 1
 572 -3 548 -6 528 -6 c 0x5a
 472 -6 423 14 410 82 c 1
 383 25 317 -12 225 -12 c 0
261 91 m 0
 336 91 386 137 386 214 c 2
 386 240 l 1
 264 214 l 2
 215 204 191 183 191 148 c 0x9e
 191 112 215 91 261 91 c 0
EndSplineSet
Substitution2: "'ss02' Style Set 2 in Latin lookup 35 subtable" acircumflex.ss02
Substitution2: "'ss01' Style Set 1 in Latin lookup 34 subtable" acircumflex.ss01
AlternateSubs2: "'aalt' Access All Alternates in Latin lookup 1 subtable" acircumflex.ss01 acircumflex.ss02
EndChar

StartChar: adieresis
Encoding: 228 228 176
Width: 594
GlyphClass: 2
Flags: MW
HStem: -12 103<238 271> -6 21G<500 538> -6 109<500 581> 439 109<266.5 324.5> 599 121<118 261 118 261 332 476 118 332>
VStem: 37 154<130 165.5 130 181> 118 143<599 720 599 720> 332 144<599 720 599 720> 386 150<214 240 240 240>
AnchorPoint: "Anchor-3" 297 536 basechar 0
AnchorPoint: "Anchor-2" 581 0 basechar 0
AnchorPoint: "Anchor-0" 292 0 basechar 0
LayerCount: 2
Fore
SplineSet
118 599 m 1x9b
 118 720 l 1
 261 720 l 1
 261 599 l 1
 118 599 l 1x9b
332 599 m 1
 332 720 l 1
 476 720 l 1
 476 599 l 1
 332 599 l 1
225 -12 m 0
 113 -12 37 42 37 134 c 0
 37 228 96 276 213 300 c 2
 386 334 l 1
 386 404 354 439 295 439 c 0
 238 439 207 412 197 362 c 1
 46 369 l 1
 66 487 155 548 295 548 c 0
 455 548 536 470 536 324 c 2
 536 141 l 2
 536 111 546 103 566 103 c 2
 581 103 l 1x3c80
 581 0 l 1
 572 -3 548 -6 528 -6 c 0x5a80
 472 -6 423 14 410 82 c 1
 383 25 317 -12 225 -12 c 0
261 91 m 0
 336 91 386 137 386 214 c 2
 386 240 l 1
 264 214 l 2
 215 204 191 183 191 148 c 0x9c80
 191 112 215 91 261 91 c 0
EndSplineSet
Substitution2: "'ss08' Style Set 8 in Latin lookup 41 subtable" adieresis.ss08
Substitution2: "'ss02' Style Set 2 in Latin lookup 35 subtable" adieresis.ss02
Substitution2: "'ss01' Style Set 1 in Latin lookup 34 subtable" adieresis.ss01
AlternateSubs2: "'aalt' Access All Alternates in Latin lookup 1 subtable" adieresis.ss01 adieresis.ss02 adieresis.ss08
EndChar

StartChar: agrave
Encoding: 224 224 177
Width: 594
GlyphClass: 2
Flags: MW
HStem: -12 103<238 271> -6 21G<500 538> -6 109<500 581> 439 109<266.5 324.5> 598 147<249 249 249 304 159 363>
VStem: 37 154<130 165.5 130 181> 386 150<214 240 240 240>
AnchorPoint: "Anchor-3" 297 536 basechar 0
AnchorPoint: "Anchor-2" 581 0 basechar 0
AnchorPoint: "Anchor-0" 292 0 basechar 0
LayerCount: 2
Fore
SplineSet
249 598 m 1x9a
 159 745 l 1
 304 745 l 1
 363 598 l 1
 249 598 l 1x9a
225 -12 m 0
 113 -12 37 42 37 134 c 0
 37 228 96 276 213 300 c 2
 386 334 l 1
 386 404 354 439 295 439 c 0
 238 439 207 412 197 362 c 1
 46 369 l 1
 66 487 155 548 295 548 c 0
 455 548 536 470 536 324 c 2
 536 141 l 2
 536 111 546 103 566 103 c 2
 581 103 l 1x3e
 581 0 l 1
 572 -3 548 -6 528 -6 c 0x5a
 472 -6 423 14 410 82 c 1
 383 25 317 -12 225 -12 c 0
261 91 m 0
 336 91 386 137 386 214 c 2
 386 240 l 1
 264 214 l 2
 215 204 191 183 191 148 c 0x9e
 191 112 215 91 261 91 c 0
EndSplineSet
Substitution2: "'ss02' Style Set 2 in Latin lookup 35 subtable" agrave.ss02
Substitution2: "'ss01' Style Set 1 in Latin lookup 34 subtable" agrave.ss01
AlternateSubs2: "'aalt' Access All Alternates in Latin lookup 1 subtable" agrave.ss01 agrave.ss02
EndChar

StartChar: amacron
Encoding: 257 257 178
Width: 594
GlyphClass: 2
Flags: MW
HStem: -12 103<238 271> -6 21G<500 538> -6 109<500 581> 439 109<266.5 324.5> 607 110<147 446 147 446>
VStem: 37 154<130 165.5 130 181> 147 299<607 717 607 717> 386 150<214 240 240 240>
AnchorPoint: "Anchor-3" 297 536 basechar 0
AnchorPoint: "Anchor-2" 581 0 basechar 0
AnchorPoint: "Anchor-0" 292 0 basechar 0
LayerCount: 2
Fore
SplineSet
147 607 m 1x9a
 147 717 l 1
 446 717 l 1
 446 607 l 1
 147 607 l 1x9a
225 -12 m 0
 113 -12 37 42 37 134 c 0
 37 228 96 276 213 300 c 2
 386 334 l 1
 386 404 354 439 295 439 c 0
 238 439 207 412 197 362 c 1
 46 369 l 1
 66 487 155 548 295 548 c 0
 455 548 536 470 536 324 c 2
 536 141 l 2
 536 111 546 103 566 103 c 2
 581 103 l 1x3d
 581 0 l 1
 572 -3 548 -6 528 -6 c 0x59
 472 -6 423 14 410 82 c 1
 383 25 317 -12 225 -12 c 0
261 91 m 0
 336 91 386 137 386 214 c 2
 386 240 l 1
 264 214 l 2
 215 204 191 183 191 148 c 0x9d
 191 112 215 91 261 91 c 0
EndSplineSet
Substitution2: "'ss02' Style Set 2 in Latin lookup 35 subtable" amacron.ss02
Substitution2: "'ss01' Style Set 1 in Latin lookup 34 subtable" amacron.ss01
AlternateSubs2: "'aalt' Access All Alternates in Latin lookup 1 subtable" amacron.ss01 amacron.ss02
EndChar

StartChar: aogonek
Encoding: 261 261 179
Width: 594
GlyphClass: 2
Flags: MW
HStem: -217 89<476 554> -12 103<238 271> 439 109<266.5 324.5>
VStem: 37 154<130 165.5 130 181> 386 150<214 240 240 240> 398 121<-159.5 -94.5> 398 183<-159.5 103>
AnchorPoint: "Anchor-3" 297 536 basechar 0
AnchorPoint: "Anchor-2" 581 0 basechar 0
AnchorPoint: "Anchor-0" 292 0 basechar 0
LayerCount: 2
Fore
SplineSet
225 -12 m 0xe4
 113 -12 37 42 37 134 c 0
 37 228 96 276 213 300 c 2
 386 334 l 1
 386 404 354 439 295 439 c 0
 238 439 207 412 197 362 c 1
 46 369 l 1
 66 487 155 548 295 548 c 0
 455 548 536 470 536 324 c 2
 536 141 l 2xf8
 536 111 546 103 566 103 c 2
 581 103 l 1
 581 0 l 1xe2
 551 -40 l 2
 531 -66 519 -86 519 -103 c 0
 519 -119 531 -128 545 -128 c 0
 563 -128 580 -122 590 -115 c 1
 618 -191 l 1
 600 -206 554 -217 512 -217 c 0
 440 -217 398 -187 398 -132 c 0
 398 -91 423 -52 448 -20 c 2
 467 5 l 1
 439 17 418 41 410 82 c 1
 383 25 317 -12 225 -12 c 0xe4
261 91 m 0
 336 91 386 137 386 214 c 2
 386 240 l 1
 264 214 l 2
 215 204 191 183 191 148 c 0
 191 112 215 91 261 91 c 0
EndSplineSet
Substitution2: "'ss02' Style Set 2 in Latin lookup 35 subtable" aogonek.ss02
Substitution2: "'ss01' Style Set 1 in Latin lookup 34 subtable" aogonek.ss01
AlternateSubs2: "'aalt' Access All Alternates in Latin lookup 1 subtable" aogonek.ss01 aogonek.ss02
EndChar

StartChar: aring
Encoding: 229 229 180
Width: 594
GlyphClass: 2
Flags: MW
HStem: -12 103<238 271> -6 21G<500 538> -6 109<500 581> 439 109<266.5 324.5> 575 64<286 307.5 286 326> 714 64<286 307.5>
VStem: 37 154<130 165.5 130 181> 194 65<665.5 687 665.5 705> 334 65<665.5 687> 386 150<214 240 240 240>
AnchorPoint: "Anchor-3" 297 536 basechar 0
AnchorPoint: "Anchor-2" 581 0 basechar 0
AnchorPoint: "Anchor-0" 292 0 basechar 0
LayerCount: 2
Fore
SplineSet
297 575 m 0x8d80
 239 575 194 618 194 676 c 0
 194 734 239 778 297 778 c 0
 355 778 399 734 399 676 c 0
 399 618 355 575 297 575 c 0x8d80
297 639 m 0
 318 639 334 655 334 676 c 0
 334 698 318 714 297 714 c 0
 275 714 259 698 259 676 c 0
 259 655 275 639 297 639 c 0
225 -12 m 0
 113 -12 37 42 37 134 c 0
 37 228 96 276 213 300 c 2
 386 334 l 1
 386 404 354 439 295 439 c 0
 238 439 207 412 197 362 c 1
 46 369 l 1
 66 487 155 548 295 548 c 0
 455 548 536 470 536 324 c 2
 536 141 l 2
 536 111 546 103 566 103 c 2
 581 103 l 1x3640
 581 0 l 1
 572 -3 548 -6 528 -6 c 0x5540
 472 -6 423 14 410 82 c 1
 383 25 317 -12 225 -12 c 0
261 91 m 0
 336 91 386 137 386 214 c 2
 386 240 l 1
 264 214 l 2
 215 204 191 183 191 148 c 0x9640
 191 112 215 91 261 91 c 0
EndSplineSet
Substitution2: "'ss02' Style Set 2 in Latin lookup 35 subtable" aring.ss02
Substitution2: "'ss01' Style Set 1 in Latin lookup 34 subtable" aring.ss01
AlternateSubs2: "'aalt' Access All Alternates in Latin lookup 1 subtable" aring.ss01 aring.ss02
EndChar

StartChar: atilde
Encoding: 227 227 181
Width: 594
GlyphClass: 2
Flags: MW
HStem: -12 103<238 271> -6 21G<500 538> -6 109<500 581> 439 109<266.5 324.5> 595 142<125 251 125 251> 600 89<349 365.5 349 389> 600 144<337.5 467> 648 89<228.5 245>
VStem: 37 154<130 165.5 130 181> 125 75<595 595> 386 150<214 240 240 240> 393 74<744 744>
AnchorPoint: "Anchor-3" 297 536 basechar 0
AnchorPoint: "Anchor-2" 581 0 basechar 0
AnchorPoint: "Anchor-0" 292 0 basechar 0
LayerCount: 2
Fore
SplineSet
353 600 m 0x9210
 322 600 302 608 277 630 c 0
 261 642 252 648 238 648 c 0x9160
 219 648 203 636 200 595 c 1
 125 595 l 1
 126 682 166 737 235 737 c 0x9860
 267 737 291 728 317 707 c 0
 333 695 343 689 355 689 c 0x9410
 376 689 390 701 393 744 c 1
 467 744 l 1
 466 656 425 600 353 600 c 0x9210
225 -12 m 0
 113 -12 37 42 37 134 c 0
 37 228 96 276 213 300 c 2
 386 334 l 1
 386 404 354 439 295 439 c 0
 238 439 207 412 197 362 c 1
 46 369 l 1
 66 487 155 548 295 548 c 0
 455 548 536 470 536 324 c 2
 536 141 l 2
 536 111 546 103 566 103 c 2
 581 103 l 1x38a0
 581 0 l 1
 572 -3 548 -6 528 -6 c 0x5820
 472 -6 423 14 410 82 c 1
 383 25 317 -12 225 -12 c 0
261 91 m 0
 336 91 386 137 386 214 c 2
 386 240 l 1
 264 214 l 2
 215 204 191 183 191 148 c 0x98a0
 191 112 215 91 261 91 c 0
EndSplineSet
Substitution2: "'ss02' Style Set 2 in Latin lookup 35 subtable" atilde.ss02
Substitution2: "'ss01' Style Set 1 in Latin lookup 34 subtable" atilde.ss01
AlternateSubs2: "'aalt' Access All Alternates in Latin lookup 1 subtable" atilde.ss01 atilde.ss02
EndChar

StartChar: ae
Encoding: 230 230 182
Width: 959
GlyphClass: 2
Flags: MW
HStem: -12 102 -12 114<628.5 688 628.5 725> 228 92<545 769 545 922 545 769> 437 111<627.5 690> 439 109<265 323>
VStem: 37 154<128.5 165 128.5 186> 386 159<228 228 228 236 228 236 228 330> 769 153<228 320>
AnchorPoint: "Anchor-3" 480 536 basechar 0
AnchorPoint: "Anchor-2" 826 34 basechar 0
AnchorPoint: "Anchor-0" 480 0 basechar 0
LayerCount: 2
Fore
SplineSet
226 -12 m 0x77
 115 -12 37 39 37 134 c 0
 37 238 108 280 213 300 c 2
 386 330 l 1
 385 405 353 439 293 439 c 0x6f
 237 439 205 409 197 362 c 1
 46 369 l 1
 67 485 154 548 292 548 c 0
 374 548 438 528 479 486 c 1
 525 526 586 548 659 548 c 0
 819 548 922 438 922 258 c 2
 922 228 l 1
 545 228 l 1
 549 143 594 102 663 102 c 0
 713 102 749 123 763 167 c 1
 914 158 l 1
 885 51 789 -12 661 -12 c 0
 564 -12 487 26 440 93 c 1
 400 24 325 -12 226 -12 c 0x77
545 320 m 1
 769 320 l 1
 764 398 721 437 659 437 c 0xb7
 596 437 553 394 545 320 c 1
272 90 m 0
 340 92 386 132 386 212 c 2
 386 236 l 1
 264 214 l 2
 213 206 191 182 191 148 c 0
 191 109 215 87 272 90 c 0
EndSplineSet
EndChar

StartChar: b
Encoding: 98 98 183
Width: 634
GlyphClass: 2
Flags: MW
HStem: -12 115<336.5 365.5 295.5 442> 0 103<66 365.5> 433 115<337.5 366.5> 690 20G<66 216 216 216>
VStem: 66 144.5 66 150<216.5 320 460 710> 443 154<216 320>
AnchorPoint: "Anchor-3" 318 536 basechar 0
AnchorPoint: "Anchor-1" 159 268 basechar 0
AnchorPoint: "Anchor-0" 318 0 basechar 0
LayerCount: 2
Fore
SplineSet
374 -12 m 0xb6
 299 -12 242 21 212 79 c 1
 209 0 l 1x7a
 66 0 l 1x76
 66 710 l 1
 216 710 l 1
 216 460 l 1
 244 510 301 548 374 548 c 0
 510 548 597 438 597 268 c 0
 597 98 510 -12 374 -12 c 0xb6
332 103 m 0
 399 103 443 164 443 268 c 0
 443 372 400 433 333 433 c 0
 259 433 216 372 216 268 c 0xb6
 216 165 259 103 332 103 c 0
EndSplineSet
EndChar

StartChar: c
Encoding: 99 99 184
Width: 598
GlyphClass: 2
Flags: MW
HStem: -12 115<271.5 338 271.5 382> 432 116<271.5 337.5>
VStem: 37 154<216 320 216 352.5>
AnchorPoint: "Anchor-3" 309 536 basechar 0
AnchorPoint: "Anchor-0" 309 0 basechar 0
LayerCount: 2
Fore
SplineSet
309 -12 m 0
 144 -12 37 99 37 268 c 0
 37 437 144 548 309 548 c 0
 452 548 555 470 571 338 c 1
 416 331 l 1
 407 397 366 432 309 432 c 0
 234 432 191 372 191 268 c 0
 191 164 234 103 309 103 c 0
 367 103 408 137 416 210 c 1
 571 204 l 1
 556 72 455 -12 309 -12 c 0
EndSplineSet
EndChar

StartChar: cacute
Encoding: 263 263 185
Width: 598
GlyphClass: 2
Flags: MW
HStem: -12 115<271.5 338 271.5 382> 432 116<271.5 337.5> 591 148<241 445 300 355>
VStem: 37 154<216 320 216 352.5>
AnchorPoint: "Anchor-3" 309 536 basechar 0
AnchorPoint: "Anchor-0" 309 0 basechar 0
LayerCount: 2
Fore
SplineSet
241 591 m 1
 300 739 l 1
 445 739 l 1
 355 591 l 1
 241 591 l 1
309 -12 m 0
 144 -12 37 99 37 268 c 0
 37 437 144 548 309 548 c 0
 452 548 555 470 571 338 c 1
 416 331 l 1
 407 397 366 432 309 432 c 0
 234 432 191 372 191 268 c 0
 191 164 234 103 309 103 c 0
 367 103 408 137 416 210 c 1
 571 204 l 1
 556 72 455 -12 309 -12 c 0
EndSplineSet
EndChar

StartChar: ccaron
Encoding: 269 269 186
Width: 598
GlyphClass: 2
Flags: MW
HStem: -12 115<271.5 338 271.5 382> 432 116<271.5 337.5> 591 153<237 246 373 381 237 237>
VStem: 37 154<216 320 216 352.5>
AnchorPoint: "Anchor-3" 309 536 basechar 0
AnchorPoint: "Anchor-0" 309 0 basechar 0
LayerCount: 2
Fore
SplineSet
141 744 m 1
 246 744 l 1
 309 655 l 1
 373 744 l 1
 477 744 l 1
 381 591 l 1
 237 591 l 1
 141 744 l 1
309 -12 m 0
 144 -12 37 99 37 268 c 0
 37 437 144 548 309 548 c 0
 452 548 555 470 571 338 c 1
 416 331 l 1
 407 397 366 432 309 432 c 0
 234 432 191 372 191 268 c 0
 191 164 234 103 309 103 c 0
 367 103 408 137 416 210 c 1
 571 204 l 1
 556 72 455 -12 309 -12 c 0
EndSplineSet
EndChar

StartChar: ccedilla
Encoding: 231 231 187
Width: 598
GlyphClass: 2
Flags: MW
HStem: -232 73<284.5 314.5 284.5 338> -84 53<283 334> -84 187<283 309.5> -9 21G<264 264> 432 116<271.5 337.5>
VStem: 37 154<216 320 216 352.5> 348 82<-134.5 -111.5>
AnchorPoint: "Anchor-3" 309 536 basechar 0
AnchorPoint: "Anchor-0" 309 0 basechar 0
LayerCount: 2
Fore
SplineSet
303 -232 m 0xce
 236 -232 193 -198 175 -149 c 1
 241 -121 l 1
 252 -147 269 -159 300 -159 c 0
 329 -159 348 -146 348 -123 c 0
 348 -100 336 -84 283 -84 c 1xce
 242 -45 l 1
 264 -9 l 1x9e
 125 10 37 115 37 268 c 0
 37 437 144 548 309 548 c 0
 452 548 555 470 571 338 c 1
 416 331 l 1
 407 397 366 432 309 432 c 0
 234 432 191 372 191 268 c 0
 191 164 234 103 309 103 c 0xae
 367 103 408 137 416 210 c 1
 571 204 l 1
 558 84 472 4 348 -10 c 1
 334 -31 l 1
 401 -37 430 -76 430 -126 c 0
 430 -198 373 -232 303 -232 c 0xce
EndSplineSet
EndChar

StartChar: ccircumflex
Encoding: 265 265 188
Width: 598
GlyphClass: 2
Flags: MW
HStem: -12 115<271.5 338 271.5 382> 432 116<271.5 337.5> 591 153<141 381 237 246 373 373 373 381 237 477>
VStem: 37 154<216 320 216 352.5>
AnchorPoint: "Anchor-3" 309 536 basechar 0
AnchorPoint: "Anchor-0" 309 0 basechar 0
LayerCount: 2
Fore
SplineSet
141 591 m 1
 237 744 l 1
 381 744 l 1
 477 591 l 1
 373 591 l 1
 309 680 l 1
 246 591 l 1
 141 591 l 1
309 -12 m 0
 144 -12 37 99 37 268 c 0
 37 437 144 548 309 548 c 0
 452 548 555 470 571 338 c 1
 416 331 l 1
 407 397 366 432 309 432 c 0
 234 432 191 372 191 268 c 0
 191 164 234 103 309 103 c 0
 367 103 408 137 416 210 c 1
 571 204 l 1
 556 72 455 -12 309 -12 c 0
EndSplineSet
EndChar

StartChar: cdotaccent
Encoding: 267 267 189
Width: 598
GlyphClass: 2
Flags: MW
HStem: -12 115<271.5 338 271.5 382> 432 116<271.5 337.5> 602 120<232 387 232 387>
VStem: 37 154<216 320 216 352.5> 232 155<602 722 602 722>
AnchorPoint: "Anchor-3" 309 536 basechar 0
AnchorPoint: "Anchor-0" 309 0 basechar 0
LayerCount: 2
Fore
SplineSet
232 602 m 1
 232 722 l 1
 387 722 l 1
 387 602 l 1
 232 602 l 1
309 -12 m 0
 144 -12 37 99 37 268 c 0
 37 437 144 548 309 548 c 0
 452 548 555 470 571 338 c 1
 416 331 l 1
 407 397 366 432 309 432 c 0
 234 432 191 372 191 268 c 0
 191 164 234 103 309 103 c 0
 367 103 408 137 416 210 c 1
 571 204 l 1
 556 72 455 -12 309 -12 c 0
EndSplineSet
Substitution2: "'ss08' Style Set 8 in Latin lookup 41 subtable" cdotaccent.ss08
Substitution2: "'aalt' Access All Alternates in Latin lookup 0 subtable" cdotaccent.ss08
EndChar

StartChar: d
Encoding: 100 100 190
Width: 634
GlyphClass: 2
Flags: MW
HStem: -12 115<271.5 294> 0 103<271.5 568 271.5 425> 433 115<271 295 190 342> 690 20G<418 568 568 568>
VStem: 37 154<218 319 218 353.5> 418 150<214 322.5 460 710 0 710> 423.5 144.5
AnchorPoint: "Anchor-4" 592 536 basechar 0
AnchorPoint: "Anchor-3" 316 536 basechar 0
AnchorPoint: "Anchor-1" 461 620 basechar 0
AnchorPoint: "Anchor-0" 316 0 basechar 0
LayerCount: 2
Fore
SplineSet
257 -12 m 0xba
 121 -12 37 96 37 268 c 0
 37 439 123 548 257 548 c 0
 333 548 390 515 418 460 c 1
 418 710 l 1
 568 710 l 1
 568 0 l 1x7c
 425 0 l 1x7a
 422 79 l 1
 392 21 331 -12 257 -12 c 0xba
306 103 m 0
 378 103 418 160 418 268 c 0
 418 377 378 433 306 433 c 0
 236 433 191 370 191 268 c 0xbc
 191 168 237 103 306 103 c 0
EndSplineSet
EndChar

StartChar: dcaron
Encoding: 271 271 191
Width: 741
GlyphClass: 2
Flags: MW
HStem: -12 115<271.5 294> 0 103<271.5 568 271.5 425> 424 286<418 614 643 718> 433 115<271 295 190 342> 690 20G<418 568 568 568 643 773 773 773>
VStem: 37 154<218 319 218 353.5> 418 150<214 322.5 460 710 0 710> 423.5 144.5
AnchorPoint: "Anchor-4" 592 536 basechar 0
AnchorPoint: "Anchor-3" 316 536 basechar 0
AnchorPoint: "Anchor-1" 461 620 basechar 0
AnchorPoint: "Anchor-0" 316 0 basechar 0
LayerCount: 2
Fore
SplineSet
257 -12 m 0x9d
 121 -12 37 96 37 268 c 0
 37 439 123 548 257 548 c 0
 333 548 390 515 418 460 c 1
 418 710 l 1
 568 710 l 1
 568 0 l 1x5e
 425 0 l 1x5d
 422 79 l 1
 392 21 331 -12 257 -12 c 0x9d
614 424 m 1xa6
 643 710 l 1
 773 710 l 1
 718 424 l 1
 614 424 l 1xa6
306 103 m 0
 378 103 418 160 418 268 c 0
 418 377 378 433 306 433 c 0x9e
 236 433 191 370 191 268 c 0
 191 168 237 103 306 103 c 0
EndSplineSet
EndChar

StartChar: dcroat
Encoding: 273 273 192
Width: 634
GlyphClass: 2
Flags: MW
HStem: -12 115<271.5 294> 0 103<271.5 568 271.5 425> 433 115<271 295 190 342> 576 87<287 418 287 418 568 635> 576 134<287 568 287 568 418 568 418 635>
VStem: 37 154<218 319 218 353.5> 418 150<214 322.5 460 576 0 576 663 710 0 710> 423.5 144.5
AnchorPoint: "Anchor-4" 592 536 basechar 0
AnchorPoint: "Anchor-3" 316 536 basechar 0
AnchorPoint: "Anchor-1" 461 620 basechar 0
AnchorPoint: "Anchor-0" 316 0 basechar 0
LayerCount: 2
Fore
SplineSet
257 -12 m 0x8d
 121 -12 37 96 37 268 c 0
 37 439 123 548 257 548 c 0xa6
 333 548 390 515 418 460 c 1
 418 576 l 1
 287 576 l 1x8e
 287 663 l 1
 418 663 l 1x96
 418 710 l 1
 568 710 l 1x8e
 568 663 l 1
 635 663 l 1x96
 635 576 l 1
 568 576 l 1
 568 0 l 1x4e
 425 0 l 1x4d
 422 79 l 1
 392 21 331 -12 257 -12 c 0x8d
306 103 m 0
 378 103 418 160 418 268 c 0
 418 377 378 433 306 433 c 0
 236 433 191 370 191 268 c 0
 191 168 237 103 306 103 c 0
EndSplineSet
EndChar

StartChar: eth
Encoding: 240 240 193
Width: 618
GlyphClass: 1
Flags: MW
HStem: -12 113<271.5 346.5 271.5 397> 369 113<271.5 329.5 221 346.5> 692 20G<541 541> 702 20G<215 215>
VStem: 37 154<193.5 276 193.5 311.5> 427 154<195 278>
LayerCount: 2
Fore
SplineSet
309 -12 m 0xec
 133 -12 37 81 37 235 c 0
 37 388 133 482 309 482 c 0
 350 482 390 471 425 455 c 1
 411 495 389 529 359 555 c 1
 231 501 l 1
 203 570 l 1
 277 601 l 1
 248 611 214 618 175 620 c 1
 215 722 l 1xdc
 294 715 358 692 409 657 c 1
 541 712 l 1
 569 644 l 1
 472 603 l 1
 548 518 581 396 581 263 c 0
 581 81 485 -12 309 -12 c 0xec
309 101 m 0
 384 101 427 151 427 239 c 0
 427 317 384 369 309 369 c 0
 234 369 191 317 191 235 c 0
 191 152 234 101 309 101 c 0
EndSplineSet
EndChar

StartChar: e
Encoding: 101 101 194
Width: 605
GlyphClass: 2
Flags: MW
HStem: -12 114<275.5 335 275.5 371.5> 228 92<192 415 192 569 192 415> 437 111<274.5 337>
VStem: 37 155<228 228 228 320 228 352.5> 415 154<228 320>
AnchorPoint: "Anchor-3" 309 534 basechar 0
AnchorPoint: "Anchor-2" 473 34 basechar 0
AnchorPoint: "Anchor-0" 309 0 basechar 0
LayerCount: 2
Fore
SplineSet
307 -12 m 0
 143 -12 37 99 37 268 c 0
 37 437 143 548 306 548 c 0
 465 548 569 438 569 258 c 2
 569 228 l 1
 192 228 l 1
 196 143 241 102 310 102 c 0
 360 102 396 123 410 167 c 1
 561 158 l 1
 532 51 436 -12 307 -12 c 0
192 320 m 1
 415 320 l 1
 411 398 368 437 306 437 c 0
 243 437 200 394 192 320 c 1
EndSplineSet
EndChar

StartChar: eacute
Encoding: 233 233 195
Width: 605
GlyphClass: 2
Flags: MW
HStem: -12 114<275.5 335 275.5 371.5> 228 92<192 415 192 569 192 415> 437 111<274.5 337> 589 148<241 445 300 355>
VStem: 37 155<228 228 228 320 228 352.5> 415 154<228 320>
AnchorPoint: "Anchor-3" 309 534 basechar 0
AnchorPoint: "Anchor-2" 473 34 basechar 0
AnchorPoint: "Anchor-0" 309 0 basechar 0
LayerCount: 2
Fore
SplineSet
241 589 m 1
 300 737 l 1
 445 737 l 1
 355 589 l 1
 241 589 l 1
307 -12 m 0
 143 -12 37 99 37 268 c 0
 37 437 143 548 306 548 c 0
 465 548 569 438 569 258 c 2
 569 228 l 1
 192 228 l 1
 196 143 241 102 310 102 c 0
 360 102 396 123 410 167 c 1
 561 158 l 1
 532 51 436 -12 307 -12 c 0
192 320 m 1
 415 320 l 1
 411 398 368 437 306 437 c 0
 243 437 200 394 192 320 c 1
EndSplineSet
EndChar

StartChar: ecaron
Encoding: 283 283 196
Width: 605
GlyphClass: 2
Flags: MW
HStem: -12 114<275.5 335 275.5 371.5> 228 92<192 415 192 569 192 415> 437 111<274.5 337> 589 153<237 246 373 381 237 237>
VStem: 37 155<228 228 228 320 228 352.5> 415 154<228 320>
AnchorPoint: "Anchor-3" 309 534 basechar 0
AnchorPoint: "Anchor-2" 473 34 basechar 0
AnchorPoint: "Anchor-0" 309 0 basechar 0
LayerCount: 2
Fore
SplineSet
141 742 m 1
 246 742 l 1
 309 653 l 1
 373 742 l 1
 477 742 l 1
 381 589 l 1
 237 589 l 1
 141 742 l 1
307 -12 m 0
 143 -12 37 99 37 268 c 0
 37 437 143 548 306 548 c 0
 465 548 569 438 569 258 c 2
 569 228 l 1
 192 228 l 1
 196 143 241 102 310 102 c 0
 360 102 396 123 410 167 c 1
 561 158 l 1
 532 51 436 -12 307 -12 c 0
192 320 m 1
 415 320 l 1
 411 398 368 437 306 437 c 0
 243 437 200 394 192 320 c 1
EndSplineSet
EndChar

StartChar: ecircumflex
Encoding: 234 234 197
Width: 605
GlyphClass: 2
Flags: MW
HStem: -12 114<275.5 335 275.5 371.5> 228 92<192 415 192 569 192 415> 437 111<274.5 337> 589 153<141 381 237 246 373 373 373 381 237 477>
VStem: 37 155<228 228 228 320 228 352.5> 415 154<228 320>
AnchorPoint: "Anchor-3" 309 534 basechar 0
AnchorPoint: "Anchor-2" 473 34 basechar 0
AnchorPoint: "Anchor-0" 309 0 basechar 0
LayerCount: 2
Fore
SplineSet
141 589 m 1
 237 742 l 1
 381 742 l 1
 477 589 l 1
 373 589 l 1
 309 678 l 1
 246 589 l 1
 141 589 l 1
307 -12 m 0
 143 -12 37 99 37 268 c 0
 37 437 143 548 306 548 c 0
 465 548 569 438 569 258 c 2
 569 228 l 1
 192 228 l 1
 196 143 241 102 310 102 c 0
 360 102 396 123 410 167 c 1
 561 158 l 1
 532 51 436 -12 307 -12 c 0
192 320 m 1
 415 320 l 1
 411 398 368 437 306 437 c 0
 243 437 200 394 192 320 c 1
EndSplineSet
EndChar

StartChar: edieresis
Encoding: 235 235 198
Width: 605
GlyphClass: 2
Flags: MW
HStem: -12 114<275.5 335 275.5 371.5> 228 92<192 415 192 569 192 415> 437 111<274.5 337> 597 121<130 273 130 273 345 488 130 345>
VStem: 37 155<228 228 228 320 228 352.5> 130 143<597 718 597 718> 345 143<597 718 597 718> 415 154<228 320>
AnchorPoint: "Anchor-3" 309 534 basechar 0
AnchorPoint: "Anchor-2" 473 34 basechar 0
AnchorPoint: "Anchor-0" 309 0 basechar 0
LayerCount: 2
Fore
SplineSet
130 597 m 1xf6
 130 718 l 1
 273 718 l 1
 273 597 l 1
 130 597 l 1xf6
345 597 m 1
 345 718 l 1
 488 718 l 1
 488 597 l 1
 345 597 l 1
307 -12 m 0
 143 -12 37 99 37 268 c 0
 37 437 143 548 306 548 c 0
 465 548 569 438 569 258 c 2
 569 228 l 1
 192 228 l 1xf9
 196 143 241 102 310 102 c 0
 360 102 396 123 410 167 c 1
 561 158 l 1
 532 51 436 -12 307 -12 c 0
192 320 m 1
 415 320 l 1
 411 398 368 437 306 437 c 0
 243 437 200 394 192 320 c 1
EndSplineSet
Substitution2: "'ss08' Style Set 8 in Latin lookup 41 subtable" edieresis.ss08
Substitution2: "'aalt' Access All Alternates in Latin lookup 0 subtable" edieresis.ss08
EndChar

StartChar: edotaccent
Encoding: 279 279 199
Width: 605
GlyphClass: 2
Flags: MW
HStem: -12 114<275.5 335 275.5 371.5> 228 92<192 415 192 569 192 415> 437 111<274.5 337> 600 120<232 387 232 387>
VStem: 37 155<228 228 228 320 228 352.5> 232 155<600 720 600 720> 415 154<228 320>
AnchorPoint: "Anchor-3" 309 534 basechar 0
AnchorPoint: "Anchor-2" 473 34 basechar 0
AnchorPoint: "Anchor-0" 309 0 basechar 0
LayerCount: 2
Fore
SplineSet
232 600 m 1
 232 720 l 1
 387 720 l 1
 387 600 l 1
 232 600 l 1
307 -12 m 0
 143 -12 37 99 37 268 c 0
 37 437 143 548 306 548 c 0
 465 548 569 438 569 258 c 2
 569 228 l 1xfa
 192 228 l 1
 196 143 241 102 310 102 c 0
 360 102 396 123 410 167 c 1
 561 158 l 1
 532 51 436 -12 307 -12 c 0
192 320 m 1
 415 320 l 1
 411 398 368 437 306 437 c 0
 243 437 200 394 192 320 c 1
EndSplineSet
Substitution2: "'ss08' Style Set 8 in Latin lookup 41 subtable" edotaccent.ss08
Substitution2: "'aalt' Access All Alternates in Latin lookup 0 subtable" edotaccent.ss08
EndChar

StartChar: egrave
Encoding: 232 232 200
Width: 605
GlyphClass: 2
Flags: MW
HStem: -12 114<275.5 335 275.5 371.5> 228 92<192 415 192 569 192 415> 437 111<274.5 337> 596 147<261 261 261 317 171 376>
VStem: 37 155<228 228 228 320 228 352.5> 415 154<228 320>
AnchorPoint: "Anchor-3" 309 534 basechar 0
AnchorPoint: "Anchor-2" 473 34 basechar 0
AnchorPoint: "Anchor-0" 309 0 basechar 0
LayerCount: 2
Fore
SplineSet
261 596 m 1
 171 743 l 1
 317 743 l 1
 376 596 l 1
 261 596 l 1
307 -12 m 0
 143 -12 37 99 37 268 c 0
 37 437 143 548 306 548 c 0
 465 548 569 438 569 258 c 2
 569 228 l 1
 192 228 l 1
 196 143 241 102 310 102 c 0
 360 102 396 123 410 167 c 1
 561 158 l 1
 532 51 436 -12 307 -12 c 0
192 320 m 1
 415 320 l 1
 411 398 368 437 306 437 c 0
 243 437 200 394 192 320 c 1
EndSplineSet
EndChar

StartChar: emacron
Encoding: 275 275 201
Width: 605
GlyphClass: 2
Flags: MW
HStem: -12 114<275.5 335 275.5 371.5> 228 92<192 415 192 569 192 415> 437 111<274.5 337> 605 110<160 459 160 459>
VStem: 37 155<228 228 228 320 228 352.5> 160 299<605 715 605 715> 415 154<228 320>
AnchorPoint: "Anchor-3" 309 534 basechar 0
AnchorPoint: "Anchor-2" 473 34 basechar 0
AnchorPoint: "Anchor-0" 309 0 basechar 0
LayerCount: 2
Fore
SplineSet
160 605 m 1xf4
 160 715 l 1
 459 715 l 1
 459 605 l 1
 160 605 l 1xf4
307 -12 m 0
 143 -12 37 99 37 268 c 0
 37 437 143 548 306 548 c 0
 465 548 569 438 569 258 c 2
 569 228 l 1
 192 228 l 1xfa
 196 143 241 102 310 102 c 0
 360 102 396 123 410 167 c 1
 561 158 l 1
 532 51 436 -12 307 -12 c 0
192 320 m 1
 415 320 l 1
 411 398 368 437 306 437 c 0
 243 437 200 394 192 320 c 1
EndSplineSet
EndChar

StartChar: eogonek
Encoding: 281 281 202
Width: 605
GlyphClass: 2
Flags: MW
HStem: -217 89<354.5 432> -12 114<275.5 311> 228 92<192 415 192 569 192 415> 437 111<274.5 337>
VStem: 37 155<228 228 228 320 228 352.5> 278 120<-109.5 -105> 415 154<228 320>
AnchorPoint: "Anchor-3" 309 534 basechar 0
AnchorPoint: "Anchor-2" 473 34 basechar 0
AnchorPoint: "Anchor-0" 309 0 basechar 0
LayerCount: 2
Fore
SplineSet
307 -12 m 0
 143 -12 37 99 37 268 c 0
 37 437 143 548 306 548 c 0
 465 548 569 438 569 258 c 2
 569 228 l 1xfa
 192 228 l 1
 196 143 241 102 310 102 c 0
 360 102 396 123 410 167 c 1
 561 158 l 1
 552 125 537 96 516 72 c 1
 517 71 l 1
 429 -34 l 2
 408 -60 398 -82 398 -100 c 0
 398 -119 410 -128 424 -128 c 0
 440 -128 457 -122 467 -115 c 1
 494 -191 l 1
 476 -206 433 -217 390 -217 c 0
 319 -217 278 -184 278 -126 c 0
 278 -84 295 -51 322 -21 c 2
 330 -11 l 1
 323 -12 315 -12 307 -12 c 0
192 320 m 1
 415 320 l 1
 411 398 368 437 306 437 c 0
 243 437 200 394 192 320 c 1
EndSplineSet
EndChar

StartChar: uni1EBD
Encoding: 7869 7869 203
Width: 605
GlyphClass: 2
Flags: MW
HStem: -12 114<275.5 335 275.5 371.5> 228 92<192 415 192 569 192 415> 437 111<274.5 337> 593 142<137 264 137 264> 598 89<362 378 362 401.5> 598 144<349.5 480> 646 89<240.5 257>
VStem: 37 155<228 228 228 320 228 352.5> 137 75<593 593> 405 75<742 742> 415 154<228 320>
AnchorPoint: "Anchor-3" 309 534 basechar 0
AnchorPoint: "Anchor-2" 473 34 basechar 0
AnchorPoint: "Anchor-0" 309 0 basechar 0
LayerCount: 2
Fore
SplineSet
365 598 m 0xe540
 334 598 315 606 289 628 c 0
 274 640 264 646 250 646 c 0xe2c0
 231 646 215 634 212 593 c 1
 137 593 l 1
 138 680 179 735 248 735 c 0xf0c0
 280 735 303 726 329 705 c 0
 346 693 356 687 368 687 c 0xe940
 388 687 402 699 405 742 c 1
 480 742 l 1
 478 654 438 598 365 598 c 0xe540
307 -12 m 0
 143 -12 37 99 37 268 c 0
 37 437 143 548 306 548 c 0
 465 548 569 438 569 258 c 2
 569 228 l 1
 192 228 l 1xe120
 196 143 241 102 310 102 c 0
 360 102 396 123 410 167 c 1
 561 158 l 1
 532 51 436 -12 307 -12 c 0
192 320 m 1
 415 320 l 1
 411 398 368 437 306 437 c 0
 243 437 200 394 192 320 c 1
EndSplineSet
EndChar

StartChar: uni0259
Encoding: 601 601 204
Width: 605
GlyphClass: 2
Flags: MW
HStem: -12 111<268.5 331 268.5 381> 216 92<190 413 190 190> 434 114<270.5 330.5>
VStem: 37 153<216 308 216 308> 413 156<216 216 308 308>
AnchorPoint: "Anchor-3" 296 536 basechar 0
AnchorPoint: "Anchor-2" 132 502 basechar 0
AnchorPoint: "Anchor-0" 296 2 basechar 0
LayerCount: 2
Fore
SplineSet
298 548 m 0
 462 548 569 437 569 268 c 0
 569 99 462 -12 300 -12 c 0
 140 -12 37 98 37 278 c 2
 37 308 l 1
 413 308 l 1
 410 393 365 434 296 434 c 0
 245 434 210 413 195 369 c 1
 44 378 l 1
 73 485 169 548 298 548 c 0
413 216 m 1
 190 216 l 1
 194 138 237 99 300 99 c 0
 362 99 405 142 413 216 c 1
EndSplineSet
EndChar

StartChar: f
Encoding: 102 102 205
Width: 447
GlyphClass: 2
Flags: MW
HStem: 0 21G<124 124 124 274> 404 112<46 124 46 124 274 407> 598 112<312 333 333 415>
VStem: 124 150<0 404 0 404 516 536 0 543 0 596>
AnchorPoint: "Anchor-3" 224 710 basechar 0
AnchorPoint: "Anchor-0" 224 0 basechar 0
LayerCount: 2
Fore
SplineSet
124 0 m 1
 124 404 l 1
 46 404 l 1
 46 516 l 1
 124 516 l 1
 124 543 l 2
 124 649 180 710 301 710 c 2
 415 710 l 1
 415 598 l 1
 333 598 l 2
 291 598 274 577 274 536 c 2
 274 516 l 1
 407 516 l 1
 407 404 l 1
 274 404 l 1
 274 0 l 1
 124 0 l 1
EndSplineSet
EndChar

StartChar: g
Encoding: 103 103 206
Width: 634
GlyphClass: 2
Flags: MW
HStem: -162 105<274.5 341.5 274.5 383.5> -12 21G<53 53> 25 111<270 296.5> 438 98<269 568> 438 110<269 299 194.5 340>
VStem: 37 154<241 332.5 241 363> 417 151<50 53 53 107 107 107> 418 150<239.5 287> 421 147<453 536>
AnchorPoint: "Anchor-3" 309 536 basechar 0
AnchorPoint: "Anchor-0" 306 -150 basechar 0
LayerCount: 2
Fore
SplineSet
306 -162 m 0xf480
 153 -162 77 -100 53 -12 c 1
 207 -1 l 1
 218 -36 243 -57 306 -57 c 0
 377 -57 417 -25 417 50 c 2
 417 107 l 1
 391 57 331 25 262 25 c 0
 130 25 37 127 37 286 c 0
 37 440 129 548 260 548 c 0xee
 338 548 393 510 421 453 c 1
 421 536 l 1
 568 536 l 1
 568 53 l 2
 568 -91 461 -162 306 -162 c 0xf480
305 136 m 0
 374 136 418 192 418 287 c 0xed
 419 381 375 438 305 438 c 0
 233 438 191 378 191 287 c 0
 191 195 235 136 305 136 c 0
EndSplineSet
EndChar

StartChar: gbreve
Encoding: 287 287 207
Width: 634
GlyphClass: 2
Flags: MW
HStem: -162 105<274.5 341.5 274.5 383.5> -12 21G<53 53> 25 111<270 296.5> 438 98<269 568> 438 110<269 299 194.5 340> 592 82<289 329 289 355.5> 592 147<153 355.5>
VStem: 37 154<241 332.5 241 363> 417 151<50 53 53 107 107 107> 418 150<239.5 287> 421 147<453 536>
AnchorPoint: "Anchor-3" 309 536 basechar 0
AnchorPoint: "Anchor-0" 306 -150 basechar 0
LayerCount: 2
Fore
SplineSet
309 592 m 0xeb80
 217 592 157 645 153 739 c 1xf320
 239 739 l 1
 244 693 269 674 309 674 c 0xed20
 349 674 374 693 379 739 c 1
 466 739 l 1
 462 645 402 592 309 592 c 0xeb80
306 -162 m 0
 153 -162 77 -100 53 -12 c 1
 207 -1 l 1
 218 -36 243 -57 306 -57 c 0
 377 -57 417 -25 417 50 c 2
 417 107 l 1
 391 57 331 25 262 25 c 0
 130 25 37 127 37 286 c 0
 37 440 129 548 260 548 c 0xed80
 338 548 393 510 421 453 c 1
 421 536 l 1
 568 536 l 1
 568 53 l 2
 568 -91 461 -162 306 -162 c 0
305 136 m 0
 374 136 418 192 418 287 c 0xed40
 419 381 375 438 305 438 c 0
 233 438 191 378 191 287 c 0
 191 195 235 136 305 136 c 0
EndSplineSet
EndChar

StartChar: gcaron
Encoding: 487 487 208
Width: 634
GlyphClass: 2
Flags: MW
HStem: -162 105<274.5 341.5 274.5 383.5> -12 21G<53 53> 25 111<270 296.5> 438 98<269 568> 438 110<269 299 194.5 340> 591 153<237 246 373 382 237 237>
VStem: 37 154<241 332.5 241 363> 417 151<50 53 53 107 107 107> 418 150<239.5 287> 421 147<453 536>
AnchorPoint: "Anchor-3" 309 536 basechar 0
AnchorPoint: "Anchor-0" 306 -150 basechar 0
LayerCount: 2
Fore
SplineSet
141 744 m 1xf640
 246 744 l 1
 309 655 l 1
 373 744 l 1
 478 744 l 1
 382 591 l 1
 237 591 l 1
 141 744 l 1xf640
306 -162 m 0
 153 -162 77 -100 53 -12 c 1
 207 -1 l 1
 218 -36 243 -57 306 -57 c 0
 377 -57 417 -25 417 50 c 2
 417 107 l 1
 391 57 331 25 262 25 c 0
 130 25 37 127 37 286 c 0
 37 440 129 548 260 548 c 0xef
 338 548 393 510 421 453 c 1
 421 536 l 1
 568 536 l 1
 568 53 l 2
 568 -91 461 -162 306 -162 c 0
305 136 m 0
 374 136 418 192 418 287 c 0xee80
 419 381 375 438 305 438 c 0
 233 438 191 378 191 287 c 0
 191 195 235 136 305 136 c 0
EndSplineSet
EndChar

StartChar: gcircumflex
Encoding: 285 285 209
Width: 634
GlyphClass: 2
Flags: MW
HStem: -162 105<274.5 341.5 274.5 383.5> -12 21G<53 53> 25 111<270 296.5> 438 98<269 568> 438 110<269 299 194.5 340> 591 153<141 382 237 246 373 373 373 382 237 478>
VStem: 37 154<241 332.5 241 363> 417 151<50 53 53 107 107 107> 418 150<239.5 287> 421 147<453 536>
AnchorPoint: "Anchor-3" 309 536 basechar 0
AnchorPoint: "Anchor-0" 306 -150 basechar 0
LayerCount: 2
Fore
SplineSet
141 591 m 1xf640
 237 744 l 1
 382 744 l 1
 478 591 l 1
 373 591 l 1
 309 680 l 1
 246 591 l 1
 141 591 l 1xf640
306 -162 m 0
 153 -162 77 -100 53 -12 c 1
 207 -1 l 1
 218 -36 243 -57 306 -57 c 0
 377 -57 417 -25 417 50 c 2
 417 107 l 1
 391 57 331 25 262 25 c 0
 130 25 37 127 37 286 c 0
 37 440 129 548 260 548 c 0xef
 338 548 393 510 421 453 c 1
 421 536 l 1
 568 536 l 1
 568 53 l 2
 568 -91 461 -162 306 -162 c 0
305 136 m 0
 374 136 418 192 418 287 c 0xee80
 419 381 375 438 305 438 c 0
 233 438 191 378 191 287 c 0
 191 195 235 136 305 136 c 0
EndSplineSet
EndChar

StartChar: uni0123
Encoding: 291 291 210
Width: 634
GlyphClass: 2
Flags: MW
HStem: -162 105<274.5 341.5 274.5 383.5> -12 21G<53 53> 25 111<270 296.5> 438 98<269 568> 438 110<269 299 194.5 340> 592 116<245 375 340 375 340 375>
VStem: 37 154<241 332.5 241 363> 245 130<592 696 696 696> 417 151<50 53 53 107 107 107> 418 150<239.5 287> 421 147<453 536>
AnchorPoint: "Anchor-3" 309 536 basechar 0
AnchorPoint: "Anchor-0" 306 -150 basechar 0
LayerCount: 2
Fore
SplineSet
245 592 m 1xf720
 245 696 l 1
 304 796 l 1
 392 796 l 1
 340 708 l 1
 375 708 l 1
 375 592 l 1
 245 592 l 1xf720
306 -162 m 0
 153 -162 77 -100 53 -12 c 1
 207 -1 l 1
 218 -36 243 -57 306 -57 c 0
 377 -57 417 -25 417 50 c 2
 417 107 l 1
 391 57 331 25 262 25 c 0
 130 25 37 127 37 286 c 0
 37 440 129 548 260 548 c 0xef80
 338 548 393 510 421 453 c 1
 421 536 l 1
 568 536 l 1
 568 53 l 2
 568 -91 461 -162 306 -162 c 0
305 136 m 0
 374 136 418 192 418 287 c 0xef40
 419 381 375 438 305 438 c 0
 233 438 191 378 191 287 c 0
 191 195 235 136 305 136 c 0
EndSplineSet
EndChar

StartChar: gdotaccent
Encoding: 289 289 211
Width: 634
GlyphClass: 2
Flags: MW
HStem: -162 105<274.5 341.5 274.5 383.5> -12 21G<53 53> 25 111<270 296.5> 438 98<269 568> 438 110<269 299 194.5 340> 602 120<232 387 232 387>
VStem: 37 154<241 332.5 241 363> 232 155<602 722 602 722> 417 151<50 53 53 107 107 107> 418 150<239.5 287> 421 147<453 536>
AnchorPoint: "Anchor-3" 309 536 basechar 0
AnchorPoint: "Anchor-0" 306 -150 basechar 0
LayerCount: 2
Fore
SplineSet
232 602 m 1xf720
 232 722 l 1
 387 722 l 1
 387 602 l 1
 232 602 l 1xf720
306 -162 m 0
 153 -162 77 -100 53 -12 c 1
 207 -1 l 1
 218 -36 243 -57 306 -57 c 0
 377 -57 417 -25 417 50 c 2
 417 107 l 1xee80
 391 57 331 25 262 25 c 0
 130 25 37 127 37 286 c 0
 37 440 129 548 260 548 c 0xef20
 338 548 393 510 421 453 c 1
 421 536 l 1
 568 536 l 1
 568 53 l 2
 568 -91 461 -162 306 -162 c 0
305 136 m 0
 374 136 418 192 418 287 c 0xef40
 419 381 375 438 305 438 c 0
 233 438 191 378 191 287 c 0
 191 195 235 136 305 136 c 0
EndSplineSet
Substitution2: "'ss08' Style Set 8 in Latin lookup 41 subtable" gdotaccent.ss08
Substitution2: "'aalt' Access All Alternates in Latin lookup 0 subtable" gdotaccent.ss08
EndChar

StartChar: uni1E21
Encoding: 7713 7713 212
Width: 634
GlyphClass: 2
Flags: MW
HStem: -162 105<274.5 341.5 274.5 383.5> -12 21G<53 53> 25 111<270 296.5> 438 98<269 568> 438 110<269 299 194.5 340> 607 110<160 459 160 459>
VStem: 37 154<241 332.5 241 363> 160 299<607 717 607 717> 417 151<50 53 53 107 107 107> 418 150<239.5 287> 421 38 421 147<453 536>
AnchorPoint: "Anchor-3" 309 536 basechar 0
AnchorPoint: "Anchor-0" 306 -150 basechar 0
LayerCount: 2
Fore
SplineSet
160 607 m 1xed
 160 717 l 1xed
 459 717 l 1
 459 607 l 1xee20
 160 607 l 1xed
306 -162 m 0
 153 -162 77 -100 53 -12 c 1
 207 -1 l 1
 218 -36 243 -57 306 -57 c 0
 377 -57 417 -25 417 50 c 2
 417 107 l 1
 391 57 331 25 262 25 c 0
 130 25 37 127 37 286 c 0
 37 440 129 548 260 548 c 0xee80
 338 548 393 510 421 453 c 1
 421 536 l 1
 568 536 l 1
 568 53 l 2xf610
 568 -91 461 -162 306 -162 c 0
305 136 m 0
 374 136 418 192 418 287 c 0xee40
 419 381 375 438 305 438 c 0
 233 438 191 378 191 287 c 0
 191 195 235 136 305 136 c 0
EndSplineSet
EndChar

StartChar: uni01E5
Encoding: 485 485 213
Width: 658
GlyphClass: 2
Flags: MW
HStem: -162 105<274.5 341.5 274.5 383.5> -12 21G<53 53> 25 111<270 296.5> 238 88<279 413 279 416 568 633> 438 98<269 568> 438 110<269 299 194.5 334.5>
VStem: 37 154<241 332.5 241 363> 417 151<50 53 53 107 107 107> 421 147<453 536>
AnchorPoint: "Anchor-3" 309 536 basechar 0
AnchorPoint: "Anchor-0" 306 -150 basechar 0
LayerCount: 2
Fore
SplineSet
306 -162 m 0xdb
 153 -162 77 -100 53 -12 c 1
 207 -1 l 1
 218 -36 243 -57 306 -57 c 0
 377 -57 417 -25 417 50 c 2
 417 107 l 1
 391 57 331 25 262 25 c 0
 130 25 37 127 37 286 c 0
 37 440 129 548 260 548 c 0xf7
 338 548 393 510 421 453 c 1
 421 536 l 1xda80
 568 536 l 1
 568 326 l 1
 633 326 l 1
 633 238 l 1
 568 238 l 1
 568 53 l 2
 568 -91 461 -162 306 -162 c 0xdb
305 136 m 0
 361 136 400 173 413 238 c 1
 279 238 l 1
 279 326 l 1
 416 326 l 1
 405 396 364 438 305 438 c 0
 233 438 191 378 191 287 c 0
 191 195 235 136 305 136 c 0
EndSplineSet
EndChar

StartChar: h
Encoding: 104 104 214
Width: 611
GlyphClass: 2
Flags: MW
HStem: 0 21G<66 66 66 216 395 395 395 545> 429 119<332 343> 690 20G<66 216 216 216>
VStem: 66 150<0 305 470 710> 395 150<0 309 309 345 0 348.5>
AnchorPoint: "Anchor-3" 142 690 basechar 0
AnchorPoint: "Anchor-1" 172 620 basechar 0
AnchorPoint: "Anchor-0" 306 0 basechar 0
LayerCount: 2
Fore
SplineSet
66 0 m 1
 66 710 l 1
 216 710 l 1
 216 470 l 1
 245 523 300 548 364 548 c 0
 484 548 545 464 545 345 c 2
 545 0 l 1
 395 0 l 1
 395 309 l 2
 395 388 372 429 314 429 c 0
 252 429 216 386 216 305 c 2
 216 0 l 1
 66 0 l 1
EndSplineSet
EndChar

StartChar: hbar
Encoding: 295 295 215
Width: 611
GlyphClass: 2
Flags: MW
HStem: 0 21G<66 66 66 216 395 395 395 545> 429 119<332 343> 576 87<-2 66 -2 66 216 346> 576 134<-2 216 -2 216 66 216 66 346>
VStem: 66 150<0 305 470 576 663 710> 395 150<0 309 309 345 0 348.5>
AnchorPoint: "Anchor-3" 142 690 basechar 0
AnchorPoint: "Anchor-1" 172 620 basechar 0
AnchorPoint: "Anchor-0" 306 0 basechar 0
LayerCount: 2
Fore
SplineSet
66 0 m 1xcc
 66 576 l 1
 -2 576 l 1x9c
 -2 663 l 1
 66 663 l 1xac
 66 710 l 1
 216 710 l 1x9c
 216 663 l 1
 346 663 l 1xac
 346 576 l 1
 216 576 l 1x9c
 216 470 l 1
 245 523 300 548 364 548 c 0
 484 548 545 464 545 345 c 2
 545 0 l 1
 395 0 l 1
 395 309 l 2
 395 388 372 429 314 429 c 0
 252 429 216 386 216 305 c 2
 216 0 l 1
 66 0 l 1xcc
EndSplineSet
EndChar

StartChar: hcircumflex
Encoding: 293 293 216
Width: 611
GlyphClass: 2
Flags: MW
HStem: 0 21G<66 66 66 216 395 395 395 545> 429 119<332 343> 690 20G<66 216 216 216> 745 153<-26 215 70 79 206 206 206 215 70 311>
VStem: 66 150<0 305 470 710> 395 150<0 309 309 345 0 348.5>
AnchorPoint: "Anchor-3" 142 690 basechar 0
AnchorPoint: "Anchor-1" 172 620 basechar 0
AnchorPoint: "Anchor-0" 306 0 basechar 0
LayerCount: 2
Fore
SplineSet
-26 745 m 1
 70 898 l 1
 215 898 l 1
 311 745 l 1
 206 745 l 1
 142 834 l 1
 79 745 l 1
 -26 745 l 1
66 0 m 1
 66 710 l 1
 216 710 l 1
 216 470 l 1
 245 523 300 548 364 548 c 0
 484 548 545 464 545 345 c 2
 545 0 l 1
 395 0 l 1
 395 309 l 2
 395 388 372 429 314 429 c 0
 252 429 216 386 216 305 c 2
 216 0 l 1
 66 0 l 1
EndSplineSet
EndChar

StartChar: i
Encoding: 105 105 217
Width: 281
GlyphClass: 2
Flags: MW
HStem: 0 21G<66 66 66 216> 516 20G<66 216 216 216> 602 120<63 218 63 218>
VStem: 63 153<0 722> 66 150<0 536 0 536> 66 152<0 722 536 722>
AnchorPoint: "Anchor-3" 141 536 basechar 0
AnchorPoint: "Anchor-2" 216 0 basechar 0
AnchorPoint: "Anchor-0" 141 0 basechar 0
LayerCount: 2
Fore
SplineSet
63 602 m 1xf0
 63 722 l 1xf0
 218 722 l 1
 218 602 l 1xe4
 63 602 l 1xf0
66 0 m 1xe8
 66 536 l 1
 216 536 l 1
 216 0 l 1
 66 0 l 1xe8
EndSplineSet
Substitution2: "'ss08' Style Set 8 in Latin lookup 41 subtable" i.ss08
Substitution2: "'locl' Localized Forms in Latin lookup 9 subtable" i.loclTRK
Substitution2: "Single Substitution lookup 3 subtable" dotlessi
AlternateSubs2: "'aalt' Access All Alternates in Latin lookup 1 subtable" i.loclTRK i.ss08
EndChar

StartChar: dotlessi
Encoding: 305 305 218
Width: 281
GlyphClass: 2
Flags: MW
HStem: 0 21G<66 66 66 216> 516 20G<66 216 216 216>
VStem: 66 150<0 536 0 536>
AnchorPoint: "Anchor-3" 141 536 basechar 0
AnchorPoint: "Anchor-2" 216 0 basechar 0
AnchorPoint: "Anchor-0" 141 0 basechar 0
LayerCount: 2
Fore
SplineSet
66 0 m 1
 66 536 l 1
 216 536 l 1
 216 0 l 1
 66 0 l 1
EndSplineSet
EndChar

StartChar: iacute
Encoding: 237 237 219
Width: 281
GlyphClass: 2
Flags: MW
HStem: 0 21G<66 66 66 216> 516 20G<66 216 216 216> 591 148<72 277 131 187>
VStem: 66 150<0 536 0 536>
AnchorPoint: "Anchor-3" 141 536 basechar 0
AnchorPoint: "Anchor-2" 216 0 basechar 0
AnchorPoint: "Anchor-0" 141 0 basechar 0
LayerCount: 2
Fore
SplineSet
72 591 m 1
 131 739 l 1
 277 739 l 1
 187 591 l 1
 72 591 l 1
66 0 m 1
 66 536 l 1
 216 536 l 1
 216 0 l 1
 66 0 l 1
EndSplineSet
EndChar

StartChar: icircumflex
Encoding: 238 238 220
Width: 281
GlyphClass: 2
Flags: MW
HStem: 0 21G<66 66 66 216> 516 20G<66 216 216 216> 591 153<-28 213 68 77 204 204 204 213 68 309>
VStem: 66 150<0 536 0 536>
AnchorPoint: "Anchor-3" 141 536 basechar 0
AnchorPoint: "Anchor-2" 216 0 basechar 0
AnchorPoint: "Anchor-0" 141 0 basechar 0
LayerCount: 2
Fore
SplineSet
-28 591 m 1
 68 744 l 1
 213 744 l 1
 309 591 l 1
 204 591 l 1
 141 680 l 1
 77 591 l 1
 -28 591 l 1
66 0 m 1
 66 536 l 1
 216 536 l 1
 216 0 l 1
 66 0 l 1
EndSplineSet
EndChar

StartChar: idieresis
Encoding: 239 239 221
Width: 281
GlyphClass: 2
Flags: MW
HStem: 0 21G<66 66 66 216> 516 20G<66 216 216 216> 599 121<-38 105 -38 105 176 320 -38 176>
VStem: -38 143<599 720 599 720> 66 39 66 150<0 536 0 536> 176 40 176 144<599 720 599 720>
AnchorPoint: "Anchor-3" 141 536 basechar 0
AnchorPoint: "Anchor-2" 216 0 basechar 0
AnchorPoint: "Anchor-0" 141 0 basechar 0
LayerCount: 2
Fore
SplineSet
-38 599 m 1xf0
 -38 720 l 1xf2
 105 720 l 1
 105 599 l 1xe8
 -38 599 l 1xf0
176 599 m 1
 176 720 l 1xe2
 320 720 l 1
 320 599 l 1xe1
 176 599 l 1
66 0 m 1xe4
 66 536 l 1
 216 536 l 1
 216 0 l 1
 66 0 l 1xe4
EndSplineSet
Substitution2: "'ss08' Style Set 8 in Latin lookup 41 subtable" idieresis.ss08
Substitution2: "'aalt' Access All Alternates in Latin lookup 0 subtable" idieresis.ss08
EndChar

StartChar: i.loclTRK
Encoding: 65576 -1 222
Width: 281
GlyphClass: 2
Flags: MW
HStem: 0 21G<66 66 66 216> 516 20G<66 216 216 216> 602 120<63 218 63 218>
VStem: 63 153<0 722> 66 150<0 536 0 536> 66 152<0 722 536 722>
AnchorPoint: "Anchor-3" 141 536 basechar 0
AnchorPoint: "Anchor-2" 216 0 basechar 0
AnchorPoint: "Anchor-0" 141 0 basechar 0
LayerCount: 2
Fore
SplineSet
63 602 m 1xf0
 63 722 l 1xf0
 218 722 l 1
 218 602 l 1xe4
 63 602 l 1xf0
66 0 m 1xe8
 66 536 l 1
 216 536 l 1
 216 0 l 1
 66 0 l 1xe8
EndSplineSet
Substitution2: "'ss08' Style Set 8 in Latin lookup 41 subtable" i.loclTRK.ss08
Substitution2: "'aalt' Access All Alternates in Latin lookup 0 subtable" i.loclTRK.ss08
EndChar

StartChar: igrave
Encoding: 236 236 223
Width: 281
GlyphClass: 2
Flags: MW
HStem: 0 21G<66 66 66 216> 516 20G<66 216 216 216> 598 147<93 93 93 148 3 207>
VStem: 66 150<0 536 0 536>
AnchorPoint: "Anchor-3" 141 536 basechar 0
AnchorPoint: "Anchor-2" 216 0 basechar 0
AnchorPoint: "Anchor-0" 141 0 basechar 0
LayerCount: 2
Fore
SplineSet
93 598 m 1
 3 745 l 1
 148 745 l 1
 207 598 l 1
 93 598 l 1
66 0 m 1
 66 536 l 1
 216 536 l 1
 216 0 l 1
 66 0 l 1
EndSplineSet
EndChar

StartChar: imacron
Encoding: 299 299 224
Width: 281
GlyphClass: 2
Flags: MW
HStem: 0 21G<66 66 66 216> 516 20G<66 216 216 216> 607 110<-9 290 -9 290>
VStem: 66 150<0 536 0 536>
AnchorPoint: "Anchor-3" 141 536 basechar 0
AnchorPoint: "Anchor-2" 216 0 basechar 0
AnchorPoint: "Anchor-0" 141 0 basechar 0
LayerCount: 2
Fore
SplineSet
-9 607 m 1
 -9 717 l 1
 290 717 l 1
 290 607 l 1
 -9 607 l 1
66 0 m 1
 66 536 l 1
 216 536 l 1
 216 0 l 1
 66 0 l 1
EndSplineSet
EndChar

StartChar: iogonek
Encoding: 303 303 225
Width: 281
GlyphClass: 2
Flags: MW
HStem: -217 89<110.5 188.5> 0 21G<66 66 66 98 216 216> 516 20G<66 216 216 216> 602 120<63 218 63 218>
VStem: 33 121<-159.5 -94.5> 63 153<0 722> 66 88 66 150<0 536 0 536> 66 152<0 722 536 722>
AnchorPoint: "Anchor-3" 141 536 basechar 0
AnchorPoint: "Anchor-2" 216 0 basechar 0
AnchorPoint: "Anchor-0" 141 0 basechar 0
LayerCount: 2
Fore
SplineSet
63 602 m 1xf4
 63 722 l 1xf4
 218 722 l 1
 218 602 l 1xf080
 63 602 l 1xf4
66 0 m 1xf1
 66 536 l 1
 216 536 l 1
 216 0 l 1xf1
 185 -40 l 2
 166 -66 154 -86 154 -103 c 0xf2
 154 -119 166 -128 180 -128 c 0
 197 -128 215 -122 225 -115 c 1
 252 -191 l 1
 234 -206 189 -217 146 -217 c 0
 75 -217 33 -187 33 -132 c 0xf8
 33 -91 58 -52 82 -20 c 2
 98 0 l 1
 66 0 l 1xf1
EndSplineSet
Substitution2: "'ss08' Style Set 8 in Latin lookup 41 subtable" iogonek.ss08
Substitution2: "'aalt' Access All Alternates in Latin lookup 0 subtable" iogonek.ss08
EndChar

StartChar: itilde
Encoding: 297 297 226
Width: 281
GlyphClass: 2
Flags: MW
HStem: 0 21G<66 66 66 216> 516 20G<66 216 216 216> 595 142<-31 95 -31 95> 600 89<193 209.5 193 233> 600 144<181.5 311> 648 89<72.5 89>
VStem: -31 75<595 595> 66 150<0 536 0 536> 237 74<744 744>
AnchorPoint: "Anchor-3" 141 536 basechar 0
AnchorPoint: "Anchor-2" 216 0 basechar 0
AnchorPoint: "Anchor-0" 141 0 basechar 0
LayerCount: 2
Fore
SplineSet
197 600 m 0xc880
 166 600 146 608 121 630 c 0
 105 642 96 648 82 648 c 0xc6
 63 648 47 636 44 595 c 1
 -31 595 l 1
 -30 682 10 737 79 737 c 0xe2
 111 737 135 728 161 707 c 0
 177 695 187 689 199 689 c 0xd080
 220 689 234 701 237 744 c 1
 311 744 l 1
 310 656 269 600 197 600 c 0xc880
66 0 m 1xe1
 66 536 l 1
 216 536 l 1
 216 0 l 1
 66 0 l 1xe1
EndSplineSet
EndChar

StartChar: ij
Encoding: 307 307 227
Width: 585
GlyphClass: 2
Flags: MW
HStem: -150 112<251 309 251 309 309 328.5 251 340> 0 21G<66 66 66 216> 516 20G<66 216 216 216 368 519 519 519> 602 120<63 218 63 218 366 522>
VStem: 63 153<0 722> 66 150<0 536 0 536> 66 152<0 722 536 722> 366 153 368 151<22 536> 368 154<22 722 536 722>
AnchorPoint: "Anchor-3" 444 536 basechar 0
AnchorPoint: "Anchor-2" 216 0 basechar 0
AnchorPoint: "Anchor-0" 419 -150 basechar 0
LayerCount: 2
Fore
SplineSet
63 602 m 1xf880
 63 722 l 1xf9
 218 722 l 1
 218 602 l 1xf280
 63 602 l 1xf880
366 602 m 1
 366 722 l 1xf5
 522 722 l 1
 522 602 l 1xf440
 366 602 l 1
66 0 m 1
 66 536 l 1
 216 536 l 1
 216 0 l 1
 66 0 l 1
251 -150 m 1
 251 -38 l 1
 309 -38 l 2
 348 -38 368 -25 368 22 c 2
 368 536 l 1
 519 536 l 1
 519 18 l 2xf480
 519 -102 471 -150 340 -150 c 2
 251 -150 l 1
EndSplineSet
Substitution2: "'ss08' Style Set 8 in Latin lookup 41 subtable" ij.ss08
Substitution2: "'aalt' Access All Alternates in Latin lookup 0 subtable" ij.ss08
EndChar

StartChar: j
Encoding: 106 106 228
Width: 331
GlyphClass: 2
Flags: MW
HStem: -150 112<-3 56 -3 56 56 75.5 -3 87> 516 20G<115 266 266 266> 602 120<113 268 113 268>
VStem: 113 153 115 151<22 536> 115 153<22 722 536 722>
AnchorPoint: "Anchor-3" 191 536 basechar 0
AnchorPoint: "Anchor-0" 166 -150 basechar 0
LayerCount: 2
Fore
SplineSet
113 602 m 1xf0
 113 722 l 1xf0
 268 722 l 1
 268 602 l 1xe4
 113 602 l 1xf0
-3 -150 m 1
 -3 -38 l 1
 56 -38 l 2
 95 -38 115 -25 115 22 c 2
 115 536 l 1
 266 536 l 1
 266 18 l 2xe8
 266 -102 218 -150 87 -150 c 2
 -3 -150 l 1
EndSplineSet
Substitution2: "'ss08' Style Set 8 in Latin lookup 41 subtable" j.ss08
Substitution2: "Single Substitution lookup 16 subtable" uni006A0301
Substitution2: "Single Substitution lookup 3 subtable" uni0237
AlternateSubs2: "'aalt' Access All Alternates in Latin lookup 1 subtable" uni006A0301 j.ss08
EndChar

StartChar: uni0237
Encoding: 567 567 229
Width: 331
GlyphClass: 2
Flags: MW
HStem: -150 112<-3 56 -3 56 56 75.5 -3 87> 516 20G<115 266 266 266>
VStem: 115 151<22 536>
AnchorPoint: "Anchor-3" 191 536 basechar 0
AnchorPoint: "Anchor-0" 166 -150 basechar 0
LayerCount: 2
Fore
SplineSet
-3 -150 m 1
 -3 -38 l 1
 56 -38 l 2
 95 -38 115 -25 115 22 c 2
 115 536 l 1
 266 536 l 1
 266 18 l 2
 266 -102 218 -150 87 -150 c 2
 -3 -150 l 1
EndSplineSet
EndChar

StartChar: uni006A0301
Encoding: 65577 -1 230
Width: 331
GlyphClass: 2
Flags: MW
HStem: -150 112<-3 56 -3 56 56 75.5 -3 87> 516 20G<115 266 266 266> 591 148<123 327 181 237>
VStem: 115 151<22 536>
AnchorPoint: "Anchor-3" 191 536 basechar 0
AnchorPoint: "Anchor-0" 166 -150 basechar 0
LayerCount: 2
Fore
SplineSet
123 591 m 1
 181 739 l 1
 327 739 l 1
 237 591 l 1
 123 591 l 1
-3 -150 m 1
 -3 -38 l 1
 56 -38 l 2
 95 -38 115 -25 115 22 c 2
 115 536 l 1
 266 536 l 1
 266 18 l 2
 266 -102 218 -150 87 -150 c 2
 -3 -150 l 1
EndSplineSet
EndChar

StartChar: jcircumflex
Encoding: 309 309 231
Width: 331
GlyphClass: 2
Flags: MW
HStem: -150 112<-3 56 -3 56 56 75.5 -3 87> 516 20G<115 266 266 266> 591 153<23 263 119 127 254 254 254 263 119 359>
VStem: 115 151<22 536>
AnchorPoint: "Anchor-3" 191 536 basechar 0
AnchorPoint: "Anchor-0" 166 -150 basechar 0
LayerCount: 2
Fore
SplineSet
23 591 m 1
 119 744 l 1
 263 744 l 1
 359 591 l 1
 254 591 l 1
 191 680 l 1
 127 591 l 1
 23 591 l 1
-3 -150 m 1
 -3 -38 l 1
 56 -38 l 2
 95 -38 115 -25 115 22 c 2
 115 536 l 1
 266 536 l 1
 266 18 l 2
 266 -102 218 -150 87 -150 c 2
 -3 -150 l 1
EndSplineSet
EndChar

StartChar: k
Encoding: 107 107 232
Width: 647
GlyphClass: 2
Flags: MW
HStem: 0 21G<66 66 66 216 437 437 437 601> 516 20G<415 595 595 595> 690 20G<66 216 216 216>
VStem: 66 150<0 151 316 710>
AnchorPoint: "Anchor-3" 141 688 basechar 0
AnchorPoint: "Anchor-0" 317 0 basechar 0
LayerCount: 2
Fore
SplineSet
66 0 m 1
 66 710 l 1
 216 710 l 1
 216 316 l 1
 415 536 l 1
 595 536 l 1
 387 315 l 1
 601 0 l 1
 437 0 l 1
 290 230 l 1
 216 151 l 1
 216 0 l 1
 66 0 l 1
EndSplineSet
EndChar

StartChar: uni01E9
Encoding: 489 489 233
Width: 647
GlyphClass: 2
Flags: MW
HStem: 0 21G<66 66 66 216 437 437 437 601> 516 20G<415 595 595 595> 690 20G<66 216 216 216> 743 153<68 77 204 213 68 68>
VStem: 66 150<0 151 316 710>
AnchorPoint: "Anchor-3" 141 688 basechar 0
AnchorPoint: "Anchor-0" 317 0 basechar 0
LayerCount: 2
Fore
SplineSet
-28 896 m 1
 77 896 l 1
 141 807 l 1
 204 896 l 1
 309 896 l 1
 213 743 l 1
 68 743 l 1
 -28 896 l 1
66 0 m 1
 66 710 l 1
 216 710 l 1
 216 316 l 1
 415 536 l 1
 595 536 l 1
 387 315 l 1
 601 0 l 1
 437 0 l 1
 290 230 l 1
 216 151 l 1
 216 0 l 1
 66 0 l 1
EndSplineSet
EndChar

StartChar: uni0137
Encoding: 311 311 234
Width: 647
GlyphClass: 2
Flags: MW
HStem: -165 116<252 286 252 382> 0 21G<66 66 66 216 437 437 437 601> 516 20G<415 595 595 595> 690 20G<66 216 216 216>
VStem: 66 150<0 151 316 710> 252 130<-154 -49 -154 -49 -154 -49>
AnchorPoint: "Anchor-3" 141 688 basechar 0
AnchorPoint: "Anchor-0" 317 -253 basechar 0
LayerCount: 2
Fore
SplineSet
66 0 m 1
 66 710 l 1
 216 710 l 1
 216 316 l 1
 415 536 l 1
 595 536 l 1
 387 315 l 1
 601 0 l 1
 437 0 l 1
 290 230 l 1
 216 151 l 1
 216 0 l 1
 66 0 l 1
234 -253 m 1
 286 -165 l 1
 252 -165 l 1
 252 -49 l 1
 382 -49 l 1
 382 -154 l 1
 322 -253 l 1
 234 -253 l 1
EndSplineSet
EndChar

StartChar: l
Encoding: 108 108 235
Width: 313
GlyphClass: 2
Flags: MW
HStem: 0 112<162 295 259 295 259 295> 690 20G<66 216 216 216>
VStem: 66 150<140 156 156 710>
AnchorPoint: "Anchor-4" 234 536 basechar 0
AnchorPoint: "Anchor-3" 141 688 basechar 0
AnchorPoint: "Anchor-1" 155 390 basechar 0
AnchorPoint: "Anchor-0" 184 0 basechar 0
LayerCount: 2
Fore
SplineSet
206 0 m 2
 118 0 66 41 66 140 c 2
 66 710 l 1
 216 710 l 1
 216 156 l 2
 216 124 231 112 259 112 c 2
 295 112 l 1
 295 0 l 1
 206 0 l 2
EndSplineSet
Substitution2: "'ss03' Style Set 3 in Latin lookup 36 subtable" l.ss03
Substitution2: "'aalt' Access All Alternates in Latin lookup 0 subtable" l.ss03
EndChar

StartChar: lacute
Encoding: 314 314 236
Width: 313
GlyphClass: 2
Flags: MW
HStem: 0 112<162 295 259 295 259 295> 690 20G<66 216 216 216> 743 148<72 277 131 187>
VStem: 66 150<140 156 156 710>
AnchorPoint: "Anchor-4" 234 536 basechar 0
AnchorPoint: "Anchor-3" 141 688 basechar 0
AnchorPoint: "Anchor-1" 155 390 basechar 0
AnchorPoint: "Anchor-0" 184 0 basechar 0
LayerCount: 2
Fore
SplineSet
72 743 m 1
 131 891 l 1
 277 891 l 1
 187 743 l 1
 72 743 l 1
206 0 m 2
 118 0 66 41 66 140 c 2
 66 710 l 1
 216 710 l 1
 216 156 l 2
 216 124 231 112 259 112 c 2
 295 112 l 1
 295 0 l 1
 206 0 l 2
EndSplineSet
Substitution2: "'ss03' Style Set 3 in Latin lookup 36 subtable" lacute.ss03
Substitution2: "'aalt' Access All Alternates in Latin lookup 0 subtable" lacute.ss03
EndChar

StartChar: lcaron
Encoding: 318 318 237
Width: 390
GlyphClass: 2
Flags: MW
HStem: 0 112<162 295 259 295 259 295> 424 286<66 264 292 368> 690 20G<66 216 216 216 292 422 422 422>
VStem: 66 150<140 156 156 710>
AnchorPoint: "Anchor-4" 234 536 basechar 0
AnchorPoint: "Anchor-3" 141 688 basechar 0
AnchorPoint: "Anchor-1" 155 390 basechar 0
AnchorPoint: "Anchor-0" 184 0 basechar 0
LayerCount: 2
Fore
SplineSet
206 0 m 2xb0
 118 0 66 41 66 140 c 2
 66 710 l 1
 216 710 l 1
 216 156 l 2
 216 124 231 112 259 112 c 2
 295 112 l 1
 295 0 l 1
 206 0 l 2xb0
264 424 m 1xd0
 292 710 l 1
 422 710 l 1
 368 424 l 1
 264 424 l 1xd0
EndSplineSet
Substitution2: "'ss03' Style Set 3 in Latin lookup 36 subtable" lcaron.ss03
Substitution2: "'aalt' Access All Alternates in Latin lookup 0 subtable" lcaron.ss03
EndChar

StartChar: uni013C
Encoding: 316 316 238
Width: 313
GlyphClass: 2
Flags: MW
HStem: -165 116<119 153 119 249> 0 112<162 295 259 295 259 295> 690 20G<66 216 216 216>
VStem: 66 150<140 156 156 710> 119 130<-154 -49 -154 -49 -154 -49> 119 176<-165 112 -49 112>
AnchorPoint: "Anchor-4" 234 536 basechar 0
AnchorPoint: "Anchor-3" 141 688 basechar 0
AnchorPoint: "Anchor-1" 155 390 basechar 0
AnchorPoint: "Anchor-0" 184 -253 basechar 0
LayerCount: 2
Fore
SplineSet
206 0 m 2xe4
 118 0 66 41 66 140 c 2
 66 710 l 1
 216 710 l 1
 216 156 l 2xf0
 216 124 231 112 259 112 c 2
 295 112 l 1
 295 0 l 1
 206 0 l 2xe4
101 -253 m 1
 153 -165 l 1
 119 -165 l 1
 119 -49 l 1
 249 -49 l 1
 249 -154 l 1xe8
 189 -253 l 1
 101 -253 l 1
EndSplineSet
Substitution2: "'ss03' Style Set 3 in Latin lookup 36 subtable" uni013C.ss03
Substitution2: "'locl' Localized Forms in Latin lookup 11 subtable" uni013C.loclMAH
AlternateSubs2: "'aalt' Access All Alternates in Latin lookup 1 subtable" uni013C.loclMAH uni013C.ss03
EndChar

StartChar: lslash
Encoding: 322 322 239
Width: 313
GlyphClass: 2
Flags: MW
HStem: 0 112<162 295 259 295 259 295> 690 20G<66 216 216 216>
VStem: 66 150<140 156 156 306 306 306 463 710>
AnchorPoint: "Anchor-4" 234 536 basechar 0
AnchorPoint: "Anchor-3" 141 688 basechar 0
AnchorPoint: "Anchor-1" 155 390 basechar 0
AnchorPoint: "Anchor-0" 184 0 basechar 0
LayerCount: 2
Fore
SplineSet
206 0 m 2
 118 0 66 41 66 140 c 2
 66 306 l 1
 2 281 l 1
 2 379 l 1
 66 404 l 1
 66 710 l 1
 216 710 l 1
 216 463 l 1
 307 499 l 1
 307 401 l 1
 216 365 l 1
 216 156 l 2
 216 124 231 112 259 112 c 2
 295 112 l 1
 295 0 l 1
 206 0 l 2
EndSplineSet
Substitution2: "'ss03' Style Set 3 in Latin lookup 36 subtable" lslash.ss03
Substitution2: "'aalt' Access All Alternates in Latin lookup 0 subtable" lslash.ss03
EndChar

StartChar: m
Encoding: 109 109 240
Width: 900
GlyphClass: 2
Flags: MW
HStem: 0 21G<66 66 66 216 382 382 382 517 684 684 684 834> 429 107<66 331> 429 119<317.5 331 618.5 631>
VStem: 66 136.5 66 150<0 301 0 536> 382 135<0 301 0 342.5> 684 150<0 303 303 345>
AnchorPoint: "Anchor-3" 449 536 basechar 0
AnchorPoint: "Anchor-0" 449 0 basechar 0
LayerCount: 2
Fore
SplineSet
66 0 m 1xae
 66 536 l 1xce
 201 536 l 1xd6
 204 449 l 1xb6
 231 512 285 548 350 548 c 0
 427 548 480 506 503 439 c 1
 528 510 583 548 654 548 c 0
 764 548 834 477 834 345 c 2
 834 0 l 1
 684 0 l 1
 684 303 l 2
 684 387 659 429 603 429 c 0
 548 429 517 382 517 301 c 2
 517 0 l 1
 382 0 l 1
 382 301 l 2
 382 384 360 429 302 429 c 0
 247 429 216 382 216 301 c 2
 216 0 l 1
 66 0 l 1xae
EndSplineSet
EndChar

StartChar: n
Encoding: 110 110 241
Width: 611
GlyphClass: 2
Flags: MW
HStem: 0 21G<66 66 66 216 395 395 395 545> 429 107<66 344.5> 429 119<327.5 344.5>
VStem: 66 136.5 66 150<0 295 0 536> 395 150<0 295 295 338>
AnchorPoint: "Anchor-3" 305 536 basechar 0
AnchorPoint: "Anchor-0" 305 0 basechar 0
LayerCount: 2
Fore
SplineSet
66 0 m 1xac
 66 536 l 1xcc
 201 536 l 1xd4
 204 447 l 1xb4
 233 520 292 548 363 548 c 0
 478 548 545 469 545 345 c 2
 545 0 l 1
 395 0 l 1
 395 295 l 2
 395 381 376 429 313 429 c 0
 251 429 216 381 216 295 c 2
 216 0 l 1
 66 0 l 1xac
EndSplineSet
EndChar

StartChar: nacute
Encoding: 324 324 242
Width: 611
GlyphClass: 2
Flags: MW
HStem: 0 21G<66 66 66 216 395 395 395 545> 429 107<66 344.5> 429 119<327.5 344.5> 591 148<237 442 296 352>
VStem: 66 136.5 66 150<0 295 0 536> 395 150<0 295 295 338>
AnchorPoint: "Anchor-3" 305 536 basechar 0
AnchorPoint: "Anchor-0" 305 0 basechar 0
LayerCount: 2
Fore
SplineSet
237 591 m 1xb6
 296 739 l 1
 442 739 l 1
 352 591 l 1
 237 591 l 1xb6
66 0 m 1
 66 536 l 1xd6
 201 536 l 1xda
 204 447 l 1xba
 233 520 292 548 363 548 c 0
 478 548 545 469 545 345 c 2
 545 0 l 1
 395 0 l 1
 395 295 l 2
 395 381 376 429 313 429 c 0
 251 429 216 381 216 295 c 2
 216 0 l 1
 66 0 l 1
EndSplineSet
EndChar

StartChar: ncaron
Encoding: 328 328 243
Width: 611
GlyphClass: 2
Flags: MW
HStem: 0 21G<66 66 66 216 395 395 395 545> 429 107<66 344.5> 429 119<327.5 344.5> 591 153<233 242 369 378 233 233>
VStem: 66 136.5 66 150<0 295 0 536> 395 150<0 295 295 338>
AnchorPoint: "Anchor-3" 305 536 basechar 0
AnchorPoint: "Anchor-0" 305 0 basechar 0
LayerCount: 2
Fore
SplineSet
137 744 m 1xb6
 242 744 l 1
 305 655 l 1
 369 744 l 1
 474 744 l 1
 378 591 l 1
 233 591 l 1
 137 744 l 1xb6
66 0 m 1
 66 536 l 1xd6
 201 536 l 1xda
 204 447 l 1xba
 233 520 292 548 363 548 c 0
 478 548 545 469 545 345 c 2
 545 0 l 1
 395 0 l 1
 395 295 l 2
 395 381 376 429 313 429 c 0
 251 429 216 381 216 295 c 2
 216 0 l 1
 66 0 l 1
EndSplineSet
EndChar

StartChar: uni0146
Encoding: 326 326 244
Width: 611
GlyphClass: 2
Flags: MW
HStem: -165 116<240 275 240 370> 0 21G<66 66 66 216 395 395 395 545> 429 107<66 344.5> 429 119<327.5 344.5>
VStem: 66 136.5 66 150<0 295 0 536> 240 130<-154 -49 -154 -49 -154 -49> 395 150<0 295 295 338>
AnchorPoint: "Anchor-3" 305 536 basechar 0
AnchorPoint: "Anchor-0" 305 -253 basechar 0
LayerCount: 2
Fore
SplineSet
66 0 m 1xd5
 66 536 l 1xe5
 201 536 l 1xe9
 204 447 l 1xd9
 233 520 292 548 363 548 c 0
 478 548 545 469 545 345 c 2
 545 0 l 1
 395 0 l 1
 395 295 l 2
 395 381 376 429 313 429 c 0
 251 429 216 381 216 295 c 2
 216 0 l 1
 66 0 l 1xd5
223 -253 m 1
 275 -165 l 1
 240 -165 l 1
 240 -49 l 1
 370 -49 l 1
 370 -154 l 1xd2
 311 -253 l 1
 223 -253 l 1
EndSplineSet
Substitution2: "'locl' Localized Forms in Latin lookup 11 subtable" uni0146.loclMAH
Substitution2: "'aalt' Access All Alternates in Latin lookup 0 subtable" uni0146.loclMAH
EndChar

StartChar: ntilde
Encoding: 241 241 245
Width: 611
GlyphClass: 2
Flags: MW
HStem: 0 21G<66 66 66 216 395 395 395 545> 429 107<66 344.5> 429 119<327.5 344.5> 595 142<134 260 134 260> 600 89<358 374 358 397.5> 600 144<346 476> 648 89<237 254>
VStem: 66 136.5 66 150<0 295 0 536> 134 68.5 134 74<595 638.5> 395 150<0 295 295 338> 401 75<744 744>
AnchorPoint: "Anchor-3" 305 536 basechar 0
AnchorPoint: "Anchor-0" 305 0 basechar 0
LayerCount: 2
Fore
SplineSet
361 600 m 0xa488
 331 600 311 608 285 630 c 0
 270 642 261 648 247 648 c 0xa230
 227 648 212 636 208 595 c 1xb030
 134 595 l 1
 134 682 175 737 244 737 c 0xb050
 276 737 300 728 326 707 c 0
 342 695 352 689 364 689 c 0xa888
 384 689 399 701 401 744 c 1
 476 744 l 1
 475 656 434 600 361 600 c 0xa488
66 0 m 1xb090
 66 536 l 1xd090
 201 536 l 1xd110
 204 447 l 1xb110
 233 520 292 548 363 548 c 0
 478 548 545 469 545 345 c 2
 545 0 l 1
 395 0 l 1
 395 295 l 2
 395 381 376 429 313 429 c 0
 251 429 216 381 216 295 c 2
 216 0 l 1
 66 0 l 1xb090
EndSplineSet
EndChar

StartChar: eng
Encoding: 331 331 246
Width: 611
GlyphClass: 2
Flags: MW
HStem: -150 102<276 336 336 354.5 276 377 276 336> 0 21G<66 66 66 216> 429 107<66 344.5> 429 119<327.5 344.5>
VStem: 66 136.5 66 150<0 295 0 536> 395 150<9 295 295 338>
AnchorPoint: "Anchor-3" 305 536 basechar 0
AnchorPoint: "Anchor-0" 305 0 basechar 0
LayerCount: 2
Fore
SplineSet
66 0 m 1xd6
 66 536 l 1xe6
 201 536 l 1xea
 204 447 l 1xda
 233 520 292 548 363 548 c 0
 478 548 545 469 545 345 c 2
 545 -3 l 2
 545 -87 481 -150 377 -150 c 2
 276 -150 l 1
 276 -48 l 1
 336 -48 l 2
 373 -48 395 -26 395 9 c 2
 395 295 l 2
 395 381 376 429 313 429 c 0
 251 429 216 381 216 295 c 2
 216 0 l 1
 66 0 l 1xd6
EndSplineSet
EndChar

StartChar: o
Encoding: 111 111 247
Width: 618
GlyphClass: 2
Flags: MW
HStem: -12 115<271.5 346.5 271.5 391> 433 115<271.5 346.5>
VStem: 37 154<216 320 216 352.5> 427 154<216 320>
AnchorPoint: "Anchor-3" 309 536 basechar 0
AnchorPoint: "Anchor-1" 309 268 basechar 0
AnchorPoint: "Anchor-0" 309 0 basechar 0
LayerCount: 2
Fore
SplineSet
309 -12 m 0
 145 -12 37 98 37 268 c 0
 37 437 145 548 309 548 c 0
 473 548 581 437 581 268 c 0
 581 98 473 -12 309 -12 c 0
309 103 m 0
 384 103 427 164 427 268 c 0
 427 372 384 433 309 433 c 0
 234 433 191 372 191 268 c 0
 191 164 234 103 309 103 c 0
EndSplineSet
Substitution2: "Single Substitution lookup 27 subtable" ordmasculine
Substitution2: "'aalt' Access All Alternates in Latin lookup 0 subtable" ordmasculine
EndChar

StartChar: oacute
Encoding: 243 243 248
Width: 618
GlyphClass: 2
Flags: MW
HStem: -12 115<271.5 346.5 271.5 391> 433 115<271.5 346.5> 591 148<241 445 300 355>
VStem: 37 154<216 320 216 352.5> 427 154<216 320>
AnchorPoint: "Anchor-3" 309 536 basechar 0
AnchorPoint: "Anchor-1" 309 268 basechar 0
AnchorPoint: "Anchor-0" 309 0 basechar 0
LayerCount: 2
Fore
SplineSet
241 591 m 1
 300 739 l 1
 445 739 l 1
 355 591 l 1
 241 591 l 1
309 -12 m 0
 145 -12 37 98 37 268 c 0
 37 437 145 548 309 548 c 0
 473 548 581 437 581 268 c 0
 581 98 473 -12 309 -12 c 0
309 103 m 0
 384 103 427 164 427 268 c 0
 427 372 384 433 309 433 c 0
 234 433 191 372 191 268 c 0
 191 164 234 103 309 103 c 0
EndSplineSet
EndChar

StartChar: ocircumflex
Encoding: 244 244 249
Width: 618
GlyphClass: 2
Flags: MW
HStem: -12 115<271.5 346.5 271.5 391> 433 115<271.5 346.5> 591 153<141 381 237 246 373 373 373 381 237 477>
VStem: 37 154<216 320 216 352.5> 427 154<216 320>
AnchorPoint: "Anchor-3" 309 536 basechar 0
AnchorPoint: "Anchor-1" 309 268 basechar 0
AnchorPoint: "Anchor-0" 309 0 basechar 0
LayerCount: 2
Fore
SplineSet
141 591 m 1
 237 744 l 1
 381 744 l 1
 477 591 l 1
 373 591 l 1
 309 680 l 1
 246 591 l 1
 141 591 l 1
309 -12 m 0
 145 -12 37 98 37 268 c 0
 37 437 145 548 309 548 c 0
 473 548 581 437 581 268 c 0
 581 98 473 -12 309 -12 c 0
309 103 m 0
 384 103 427 164 427 268 c 0
 427 372 384 433 309 433 c 0
 234 433 191 372 191 268 c 0
 191 164 234 103 309 103 c 0
EndSplineSet
EndChar

StartChar: odieresis
Encoding: 246 246 250
Width: 618
GlyphClass: 2
Flags: MW
HStem: -12 115<271.5 346.5 271.5 391> 433 115<271.5 346.5> 599 121<130 273 130 273 345 488 130 345>
VStem: 37 154<216 320 216 352.5> 130 143<599 720 599 720> 345 143<599 720 599 720> 427 154<216 320>
AnchorPoint: "Anchor-3" 309 536 basechar 0
AnchorPoint: "Anchor-1" 309 268 basechar 0
AnchorPoint: "Anchor-0" 309 0 basechar 0
LayerCount: 2
Fore
SplineSet
130 599 m 1xec
 130 720 l 1
 273 720 l 1
 273 599 l 1
 130 599 l 1xec
345 599 m 1
 345 720 l 1
 488 720 l 1
 488 599 l 1
 345 599 l 1
309 -12 m 0
 145 -12 37 98 37 268 c 0
 37 437 145 548 309 548 c 0
 473 548 581 437 581 268 c 0xf2
 581 98 473 -12 309 -12 c 0
309 103 m 0
 384 103 427 164 427 268 c 0
 427 372 384 433 309 433 c 0
 234 433 191 372 191 268 c 0
 191 164 234 103 309 103 c 0
EndSplineSet
Substitution2: "'ss08' Style Set 8 in Latin lookup 41 subtable" odieresis.ss08
Substitution2: "'aalt' Access All Alternates in Latin lookup 0 subtable" odieresis.ss08
EndChar

StartChar: ograve
Encoding: 242 242 251
Width: 618
GlyphClass: 2
Flags: MW
HStem: -12 115<271.5 346.5 271.5 391> 433 115<271.5 346.5> 598 147<261 261 261 317 171 376>
VStem: 37 154<216 320 216 352.5> 427 154<216 320>
AnchorPoint: "Anchor-3" 309 536 basechar 0
AnchorPoint: "Anchor-1" 309 268 basechar 0
AnchorPoint: "Anchor-0" 309 0 basechar 0
LayerCount: 2
Fore
SplineSet
261 598 m 1
 171 745 l 1
 317 745 l 1
 376 598 l 1
 261 598 l 1
309 -12 m 0
 145 -12 37 98 37 268 c 0
 37 437 145 548 309 548 c 0
 473 548 581 437 581 268 c 0
 581 98 473 -12 309 -12 c 0
309 103 m 0
 384 103 427 164 427 268 c 0
 427 372 384 433 309 433 c 0
 234 433 191 372 191 268 c 0
 191 164 234 103 309 103 c 0
EndSplineSet
EndChar

StartChar: ohungarumlaut
Encoding: 337 337 252
Width: 618
GlyphClass: 2
Flags: MW
HStem: -12 115<271.5 346.5 271.5 391> 433 115<271.5 346.5> 591 148<163 368 222 278 340 368 399 455 340 340>
VStem: 37 154<216 320 216 352.5> 427 154<216 320>
AnchorPoint: "Anchor-3" 309 536 basechar 0
AnchorPoint: "Anchor-1" 309 268 basechar 0
AnchorPoint: "Anchor-0" 309 0 basechar 0
LayerCount: 2
Fore
SplineSet
163 591 m 1
 222 739 l 1
 368 739 l 1
 278 591 l 1
 163 591 l 1
340 591 m 1
 399 739 l 1
 545 739 l 1
 455 591 l 1
 340 591 l 1
309 -12 m 0
 145 -12 37 98 37 268 c 0
 37 437 145 548 309 548 c 0
 473 548 581 437 581 268 c 0
 581 98 473 -12 309 -12 c 0
309 103 m 0
 384 103 427 164 427 268 c 0
 427 372 384 433 309 433 c 0
 234 433 191 372 191 268 c 0
 191 164 234 103 309 103 c 0
EndSplineSet
EndChar

StartChar: omacron
Encoding: 333 333 253
Width: 618
GlyphClass: 2
Flags: MW
HStem: -12 115<271.5 346.5 271.5 391> 433 115<271.5 346.5> 607 110<160 459 160 459>
VStem: 37 154<216 320 216 352.5> 160 299<607 717 607 717> 427 154<216 320>
AnchorPoint: "Anchor-3" 309 536 basechar 0
AnchorPoint: "Anchor-1" 309 268 basechar 0
AnchorPoint: "Anchor-0" 309 0 basechar 0
LayerCount: 2
Fore
SplineSet
160 607 m 1xe8
 160 717 l 1
 459 717 l 1
 459 607 l 1
 160 607 l 1xe8
309 -12 m 0
 145 -12 37 98 37 268 c 0
 37 437 145 548 309 548 c 0
 473 548 581 437 581 268 c 0xf4
 581 98 473 -12 309 -12 c 0
309 103 m 0
 384 103 427 164 427 268 c 0
 427 372 384 433 309 433 c 0
 234 433 191 372 191 268 c 0
 191 164 234 103 309 103 c 0
EndSplineSet
EndChar

StartChar: oslash
Encoding: 248 248 254
Width: 618
GlyphClass: 2
Flags: MW
HStem: -14 75<62 115 115 115 115 157> -12 115<298 346.5 298 391> 433 115<271.5 320> 475 75<503 503>
VStem: 37 154<252 320 252 352.5> 427 154<216 284>
AnchorPoint: "Anchor-3" 309 536 basechar 0
AnchorPoint: "Anchor-1" 309 268 basechar 0
AnchorPoint: "Anchor-0" 309 0 basechar 0
LayerCount: 2
Fore
SplineSet
62 -14 m 1x5c
 115 61 l 1
 65 110 37 181 37 268 c 0
 37 437 145 548 309 548 c 0xac
 358 548 402 538 440 520 c 1
 461 550 l 1
 556 550 l 1
 503 475 l 1
 553 426 581 355 581 268 c 0
 581 98 473 -12 309 -12 c 0
 260 -12 216 -2 178 16 c 1
 157 -14 l 1
 62 -14 l 1x5c
191 268 m 0
 191 236 195 208 203 185 c 1
 367 417 l 1
 351 427 331 433 309 433 c 0
 234 433 191 372 191 268 c 0
309 103 m 0
 384 103 427 164 427 268 c 0
 427 300 423 328 415 351 c 1
 251 119 l 1x6c
 267 109 287 103 309 103 c 0
EndSplineSet
EndChar

StartChar: otilde
Encoding: 245 245 255
Width: 618
GlyphClass: 2
Flags: MW
HStem: -12 115<271.5 346.5 271.5 391> 433 115<271.5 346.5> 595 142<137 264 137 264> 600 89<362 378 362 401.5> 600 144<349.5 480> 648 89<240.5 257>
VStem: 37 154<216 320 216 352.5> 137 75<595 595> 405 75<744 744> 427 154<216 320>
AnchorPoint: "Anchor-3" 309 536 basechar 0
AnchorPoint: "Anchor-1" 309 268 basechar 0
AnchorPoint: "Anchor-0" 309 0 basechar 0
LayerCount: 2
Fore
SplineSet
365 600 m 0xca80
 334 600 315 608 289 630 c 0
 274 642 264 648 250 648 c 0xc540
 231 648 215 636 212 595 c 1
 137 595 l 1
 138 682 179 737 248 737 c 0xe140
 280 737 303 728 329 707 c 0
 346 695 356 689 368 689 c 0xd280
 388 689 402 701 405 744 c 1
 480 744 l 1
 478 656 438 600 365 600 c 0xca80
309 -12 m 0
 145 -12 37 98 37 268 c 0xe240
 37 437 145 548 309 548 c 0
 473 548 581 437 581 268 c 0
 581 98 473 -12 309 -12 c 0
309 103 m 0
 384 103 427 164 427 268 c 0
 427 372 384 433 309 433 c 0
 234 433 191 372 191 268 c 0
 191 164 234 103 309 103 c 0
EndSplineSet
EndChar

